<?xml version="1.0" encoding="UTF-8" standalone="no"?>
<svg
   xmlns:dc="http://purl.org/dc/elements/1.1/"
   xmlns:cc="http://creativecommons.org/ns#"
   xmlns:rdf="http://www.w3.org/1999/02/22-rdf-syntax-ns#"
   xmlns:svg="http://www.w3.org/2000/svg"
   xmlns="http://www.w3.org/2000/svg"
   viewBox="0 0 1866.6667 1306.6667"
   height="1306.6667"
   width="1866.6667"
   xml:space="preserve"
   id="svg2"
   version="1.1"><metadata
     id="metadata8"><rdf:RDF><cc:Work
         rdf:about=""><dc:format>image/svg+xml</dc:format><dc:type
           rdf:resource="http://purl.org/dc/dcmitype/StillImage" /></cc:Work></rdf:RDF></metadata><defs
     id="defs6" /><g
     transform="matrix(1.3333333,0,0,-1.3333333,0,1306.6667)"
     id="g10"><g
       transform="scale(0.1)"
       id="g12"><path
         id="path14"
         style="fill:#fffadb;fill-opacity:1;fill-rule:nonzero;stroke:none"
         d="M 0,0 H 14000 V 9800 H 0 Z" /><path
         id="path16"
         style="fill:#ffffff;fill-opacity:1;fill-rule:nonzero;stroke:none"
         d="m 10905.8,8121.96 c -4.7,0.11 -10.5,0.13 -17.6,0.13 -131.5,0 -803.3,-26.47 -1268.52,-542.36 2.14,-89.43 19.66,-387.4 152.9,-747.25 209.22,-565.14 590.92,-1011.3 1134.72,-1326.43 v 2615.86 l -1.5,0.05" /><path
         id="path18"
         style="fill:#ffffff;fill-opacity:1;fill-rule:nonzero;stroke:none"
         d="m 10926.3,8122.09 c -7,0 -12.9,-0.02 -17.5,-0.13 l -1.5,-0.05 V 5506.05 c 1202.5,697.37 1282.7,1878.96 1287.5,2073.71 -465.2,515.86 -1137,542.33 -1268.5,542.33" /><path
         id="path20"
         style="fill:#ffffff;fill-opacity:1;fill-rule:nonzero;stroke:none"
         d="m 10921.2,7553.17 c -336.8,0 -609.9,-273.04 -609.9,-609.93 h 609.9 v 609.93" /><path
         id="path22"
         style="fill:#ffffff;fill-opacity:1;fill-rule:nonzero;stroke:none"
         d="m 10311.3,6943.24 c 0,-336.87 273.1,-609.94 609.9,-609.94 v 609.94 h -609.9" /><path
         id="path24"
         style="fill:#ffffff;fill-opacity:1;fill-rule:nonzero;stroke:none"
         d="m 10921.2,6333.3 c 336.9,0 610,273.07 610,609.94 h -610 V 6333.3" /><path
         id="path26"
         style="fill:#ffffff;fill-opacity:1;fill-rule:nonzero;stroke:none"
         d="m 10921.2,7553.17 v -609.93 h 610 c 0,336.89 -273.1,609.93 -610,609.93" /><path
         id="path28"
         style="fill:#ffffff;fill-opacity:1;fill-rule:nonzero;stroke:none"
         d="m 10921.2,7500.91 c -307.5,0 -557.7,-250.17 -557.7,-557.67 0,-307.49 250.2,-557.65 557.7,-557.65 307.5,0 557.7,250.16 557.7,557.65 0,307.5 -250.2,557.67 -557.7,557.67 z m 0,-1219.89 c -365.1,0 -662.2,297.07 -662.2,662.22 0,365.14 297.1,662.24 662.2,662.24 365.2,0 662.3,-297.1 662.3,-662.24 0,-365.15 -297.1,-662.22 -662.3,-662.22" /><path
         id="path30"
         style="fill:#ffffff;fill-opacity:1;fill-rule:nonzero;stroke:none"
         d="m 7637.63,5817.52 532.73,5.01 c 0,0 303.23,4.6 156.63,354.22 l 70.31,253.56 -123.95,197.64 c 0,0 339.63,77.57 149.58,265.38 l -270.39,364.91 c 0,0 138.6,202.97 11.7,420.46 0,0 -596.56,1376.57 -2010.03,619.22 0,0 -988.91,-660.42 -189.63,-1811 0,0 106.53,-125.96 218.82,-109.24 l 976.99,23.88 477.24,-584.04" /><path
         id="path32"
         style="fill:#ffffff;fill-opacity:1;fill-rule:nonzero;stroke:none"
         d="m 7637.63,5817.52 532.73,5.01 c 0,0 303.23,4.6 156.63,354.22 l 70.31,253.56 -123.95,197.64 c 0,0 339.63,77.57 149.58,265.38 l -270.39,364.91 c 0,0 138.6,202.97 11.7,420.46 0,0 -596.56,1376.57 -2010.03,619.22 0,0 -988.91,-660.42 -189.63,-1811 0,0 106.53,-125.96 218.82,-109.24 l 976.99,23.88 477.24,-584.04" /><path
         id="path34"
         style="fill:#ffffff;fill-opacity:1;fill-rule:nonzero;stroke:none"
         d="m 6619.39,7836.96 c -264.77,0 -479.42,-214.67 -479.42,-479.44 h 479.42 v 479.44" /><path
         id="path36"
         style="fill:#ffffff;fill-opacity:1;fill-rule:nonzero;stroke:none"
         d="m 6139.97,7357.52 c 0,-264.81 214.65,-479.48 479.42,-479.48 v 479.48 h -479.42" /><path
         id="path38"
         style="fill:#ffffff;fill-opacity:1;fill-rule:nonzero;stroke:none"
         d="m 6619.39,6878.04 c 264.8,0 479.46,214.67 479.46,479.48 h -479.46 v -479.48" /><path
         id="path40"
         style="fill:#ffffff;fill-opacity:1;fill-rule:nonzero;stroke:none"
         d="m 6619.39,7836.96 v -479.44 h 479.46 c 0,264.77 -214.66,479.44 -479.46,479.44" /><path
         id="path42"
         style="fill:#ffffff;fill-opacity:1;fill-rule:nonzero;stroke:none"
         d="m 6619.39,7795.87 c -241.71,0 -438.35,-196.65 -438.35,-438.35 0,-241.72 196.64,-438.36 438.35,-438.36 241.71,0 438.36,196.64 438.36,438.36 0,241.7 -196.65,438.35 -438.36,438.35 z m 0,-958.91 c -287.03,0 -520.55,233.53 -520.55,520.56 0,287.02 233.52,520.55 520.55,520.55 287.03,0 520.54,-233.53 520.54,-520.55 0,-287.03 -233.51,-520.56 -520.54,-520.56" /><path
         id="path44"
         style="fill:#ffffff;fill-opacity:1;fill-rule:nonzero;stroke:none"
         d="m 7098.85,6201.54 c 0,-68.25 -55.31,-123.57 -123.58,-123.57 h -596.05 c -68.23,0 -123.57,55.32 -123.57,123.57 v 0 c 0,68.25 55.34,123.57 123.57,123.57 h 596.05 c 68.27,0 123.58,-55.32 123.58,-123.57 v 0" /><path
         id="path46"
         style="fill:#ffffff;fill-opacity:1;fill-rule:nonzero;stroke:none"
         d="m 7098.85,5897.62 c 0,-68.25 -55.31,-123.56 -123.58,-123.56 h -596.05 c -68.23,0 -123.57,55.31 -123.57,123.56 v 0 c 0,68.26 55.34,123.57 123.57,123.57 h 596.05 c 68.27,0 123.58,-55.31 123.58,-123.57 v 0" /><path
         id="path48"
         style="fill:#ffffff;fill-opacity:1;fill-rule:nonzero;stroke:none"
         d="m 7098.85,5593.72 c 0,-68.26 -55.31,-123.57 -123.58,-123.57 h -596.05 c -68.23,0 -123.57,55.31 -123.57,123.57 v 0 c 0,68.25 55.34,123.57 123.57,123.57 h 596.05 c 68.27,0 123.58,-55.32 123.58,-123.57 v 0" /><path
         id="path50"
         style="fill:#ffffff;fill-opacity:1;fill-rule:nonzero;stroke:none"
         d="m 3086.08,5522.35 c -750.09,0 -1358.18,608.09 -1358.18,1358.21 0,750.12 608.09,1358.21 1358.18,1358.21 750.13,0 1358.21,-608.09 1358.21,-1358.21 0,-750.12 -608.08,-1358.21 -1358.21,-1358.21 z m 0,2835.28 c -815.85,0 -1479.59,-663.74 -1479.59,-1479.59 0,-815.86 663.74,-1479.59 1479.59,-1479.59 815.85,0 1479.59,663.73 1479.59,1479.59 0,815.85 -663.74,1479.59 -1479.59,1479.59" /><path
         id="path52"
         style="fill:#ffffff;fill-opacity:1;fill-rule:nonzero;stroke:none"
         d="m 4090.02,7111.71 c -398.31,265.55 -1003.94,240.01 -1003.94,240.01 0,0 -605.6,25.54 -1003.94,-240.01 0,0 -125.55,-62.75 -203.51,22.96 118.48,557.91 614.76,977.83 1207.45,977.83 592.69,0 1089,-419.92 1207.48,-977.83 -77.96,-85.71 -203.54,-22.96 -203.54,-22.96 z M 3610.78,5760.93 c -202.99,-76.59 -226.74,93.28 -226.74,93.28 -19.14,260.44 222.11,543.85 222.11,543.85 271.96,320.84 501.75,292.35 501.75,292.35 89.59,-13.56 142.82,-61.52 174.36,-117.72 -91.82,-359.57 -341.97,-656.36 -671.48,-811.76 z m -822.64,93.28 c 0,0 -23.77,-169.87 -226.75,-93.28 -329.49,155.4 -579.65,452.19 -671.49,811.76 31.55,56.2 84.77,104.16 174.36,117.72 0,0 229.82,28.49 501.74,-292.35 0,0 241.29,-283.41 222.14,-543.85 z m 297.94,2384.56 c -750.09,0 -1358.18,-608.09 -1358.18,-1358.21 0,-750.12 608.09,-1358.21 1358.18,-1358.21 750.13,0 1358.21,608.09 1358.21,1358.21 0,750.12 -608.08,1358.21 -1358.21,1358.21" /><path
         id="path54"
         style="fill:#ffffff;fill-opacity:1;fill-rule:nonzero;stroke:none"
         d="m 3155.67,5899.58 c -76.35,0 -148.15,10.47 -209.41,24.17 -14.3,282.54 -229.06,543.03 -255.38,573.92 -201.72,238.04 -390.49,312.08 -507.85,333.48 -18.42,62.88 -21.03,120.41 -16.48,168.89 l 4.8,2.39 7.2,4.78 c 302.7,201.85 752.78,217.5 883.53,217.5 23.22,0 36.81,-0.47 38.24,-0.52 l 5.67,-0.23 5.82,0.23 c 1.3,0.05 14.87,0.52 38.09,0.52 130.74,0 580.81,-15.65 883.53,-217.5 l 7.2,-4.78 4.8,-2.39 c 4.55,-48.48 1.93,-106.01 -16.49,-168.89 -117.35,-21.4 -306.18,-95.5 -508.05,-333.71 -26.61,-31.25 -249.17,-301.3 -255.77,-590.06 -35.15,-5.19 -71.7,-7.8 -109.45,-7.8" /><path
         id="path56"
         style="fill:#ffffff;fill-opacity:1;fill-rule:nonzero;stroke:none"
         d="m 3105.99,7097.12 c -162.78,0 -294.76,-131.97 -294.76,-294.72 h 294.76 v 294.72" /><path
         id="path58"
         style="fill:#ffffff;fill-opacity:1;fill-rule:nonzero;stroke:none"
         d="m 2811.23,6802.4 c 0,-162.81 131.98,-294.73 294.76,-294.73 v 294.73 h -294.76" /><path
         id="path60"
         style="fill:#ffffff;fill-opacity:1;fill-rule:nonzero;stroke:none"
         d="m 3105.99,6507.67 c 162.76,0 294.72,131.92 294.72,294.73 h -294.72 v -294.73" /><path
         id="path62"
         style="fill:#ffffff;fill-opacity:1;fill-rule:nonzero;stroke:none"
         d="M 3105.99,7097.12 V 6802.4 h 294.72 c 0,162.75 -131.96,294.72 -294.72,294.72" /><path
         id="path64"
         style="fill:#ffffff;fill-opacity:1;fill-rule:nonzero;stroke:none"
         d="m 3105.99,7071.87 c -148.59,0 -269.47,-120.91 -269.47,-269.47 0,-148.62 120.88,-269.5 269.47,-269.5 148.59,0 269.47,120.88 269.47,269.5 0,148.56 -120.88,269.47 -269.47,269.47 z m 0,-589.51 c -176.46,0 -320.01,143.55 -320.01,320.04 0,176.43 143.55,319.98 320.01,319.98 176.43,0 320.01,-143.55 320.01,-319.98 0,-176.49 -143.58,-320.04 -320.01,-320.04" /><path
         id="path66"
         style="fill:#ffffff;fill-opacity:1;fill-rule:nonzero;stroke:none"
         d="m 8417.81,2821.48 c -37.19,165.08 -155.71,269.87 -224.85,318.64 l -91.9,694.38 -1.2,6.35 c -128.93,533.67 -894.59,549.09 -981.5,549.09 l -5.35,-0.06 c -910.66,0 -985.41,-533.41 -988.04,-555.38 l -91.9,-694.38 c -69.14,-48.77 -187.65,-153.56 -224.83,-318.64 -35.52,-157.72 10.35,-325.12 136.27,-497.87 16.6,-209.06 146.43,-1026.87 1156.37,-1125.84 l 12.13,-1.23 12.03,1.23 c 1010.05,98.97 1139.88,916.78 1156.49,1125.84 125.89,172.75 171.76,340.15 136.28,497.87" /><path
         id="path68"
         style="fill:#ffffff;fill-opacity:1;fill-rule:nonzero;stroke:none"
         d="m 8417.81,2821.48 c -37.19,165.08 -155.71,269.87 -224.85,318.64 l -91.9,694.38 -1.2,6.35 c -128.93,533.67 -894.59,549.09 -981.5,549.09 l -5.35,-0.06 c -910.66,0 -985.41,-533.41 -988.04,-555.38 l -91.9,-694.38 c -69.14,-48.77 -187.65,-153.56 -224.83,-318.64 -35.52,-157.72 10.35,-325.12 136.27,-497.87 16.6,-209.06 146.43,-1026.87 1156.37,-1125.84 l 12.13,-1.23 12.03,1.23 c 1010.05,98.97 1139.88,916.78 1156.49,1125.84 125.89,172.75 171.76,340.15 136.28,497.87" /><path
         id="path70"
         style="fill:#ffffff;fill-opacity:1;fill-rule:nonzero;stroke:none"
         d="m 7113.01,3916.54 c -162.68,0 -294.51,-131.87 -294.51,-294.52 h 294.51 v 294.52" /><path
         id="path72"
         style="fill:#ffffff;fill-opacity:1;fill-rule:nonzero;stroke:none"
         d="m 6818.5,3622.02 c 0,-162.68 131.83,-294.54 294.51,-294.54 v 294.54 H 6818.5" /><path
         id="path74"
         style="fill:#ffffff;fill-opacity:1;fill-rule:nonzero;stroke:none"
         d="m 7113.01,3327.48 c 162.62,0 294.53,131.86 294.53,294.54 h -294.53 v -294.54" /><path
         id="path76"
         style="fill:#ffffff;fill-opacity:1;fill-rule:nonzero;stroke:none"
         d="m 7113.01,3916.54 v -294.52 h 294.53 c 0,162.65 -131.91,294.52 -294.53,294.52" /><path
         id="path78"
         style="fill:#ffffff;fill-opacity:1;fill-rule:nonzero;stroke:none"
         d="m 7113.01,3891.28 c -148.49,0 -269.26,-120.77 -269.26,-269.26 0,-148.51 120.77,-269.31 269.26,-269.31 148.48,0 269.28,120.8 269.28,269.31 0,148.49 -120.8,269.26 -269.28,269.26 z m 0,-589.08 c -176.29,0 -319.74,143.47 -319.74,319.82 0,176.27 143.45,319.73 319.74,319.73 176.33,0 319.77,-143.46 319.77,-319.73 0,-176.35 -143.44,-319.82 -319.77,-319.82" /><path
         id="path80"
         style="fill:#ffffff;fill-opacity:1;fill-rule:nonzero;stroke:none"
         d="m 6719,2925.9 c 0,-81.53 -66.08,-147.68 -147.62,-147.68 -81.54,0 -147.62,66.15 -147.62,147.68 0,81.54 66.08,147.63 147.62,147.63 81.54,0 147.62,-66.09 147.62,-147.63" /><path
         id="path82"
         style="fill:#ffffff;fill-opacity:1;fill-rule:nonzero;stroke:none"
         d="m 7802.32,2925.9 c 0,-81.53 -66.12,-147.68 -147.67,-147.68 -81.52,0 -147.63,66.15 -147.63,147.68 0,81.54 66.11,147.63 147.63,147.63 81.55,0 147.67,-66.09 147.67,-147.63" /><path
         id="path84"
         style="fill:#ffffff;fill-opacity:1;fill-rule:nonzero;stroke:none"
         d="m 7723.42,1954.42 -87.61,125.22 c -7.94,11.32 -23.54,14.03 -34.86,6.13 -11.33,-7.91 -14.08,-23.54 -6.16,-34.86 l 32.35,-46.21 c -443.42,-286.15 -957.76,-36.09 -1035.25,4.77 l 24.9,43.32 c 6.88,11.98 2.76,27.32 -9.19,34.17 -12.01,6.9 -27.32,2.8 -34.21,-9.23 l -71.98,-125.16 c -6.89,-11.97 -2.77,-27.29 9.23,-34.18 3.92,-2.27 8.23,-3.37 12.45,-3.37 8.66,0 17.09,4.54 21.71,12.58 l 22.08,38.36 c 36.96,-19.86 170.79,-87.15 352.95,-124 78.56,-15.81 155.4,-23.72 230.04,-23.72 185.91,0 357.78,49.11 506.11,145.26 l 26.42,-37.78 c 4.89,-6.94 12.63,-10.7 20.56,-10.7 4.93,0 9.97,1.49 14.3,4.54 11.32,7.94 14.09,23.59 6.16,34.86" /><path
         id="path86"
         style="fill:#ffffff;fill-opacity:1;fill-rule:nonzero;stroke:none"
         d="m 7139.44,2120.67 c -1.43,0 -2.87,0.11 -4.27,0.32 -75.54,10.17 -121.62,37.37 -136.99,80.78 -19.78,55.96 21.17,114.74 40.5,138.23 v 396.61 c 0,17.51 14.14,31.62 31.65,31.62 17.48,0 31.61,-14.11 31.61,-31.62 v -421.03 l -8.62,-9.18 c -15.4,-16.45 -44.38,-58.53 -35.44,-83.63 6.66,-18.63 37.07,-32.54 85.73,-39.11 17.33,-2.29 29.47,-18.23 27.14,-35.54 -2.14,-15.89 -15.73,-27.45 -31.31,-27.45" /><path
         id="path88"
         style="fill:#ffffff;fill-opacity:1;fill-rule:nonzero;stroke:none"
         d="m 10907.3,5506.05 c -543.8,315.13 -925.5,761.29 -1134.72,1326.43 -133.24,359.85 -150.76,657.82 -152.9,747.25 465.22,515.89 1137.02,542.36 1268.52,542.36 7.1,0 12.9,-0.02 17.6,-0.13 l 1.5,-0.05 1.5,0.05 c 4.6,0.11 10.5,0.13 17.5,0.13 131.5,0 803.3,-26.47 1268.5,-542.33 -4.8,-194.75 -85,-1376.34 -1287.5,-2073.71 z m 1444.6,2105.15 -0.7,28.13 -18.5,21.23 c -510.3,588.58 -1261.1,618.37 -1406.4,618.37 -7.5,0 -13.8,-0.05 -19,-0.14 -5.2,0.09 -11.6,0.14 -19.1,0.14 -145.3,0 -896.03,-29.79 -1406.38,-618.37 l -18.42,-21.23 -0.73,-28.13 c -0.38,-14.9 -7.42,-369.82 160.41,-826.57 151.82,-413.45 481.62,-989.46 1191.82,-1406.3 l 92.4,-52.52 92.3,52.52 c 710.3,416.84 1040,992.85 1191.9,1406.3 167.8,456.75 160.8,811.67 160.4,826.57" /><path
         id="path90"
         style="fill:#ffffff;fill-opacity:1;fill-rule:nonzero;stroke:none"
         d="m 3222.82,3060.54 -184.26,-184.24 -213.32,213.35 184.21,184.24 z m -582.66,15.34 105.92,-0.7 270.46,-270.44 c 14.22,-14.25 37.47,-14.25 51.72,0 l 232.73,232.7 c 14.25,14.22 14.25,37.53 0,51.72 l -270.43,270.46 -7.36,99.34 -383.04,-383.08" /><path
         id="path92"
         style="fill:#ffffff;fill-opacity:1;fill-rule:nonzero;stroke:none"
         d="m 3648.14,3121.75 -111.59,-111.67 c 2.92,-2.61 5.9,-5.23 8.71,-8.06 66.79,-66.75 79.06,-162.9 27.35,-214.61 L 3246.52,2461.3 c -51.74,-51.69 -147.86,-39.47 -214.65,27.37 -2.85,2.81 -5.46,5.76 -8.07,8.71 l -84.93,-84.9 c -14.22,-14.25 -13.17,-36.37 2.38,-49.18 l 770.08,-635.38 c 15.51,-12.75 39.85,-11.66 54.06,2.61 l 564.69,564.69 c 14.2,14.2 15.35,38.54 2.57,54.04 l -635.38,770.11 c -12.79,15.5 -34.91,16.57 -49.13,2.38" /><path
         id="path94"
         style="fill:#ffffff;fill-opacity:1;fill-rule:nonzero;stroke:none"
         d="m 3057.71,2514.5 c 48.28,-48.27 117.99,-57.2 155.41,-19.8 l 326.06,326.11 c 37.39,37.38 28.52,107.1 -19.78,155.35 -2.81,2.86 -5.76,5.53 -8.71,8.09 l -461.04,-461.04 c 2.56,-2.95 5.25,-5.88 8.06,-8.71" /><path
         id="path96"
         style="fill:#ffffff;fill-opacity:1;fill-rule:nonzero;stroke:none"
         d="m 2364.58,3294.86 c -13.65,-13.67 -13.65,-35.88 0,-49.52 l 62.54,-62.51 c 13.65,-13.65 35.85,-13.68 49.5,0 l 446.28,446.26 c 13.68,13.67 13.65,35.87 0,49.52 l -62.53,62.54 c -13.62,13.62 -35.85,13.65 -49.53,0 z m 713.49,179.1 -446.29,-446.3 c -99.2,-99.22 -260.63,-99.22 -359.83,0 l -62.51,62.49 c -99.21,99.22 -99.21,260.65 0,359.85 l 446.26,446.29 c 99.21,99.23 260.66,99.23 359.85,0 l 62.52,-62.51 c 99.2,-99.23 99.2,-260.64 0,-359.82" /><path
         id="path98"
         style="fill:#ffffff;fill-opacity:1;fill-rule:nonzero;stroke:none"
         d="m 2615.19,3943.91 -633.48,633.53 c -85.16,-62.05 -166.65,-131.42 -243.51,-208.26 -76.86,-76.9 -146.23,-158.36 -208.29,-243.5 l 633.51,-633.51 451.77,451.74" /><path
         id="path100"
         style="fill:#ffffff;fill-opacity:1;fill-rule:nonzero;stroke:none"
         d="m 3892.44,1767.01 637.33,-460.85 c 49.57,41.01 97.76,84.64 144.2,131.08 106.35,106.37 198.4,221.6 276.38,343.2 l -606.17,438.37 -451.74,-451.8" /><path
         id="path102"
         style="fill:#ffffff;fill-opacity:1;fill-rule:nonzero;stroke:none"
         d="m 4343.34,1168.95 c 40.97,26.68 81.17,55.04 120.55,84.97 l -383.45,278.77 262.9,-363.74" /><path
         id="path104"
         style="fill:#ffffff;fill-opacity:1;fill-rule:nonzero;stroke:none"
         d="m 11394.4,3369.28 c -2.5,2.06 -5.1,3.85 -7.7,5.82 -13.3,11.5 -28.2,21.07 -44.5,28.36 -55.3,28.41 -115.2,36.07 -166.8,23 -175.3,15.36 -538.2,58.97 -765,169.26 -90,43.75 -198.3,6.26 -242,-83.65 -43.8,-89.91 -6.3,-198.27 83.6,-242 179.4,-87.24 412.8,-139.43 610.1,-170.28 l -445.6,-540.36 -765.19,-158.3 -370.28,-592.4 c -60.59,-96.9 -31.12,-224.62 65.8,-285.18 34.12,-21.32 72.03,-31.47 109.47,-31.47 69.01,0 136.45,34.47 175.73,97.28 l 276.44,442.34 595.63,123.2 c 87.1,-35.43 181.3,-21.55 234.1,42.48 l 716.9,869.31 c 68.4,83.06 41.3,218.52 -60.7,302.59" /><path
         id="path106"
         style="fill:#ffffff;fill-opacity:1;fill-rule:nonzero;stroke:none"
         d="m 11394.4,3369.28 c -2.5,2.06 -5.1,3.85 -7.7,5.82 -13.3,11.5 -28.2,21.07 -44.5,28.36 -55.3,28.41 -115.2,36.07 -166.8,23 -175.3,15.36 -538.2,58.97 -765,169.26 -90,43.75 -198.3,6.26 -242,-83.65 -43.8,-89.91 -6.3,-198.27 83.6,-242 179.4,-87.24 412.8,-139.43 610.1,-170.28 l -445.6,-540.36 -765.19,-158.3 -370.28,-592.4 c -60.59,-96.9 -31.12,-224.62 65.8,-285.18 34.12,-21.32 72.03,-31.47 109.47,-31.47 69.01,0 136.45,34.47 175.73,97.28 l 276.44,442.34 595.63,123.2 c 87.1,-35.43 181.3,-21.55 234.1,42.48 l 716.9,869.31 c 68.4,83.06 41.3,218.52 -60.7,302.59" /><path
         id="path108"
         style="fill:#ffffff;fill-opacity:1;fill-rule:nonzero;stroke:none"
         d="m 11734.3,3906.57 c 0,-192.89 -156.4,-349.26 -349.3,-349.26 -192.9,0 -349.2,156.37 -349.2,349.26 0,192.89 156.3,349.21 349.2,349.21 192.9,0 349.3,-156.32 349.3,-349.21" /><path
         id="path110"
         style="fill:#ffffff;fill-opacity:1;fill-rule:nonzero;stroke:none"
         d="m 11734.3,3906.57 c 0,-192.89 -156.4,-349.26 -349.3,-349.26 -192.9,0 -349.2,156.37 -349.2,349.26 0,192.89 156.3,349.21 349.2,349.21 192.9,0 349.3,-156.32 349.3,-349.21" /><path
         id="path112"
         style="fill:#ffffff;fill-opacity:1;fill-rule:nonzero;stroke:none"
         d="m 11864.9,3671.1 c 0,0 -7.8,-2.25 -20.3,-8.56 252.6,-375.26 114.6,-869.29 114.6,-869.29 l -607.8,-1076.99 -1444.71,-50.93 c -1.17,-5.48 -2.77,-10.62 -3.74,-16.28 l 66.83,-79.76 h 1435.72 l 653.2,1170.56 c 0,0 213.9,808.38 -193.8,931.25" /><path
         id="path114"
         style="fill:#ffffff;fill-opacity:1;fill-rule:nonzero;stroke:none"
         d="m 11959.2,2793.25 c 0,0 138,494.03 -114.6,869.29 -70.2,-35.35 -291.4,-200.54 -152.4,-840.79 0,0 -508.8,-400.92 -845,-862.24 0,0 -841.7,167.94 -940.51,-294.18 l 1444.71,50.93 607.8,1076.99" /><path
         id="path116"
         style="fill:#ffffff;fill-opacity:1;fill-rule:nonzero;stroke:none"
         d="m 11415.3,1500.77 c -21.3,-18.84 -54.2,-16.81 -73,4.54 l -1005.1,1137.45 c -18.8,21.32 -16.8,54.19 4.5,73.04 l 155.1,137.02 c 21.4,18.82 54.2,16.81 73,-4.59 l 1005.1,-1137.42 c 18.9,-21.3 16.8,-54.17 -4.5,-73.01 l -155.1,-137.03" /><path
         id="path118"
         style="fill:#e6e3c9;fill-opacity:1;fill-rule:nonzero;stroke:none"
         d="m 10964.8,8017.38 c -4.6,0.1 -10.5,0.12 -17.5,0.12 -131.5,0 -803.4,-26.48 -1268.59,-542.35 2.14,-89.45 19.65,-387.42 152.9,-747.26 209.19,-565.14 590.89,-1011.3 1134.69,-1326.43 v 2615.86 l -1.5,0.06" /><path
         id="path120"
         style="fill:#e6e3c9;fill-opacity:1;fill-rule:nonzero;stroke:none"
         d="m 10985.3,8017.5 c -7,0 -12.8,-0.02 -17.5,-0.12 l -1.5,-0.06 V 5401.46 c 1202.5,697.37 1282.7,1878.96 1287.6,2073.71 -465.2,515.85 -1137,542.33 -1268.6,542.33" /><path
         id="path122"
         style="fill:#e6e3c9;fill-opacity:1;fill-rule:nonzero;stroke:none"
         d="m 10980.3,7448.58 c -336.9,0 -610,-273.05 -610,-609.93 h 610 v 609.93" /><path
         id="path124"
         style="fill:#e6e3c9;fill-opacity:1;fill-rule:nonzero;stroke:none"
         d="m 10370.3,6838.65 c 0,-336.87 273.1,-609.94 610,-609.94 v 609.94 h -610" /><path
         id="path126"
         style="fill:#e6e3c9;fill-opacity:1;fill-rule:nonzero;stroke:none"
         d="m 10980.3,6228.71 c 336.8,0 609.9,273.07 609.9,609.94 h -609.9 v -609.94" /><path
         id="path128"
         style="fill:#e6e3c9;fill-opacity:1;fill-rule:nonzero;stroke:none"
         d="m 10980.3,7448.58 v -609.93 h 609.9 c 0,336.88 -273.1,609.93 -609.9,609.93" /><path
         id="path130"
         style="fill:#e6e3c9;fill-opacity:1;fill-rule:nonzero;stroke:none"
         d="m 10980.3,7396.32 c -307.5,0 -557.7,-250.16 -557.7,-557.67 0,-307.49 250.2,-557.66 557.7,-557.66 307.5,0 557.6,250.17 557.6,557.66 0,307.51 -250.1,557.67 -557.6,557.67 z m 0,-1219.9 c -365.2,0 -662.3,297.08 -662.3,662.23 0,365.14 297.1,662.25 662.3,662.25 365.1,0 662.2,-297.11 662.2,-662.25 0,-365.15 -297.1,-662.23 -662.2,-662.23" /><path
         id="path132"
         style="fill:#e6e3c9;fill-opacity:1;fill-rule:nonzero;stroke:none"
         d="m 7696.65,5712.94 532.74,5.01 c 0,0 303.24,4.58 156.63,354.21 l 70.31,253.56 -123.96,197.63 c 0,0 339.63,77.58 149.58,265.39 l -270.38,364.9 c 0,0 138.6,202.97 11.69,420.47 0,0 -596.56,1376.58 -2010.02,619.22 0,0 -988.92,-660.42 -189.63,-1811 0,0 106.53,-125.96 218.82,-109.24 l 976.99,23.87 477.23,-584.02" /><path
         id="path134"
         style="fill:#e6e3c9;fill-opacity:1;fill-rule:nonzero;stroke:none"
         d="m 7696.65,5712.94 532.74,5.01 c 0,0 303.24,4.58 156.63,354.21 l 70.31,253.56 -123.96,197.63 c 0,0 339.63,77.58 149.58,265.39 l -270.38,364.9 c 0,0 138.6,202.97 11.69,420.47 0,0 -596.56,1376.58 -2010.02,619.22 0,0 -988.92,-660.42 -189.63,-1811 0,0 106.53,-125.96 218.82,-109.24 l 976.99,23.87 477.23,-584.02" /><path
         id="path136"
         style="fill:#e6e3c9;fill-opacity:1;fill-rule:nonzero;stroke:none"
         d="m 6678.41,7732.38 c -264.77,0 -479.42,-214.68 -479.42,-479.46 h 479.42 v 479.46" /><path
         id="path138"
         style="fill:#e6e3c9;fill-opacity:1;fill-rule:nonzero;stroke:none"
         d="m 6198.99,7252.92 c 0,-264.8 214.65,-479.48 479.42,-479.48 v 479.48 h -479.42" /><path
         id="path140"
         style="fill:#e6e3c9;fill-opacity:1;fill-rule:nonzero;stroke:none"
         d="m 6678.41,6773.44 c 264.81,0 479.46,214.68 479.46,479.48 h -479.46 v -479.48" /><path
         id="path142"
         style="fill:#e6e3c9;fill-opacity:1;fill-rule:nonzero;stroke:none"
         d="m 6678.41,7732.38 v -479.46 h 479.46 c 0,264.78 -214.65,479.46 -479.46,479.46" /><path
         id="path144"
         style="fill:#e6e3c9;fill-opacity:1;fill-rule:nonzero;stroke:none"
         d="m 6678.41,7691.29 c -241.7,0 -438.35,-196.66 -438.35,-438.37 0,-241.7 196.65,-438.36 438.35,-438.36 241.72,0 438.37,196.66 438.37,438.36 0,241.71 -196.65,438.37 -438.37,438.37 z m 0,-958.91 c -287.03,0 -520.54,233.51 -520.54,520.54 0,287.04 233.51,520.55 520.54,520.55 287.04,0 520.55,-233.51 520.55,-520.55 0,-287.03 -233.51,-520.54 -520.55,-520.54" /><path
         id="path146"
         style="fill:#e6e3c9;fill-opacity:1;fill-rule:nonzero;stroke:none"
         d="m 7157.87,6096.95 c 0,-68.26 -55.31,-123.57 -123.57,-123.57 h -596.05 c -68.23,0 -123.57,55.31 -123.57,123.57 v 0 c 0,68.25 55.34,123.57 123.57,123.57 h 596.05 c 68.26,0 123.57,-55.32 123.57,-123.57 v 0" /><path
         id="path148"
         style="fill:#e6e3c9;fill-opacity:1;fill-rule:nonzero;stroke:none"
         d="m 7157.87,5793.04 c 0,-68.25 -55.31,-123.57 -123.57,-123.57 h -596.05 c -68.23,0 -123.57,55.32 -123.57,123.57 v 0 c 0,68.25 55.34,123.57 123.57,123.57 h 596.05 c 68.26,0 123.57,-55.32 123.57,-123.57 v 0" /><path
         id="path150"
         style="fill:#e6e3c9;fill-opacity:1;fill-rule:nonzero;stroke:none"
         d="m 7157.87,5489.12 c 0,-68.25 -55.31,-123.57 -123.57,-123.57 h -596.05 c -68.23,0 -123.57,55.32 -123.57,123.57 v 0 c 0,68.26 55.34,123.57 123.57,123.57 h 596.05 c 68.26,0 123.57,-55.31 123.57,-123.57 v 0" /><path
         id="path152"
         style="fill:#e6e3c9;fill-opacity:1;fill-rule:nonzero;stroke:none"
         d="m 3145.11,5417.77 c -750.1,0 -1358.19,608.07 -1358.19,1358.21 0,750.12 608.09,1358.2 1358.19,1358.2 750.12,0 1358.21,-608.08 1358.21,-1358.2 0,-750.14 -608.09,-1358.21 -1358.21,-1358.21 z m 0,2835.26 c -815.85,0 -1479.59,-663.74 -1479.59,-1479.59 0,-815.85 663.74,-1479.59 1479.59,-1479.59 815.85,0 1479.59,663.74 1479.59,1479.59 0,815.85 -663.74,1479.59 -1479.59,1479.59" /><path
         id="path154"
         style="fill:#e6e3c9;fill-opacity:1;fill-rule:nonzero;stroke:none"
         d="m 4149.05,7007.12 c -398.31,265.56 -1003.94,240.01 -1003.94,240.01 0,0 -605.6,25.55 -1003.95,-240.01 0,0 -125.55,-62.75 -203.51,22.96 118.48,557.91 614.77,977.82 1207.46,977.82 592.68,0 1089,-419.91 1207.48,-977.82 -77.96,-85.71 -203.54,-22.96 -203.54,-22.96 z M 3669.8,5656.34 c -202.98,-76.6 -226.73,93.27 -226.73,93.27 -19.15,260.46 222.12,543.86 222.12,543.86 271.94,320.85 501.73,292.35 501.73,292.35 89.6,-13.57 142.83,-61.52 174.37,-117.72 -91.82,-359.57 -341.98,-656.35 -671.49,-811.76 z m -822.63,93.27 c 0,0 -23.77,-169.87 -226.76,-93.27 -329.48,155.41 -579.65,452.19 -671.49,811.76 31.55,56.2 84.77,104.15 174.37,117.72 0,0 229.82,28.5 501.73,-292.35 0,0 241.3,-283.4 222.15,-543.86 z m 297.94,2384.57 c -750.1,0 -1358.19,-608.08 -1358.19,-1358.2 0,-750.14 608.09,-1358.21 1358.19,-1358.21 750.12,0 1358.21,608.07 1358.21,1358.21 0,750.12 -608.09,1358.2 -1358.21,1358.2" /><path
         id="path156"
         style="fill:#e6e3c9;fill-opacity:1;fill-rule:nonzero;stroke:none"
         d="m 3214.69,5795 c -76.34,0 -148.15,10.45 -209.4,24.15 -14.31,282.55 -229.06,543.04 -255.38,573.94 -201.72,238.02 -390.49,312.08 -507.85,333.47 -18.42,62.87 -21.03,120.41 -16.49,168.89 l 4.81,2.4 7.19,4.77 c 302.71,201.84 752.79,217.5 883.53,217.5 23.22,0 36.82,-0.48 38.25,-0.53 l 5.66,-0.23 5.82,0.23 c 1.31,0.05 14.88,0.53 38.1,0.53 130.74,0 580.81,-15.66 883.53,-217.5 l 7.19,-4.77 4.81,-2.4 c 4.54,-48.48 1.93,-106.02 -16.49,-168.89 -117.36,-21.39 -306.19,-95.5 -508.05,-333.7 -26.62,-31.27 -249.17,-301.32 -255.78,-590.06 -35.14,-5.19 -71.69,-7.8 -109.45,-7.8" /><path
         id="path158"
         style="fill:#e6e3c9;fill-opacity:1;fill-rule:nonzero;stroke:none"
         d="m 3165.01,6992.53 c -162.78,0 -294.75,-131.96 -294.75,-294.73 h 294.75 v 294.73" /><path
         id="path160"
         style="fill:#e6e3c9;fill-opacity:1;fill-rule:nonzero;stroke:none"
         d="m 2870.26,6697.8 c 0,-162.8 131.97,-294.72 294.75,-294.72 v 294.72 h -294.75" /><path
         id="path162"
         style="fill:#e6e3c9;fill-opacity:1;fill-rule:nonzero;stroke:none"
         d="m 3165.01,6403.08 c 162.76,0 294.73,131.92 294.73,294.72 h -294.73 v -294.72" /><path
         id="path164"
         style="fill:#e6e3c9;fill-opacity:1;fill-rule:nonzero;stroke:none"
         d="M 3165.01,6992.53 V 6697.8 h 294.73 c 0,162.77 -131.97,294.73 -294.73,294.73" /><path
         id="path166"
         style="fill:#e6e3c9;fill-opacity:1;fill-rule:nonzero;stroke:none"
         d="m 3165.01,6967.28 c -148.58,0 -269.46,-120.91 -269.46,-269.48 0,-148.62 120.88,-269.49 269.46,-269.49 148.59,0 269.47,120.87 269.47,269.49 0,148.57 -120.88,269.48 -269.47,269.48 z m 0,-589.52 c -176.45,0 -320.01,143.56 -320.01,320.04 0,176.43 143.56,319.99 320.01,319.99 176.44,0 320.01,-143.56 320.01,-319.99 0,-176.48 -143.57,-320.04 -320.01,-320.04" /><path
         id="path168"
         style="fill:#e6e3c9;fill-opacity:1;fill-rule:nonzero;stroke:none"
         d="m 8476.85,2716.89 c -37.21,165.08 -155.72,269.87 -224.87,318.64 l -91.89,694.39 -1.2,6.33 c -128.94,533.69 -894.59,549.1 -981.5,549.1 l -5.35,-0.06 c -910.67,0 -985.42,-533.4 -988.05,-555.37 l -91.9,-694.39 c -69.14,-48.77 -187.65,-153.56 -224.82,-318.64 -35.52,-157.71 10.35,-325.11 136.27,-497.87 16.59,-209.06 146.42,-1026.87 1156.36,-1125.84 l 12.14,-1.23 12.02,1.23 c 1010.05,98.97 1139.89,916.78 1156.51,1125.84 125.89,172.76 171.75,340.16 136.28,497.87" /><path
         id="path170"
         style="fill:#e6e3c9;fill-opacity:1;fill-rule:nonzero;stroke:none"
         d="m 8476.85,2716.89 c -37.21,165.08 -155.72,269.87 -224.87,318.64 l -91.89,694.39 -1.2,6.33 c -128.94,533.69 -894.59,549.1 -981.5,549.1 l -5.35,-0.06 c -910.67,0 -985.42,-533.4 -988.05,-555.37 l -91.9,-694.39 c -69.14,-48.77 -187.65,-153.56 -224.82,-318.64 -35.52,-157.71 10.35,-325.11 136.27,-497.87 16.59,-209.06 146.42,-1026.87 1156.36,-1125.84 l 12.14,-1.23 12.02,1.23 c 1010.05,98.97 1139.89,916.78 1156.51,1125.84 125.89,172.76 171.75,340.16 136.28,497.87" /><path
         id="path172"
         style="fill:#e6e3c9;fill-opacity:1;fill-rule:nonzero;stroke:none"
         d="m 7172.04,3811.95 c -162.68,0 -294.52,-131.87 -294.52,-294.51 h 294.52 v 294.51" /><path
         id="path174"
         style="fill:#e6e3c9;fill-opacity:1;fill-rule:nonzero;stroke:none"
         d="m 6877.52,3517.44 c 0,-162.69 131.84,-294.55 294.52,-294.55 v 294.55 h -294.52" /><path
         id="path176"
         style="fill:#e6e3c9;fill-opacity:1;fill-rule:nonzero;stroke:none"
         d="m 7172.04,3222.89 c 162.63,0 294.52,131.86 294.52,294.55 h -294.52 v -294.55" /><path
         id="path178"
         style="fill:#e6e3c9;fill-opacity:1;fill-rule:nonzero;stroke:none"
         d="m 7172.04,3811.95 v -294.51 h 294.52 c 0,162.64 -131.89,294.51 -294.52,294.51" /><path
         id="path180"
         style="fill:#e6e3c9;fill-opacity:1;fill-rule:nonzero;stroke:none"
         d="m 7172.04,3786.7 c -148.49,0 -269.27,-120.78 -269.27,-269.26 0,-148.51 120.78,-269.32 269.27,-269.32 148.48,0 269.29,120.81 269.29,269.32 0,148.48 -120.81,269.26 -269.29,269.26 z m 0,-589.1 c -176.3,0 -319.75,143.47 -319.75,319.84 0,176.27 143.45,319.71 319.75,319.71 176.32,0 319.78,-143.44 319.78,-319.71 0,-176.37 -143.46,-319.84 -319.78,-319.84" /><path
         id="path182"
         style="fill:#e6e3c9;fill-opacity:1;fill-rule:nonzero;stroke:none"
         d="m 6778.03,2821.31 c 0,-81.52 -66.09,-147.68 -147.62,-147.68 -81.54,0 -147.63,66.16 -147.63,147.68 0,81.54 66.09,147.64 147.63,147.64 81.53,0 147.62,-66.1 147.62,-147.64" /><path
         id="path184"
         style="fill:#e6e3c9;fill-opacity:1;fill-rule:nonzero;stroke:none"
         d="m 7861.35,2821.31 c 0,-81.52 -66.13,-147.68 -147.68,-147.68 -81.51,0 -147.63,66.16 -147.63,147.68 0,81.54 66.12,147.64 147.63,147.64 81.55,0 147.68,-66.1 147.68,-147.64" /><path
         id="path186"
         style="fill:#e6e3c9;fill-opacity:1;fill-rule:nonzero;stroke:none"
         d="m 7782.45,1849.82 -87.62,125.22 c -7.93,11.33 -23.53,14.04 -34.86,6.13 -11.33,-7.91 -14.08,-23.53 -6.15,-34.86 l 32.35,-46.19 c -443.43,-286.16 -957.76,-36.1 -1035.25,4.76 l 24.89,43.32 c 6.89,11.98 2.77,27.31 -9.18,34.16 -12,6.9 -27.32,2.8 -34.21,-9.22 l -71.99,-125.15 c -6.89,-11.99 -2.76,-27.31 9.24,-34.2 3.91,-2.27 8.22,-3.36 12.45,-3.36 8.65,0 17.08,4.55 21.71,12.58 l 22.07,38.36 c 36.97,-19.87 170.79,-87.15 352.96,-123.99 78.55,-15.82 155.41,-23.73 230.05,-23.73 185.89,0 357.76,49.1 506.09,145.26 l 26.43,-37.78 c 4.88,-6.93 12.62,-10.7 20.56,-10.7 4.93,0 9.96,1.5 14.3,4.55 11.33,7.93 14.08,23.57 6.16,34.84" /><path
         id="path188"
         style="fill:#e6e3c9;fill-opacity:1;fill-rule:nonzero;stroke:none"
         d="m 7198.47,2016.07 c -1.44,0 -2.87,0.12 -4.28,0.34 -75.53,10.17 -121.61,37.36 -136.98,80.78 -19.78,55.95 21.16,114.74 40.5,138.22 v 396.62 c 0,17.5 14.14,31.62 31.65,31.62 17.48,0 31.62,-14.12 31.62,-31.62 V 2211 l -8.64,-9.18 c -15.4,-16.45 -44.38,-58.54 -35.44,-83.64 6.66,-18.63 37.08,-32.54 85.75,-39.12 17.31,-2.28 29.46,-18.22 27.13,-35.52 -2.14,-15.9 -15.73,-27.47 -31.31,-27.47" /><path
         id="path190"
         style="fill:#e6e3c9;fill-opacity:1;fill-rule:nonzero;stroke:none"
         d="m 10966.3,5401.46 c -543.8,315.13 -925.5,761.29 -1134.69,1326.43 -133.25,359.84 -150.76,657.81 -152.9,747.26 465.19,515.87 1137.09,542.35 1268.59,542.35 7,0 12.9,-0.02 17.5,-0.12 l 1.5,-0.06 1.5,0.06 c 4.7,0.1 10.5,0.12 17.5,0.12 131.6,0 803.4,-26.48 1268.6,-542.33 -4.9,-194.75 -85.1,-1376.34 -1287.6,-2073.71 z m 1444.6,2105.15 -0.7,28.13 -18.4,21.24 c -510.4,588.56 -1261.1,618.36 -1406.5,618.36 -7.4,0 -13.8,-0.05 -19,-0.13 -5.2,0.08 -11.5,0.13 -19,0.13 -145.4,0 -896.1,-29.8 -1406.46,-618.36 l -18.41,-21.24 -0.74,-28.13 c -0.36,-14.9 -7.41,-369.81 160.42,-826.57 151.82,-413.44 481.59,-989.46 1191.89,-1406.3 l 92.3,-52.51 92.4,52.51 c 710.2,416.84 1040,992.86 1191.8,1406.3 167.8,456.76 160.8,811.67 160.4,826.57" /><path
         id="path192"
         style="fill:#e6e3c9;fill-opacity:1;fill-rule:nonzero;stroke:none"
         d="m 3281.85,2955.96 -184.26,-184.24 -213.32,213.34 184.21,184.24 z m -582.67,15.33 105.93,-0.7 270.46,-270.45 c 14.22,-14.24 37.47,-14.24 51.72,0 l 232.72,232.71 c 14.26,14.22 14.26,37.52 0,51.72 l -270.43,270.47 -7.35,99.32 -383.05,-383.07" /><path
         id="path194"
         style="fill:#e6e3c9;fill-opacity:1;fill-rule:nonzero;stroke:none"
         d="m 3707.17,3017.15 -111.59,-111.66 c 2.92,-2.62 5.89,-5.22 8.7,-8.07 66.8,-66.74 79.06,-162.89 27.35,-214.59 L 3305.54,2356.7 c -51.74,-51.68 -147.85,-39.47 -214.65,27.38 -2.84,2.81 -5.46,5.76 -8.07,8.71 l -84.92,-84.9 c -14.22,-14.24 -13.18,-36.37 2.38,-49.18 l 770.08,-635.39 c 15.5,-12.73 39.84,-11.64 54.06,2.62 l 564.7,564.68 c 14.19,14.2 15.34,38.56 2.55,54.05 l -635.37,770.12 c -12.79,15.48 -34.91,16.56 -49.13,2.36" /><path
         id="path196"
         style="fill:#e6e3c9;fill-opacity:1;fill-rule:nonzero;stroke:none"
         d="m 3116.75,2409.9 c 48.26,-48.26 117.98,-57.19 155.39,-19.8 l 326.06,326.11 c 37.4,37.4 28.53,107.11 -19.76,155.35 -2.82,2.87 -5.77,5.55 -8.72,8.09 l -461.04,-461.04 c 2.56,-2.95 5.25,-5.86 8.07,-8.71" /><path
         id="path198"
         style="fill:#e6e3c9;fill-opacity:1;fill-rule:nonzero;stroke:none"
         d="m 2423.6,3190.27 c -13.64,-13.67 -13.64,-35.88 0,-49.53 l 62.54,-62.52 c 13.65,-13.63 35.85,-13.65 49.5,0 l 446.29,446.27 c 13.68,13.69 13.65,35.88 0,49.53 l -62.54,62.54 c -13.62,13.62 -35.85,13.65 -49.52,0 z m 713.5,179.09 -446.3,-446.29 c -99.19,-99.22 -260.62,-99.22 -359.82,0 l -62.51,62.48 c -99.21,99.24 -99.21,260.66 0,359.86 l 446.26,446.29 c 99.2,99.22 260.66,99.22 359.85,0 l 62.52,-62.52 c 99.19,-99.22 99.19,-260.63 0,-359.82" /><path
         id="path200"
         style="fill:#e6e3c9;fill-opacity:1;fill-rule:nonzero;stroke:none"
         d="m 2674.21,3839.32 -633.47,633.53 c -85.16,-62.05 -166.65,-131.42 -243.51,-208.28 -76.87,-76.87 -146.24,-158.34 -208.29,-243.48 l 633.5,-633.51 451.77,451.74" /><path
         id="path202"
         style="fill:#e6e3c9;fill-opacity:1;fill-rule:nonzero;stroke:none"
         d="m 3951.46,1662.42 637.33,-460.86 c 49.57,41.02 97.77,84.65 144.2,131.1 106.36,106.36 198.4,221.58 276.39,343.2 l -606.17,438.36 -451.75,-451.8" /><path
         id="path204"
         style="fill:#e6e3c9;fill-opacity:1;fill-rule:nonzero;stroke:none"
         d="m 4402.37,1064.36 c 40.96,26.69 81.17,55.05 120.55,84.98 l -383.45,278.75 262.9,-363.73" /><path
         id="path206"
         style="fill:#e6e3c9;fill-opacity:1;fill-rule:nonzero;stroke:none"
         d="m 11453.4,3264.69 c -2.5,2.07 -5.1,3.85 -7.7,5.82 -13.2,11.5 -28.2,21.07 -44.5,28.36 -55.3,28.42 -115.1,36.07 -166.7,23 -175.3,15.34 -538.3,58.97 -765.1,169.26 -89.9,43.75 -198.3,6.27 -242,-83.65 -43.8,-89.92 -6.3,-198.26 83.6,-241.99 179.4,-87.27 412.8,-139.44 610.1,-170.29 l -445.6,-540.38 -765.17,-158.28 -370.28,-592.4 c -60.59,-96.91 -31.11,-224.63 65.8,-285.18 34.13,-21.32 72.04,-31.46 109.47,-31.46 69.03,0 136.46,34.45 175.73,97.27 l 276.44,442.34 595.61,123.2 c 87.1,-35.43 181.4,-21.54 234.1,42.48 l 716.9,869.32 c 68.4,83.05 41.3,218.51 -60.7,302.58" /><path
         id="path208"
         style="fill:#e6e3c9;fill-opacity:1;fill-rule:nonzero;stroke:none"
         d="m 11453.4,3264.69 c -2.5,2.07 -5.1,3.85 -7.7,5.82 -13.2,11.5 -28.2,21.07 -44.5,28.36 -55.3,28.42 -115.1,36.07 -166.7,23 -175.3,15.34 -538.3,58.97 -765.1,169.26 -89.9,43.75 -198.3,6.27 -242,-83.65 -43.8,-89.92 -6.3,-198.26 83.6,-241.99 179.4,-87.27 412.8,-139.44 610.1,-170.29 l -445.6,-540.38 -765.17,-158.28 -370.28,-592.4 c -60.59,-96.91 -31.11,-224.63 65.8,-285.18 34.13,-21.32 72.04,-31.46 109.47,-31.46 69.03,0 136.46,34.45 175.73,97.27 l 276.44,442.34 595.61,123.2 c 87.1,-35.43 181.4,-21.54 234.1,42.48 l 716.9,869.32 c 68.4,83.05 41.3,218.51 -60.7,302.58" /><path
         id="path210"
         style="fill:#e6e3c9;fill-opacity:1;fill-rule:nonzero;stroke:none"
         d="m 11793.3,3801.97 c 0,-192.89 -156.4,-349.26 -349.2,-349.26 -192.9,0 -349.3,156.37 -349.3,349.26 0,192.91 156.4,349.22 349.3,349.22 192.8,0 349.2,-156.31 349.2,-349.22" /><path
         id="path212"
         style="fill:#e6e3c9;fill-opacity:1;fill-rule:nonzero;stroke:none"
         d="m 11793.3,3801.97 c 0,-192.89 -156.4,-349.26 -349.2,-349.26 -192.9,0 -349.3,156.37 -349.3,349.26 0,192.91 156.4,349.22 349.3,349.22 192.8,0 349.2,-156.31 349.2,-349.22" /><path
         id="path214"
         style="fill:#e6e3c9;fill-opacity:1;fill-rule:nonzero;stroke:none"
         d="m 11924,3566.5 c 0,0 -7.9,-2.24 -20.4,-8.55 252.6,-375.27 114.7,-869.28 114.7,-869.28 l -607.9,-1076.99 -1444.69,-50.94 c -1.17,-5.49 -2.76,-10.62 -3.73,-16.29 l 66.82,-79.76 h 1435.7 l 653.2,1170.56 c 0,0 213.9,808.4 -193.7,931.25" /><path
         id="path216"
         style="fill:#e6e3c9;fill-opacity:1;fill-rule:nonzero;stroke:none"
         d="m 12018.3,2688.67 c 0,0 137.9,494.01 -114.7,869.28 -70.2,-35.35 -291.4,-200.55 -152.4,-840.8 0,0 -508.7,-400.92 -845,-862.23 0,0 -841.6,167.95 -940.49,-294.18 l 1444.69,50.94 607.9,1076.99" /><path
         id="path218"
         style="fill:#e6e3c9;fill-opacity:1;fill-rule:nonzero;stroke:none"
         d="m 11474.4,1396.19 c -21.4,-18.85 -54.3,-16.82 -73.1,4.53 l -1005,1137.44 c -18.9,21.33 -16.9,54.2 4.5,73.03 l 155,137.03 c 21.4,18.83 54.2,16.82 73,-4.59 l 1005.1,-1137.42 c 18.9,-21.29 16.8,-54.16 -4.5,-73.01 l -155,-137.01" /><path
         id="path220"
         style="fill:#a7a9ac;fill-opacity:1;fill-rule:nonzero;stroke:none"
         d="m 10905.8,8121.96 c -4.7,0.11 -10.5,0.13 -17.6,0.13 -131.5,0 -803.3,-26.47 -1268.52,-542.36 2.14,-89.43 19.66,-387.4 152.9,-747.25 209.22,-565.14 590.92,-1011.3 1134.72,-1326.43 v 2615.86 l -1.5,0.05" /><path
         id="path222"
         style="fill:#9b9da0;fill-opacity:1;fill-rule:nonzero;stroke:none"
         d="m 10926.3,8122.09 c -7,0 -12.9,-0.02 -17.5,-0.13 l -1.5,-0.05 V 5506.05 c 1202.5,697.37 1282.7,1878.96 1287.5,2073.71 -465.2,515.86 -1137,542.33 -1268.5,542.33" /><path
         id="path224"
         style="fill:#282828;fill-opacity:1;fill-rule:nonzero;stroke:none"
         d="m 10921.2,7553.17 c -336.8,0 -609.9,-273.04 -609.9,-609.93 h 609.9 v 609.93" /><path
         id="path226"
         style="fill:#ffc923;fill-opacity:1;fill-rule:nonzero;stroke:none"
         d="m 10311.3,6943.24 c 0,-336.87 273.1,-609.94 609.9,-609.94 v 609.94 h -609.9" /><path
         id="path228"
         style="fill:#282828;fill-opacity:1;fill-rule:nonzero;stroke:none"
         d="m 10921.2,6333.3 c 336.9,0 610,273.07 610,609.94 h -610 V 6333.3" /><path
         id="path230"
         style="fill:#ffc923;fill-opacity:1;fill-rule:nonzero;stroke:none"
         d="m 10921.2,7553.17 v -609.93 h 610 c 0,336.89 -273.1,609.93 -610,609.93" /><path
         id="path232"
         style="fill:#282828;fill-opacity:1;fill-rule:nonzero;stroke:none"
         d="m 10921.2,7500.91 c -307.5,0 -557.7,-250.17 -557.7,-557.67 0,-307.49 250.2,-557.65 557.7,-557.65 307.5,0 557.7,250.16 557.7,557.65 0,307.5 -250.2,557.67 -557.7,557.67 z m 0,-1219.89 c -365.1,0 -662.2,297.07 -662.2,662.22 0,365.14 297.1,662.24 662.2,662.24 365.2,0 662.3,-297.1 662.3,-662.24 0,-365.15 -297.1,-662.22 -662.3,-662.22" /><path
         id="path234"
         style="fill:#ffc923;fill-opacity:1;fill-rule:nonzero;stroke:none"
         d="m 7637.63,5817.52 532.73,5.01 c 0,0 303.23,4.6 156.63,354.22 l 70.31,253.56 -123.95,197.64 c 0,0 339.63,77.57 149.58,265.38 l -270.39,364.91 c 0,0 138.6,202.97 11.7,420.46 0,0 -596.56,1376.57 -2010.03,619.22 0,0 -988.91,-660.42 -189.63,-1811 0,0 106.53,-125.96 218.82,-109.24 l 976.99,23.88 477.24,-584.04" /><path
         id="path236"
         style="fill:none;stroke:#231f20;stroke-width:20;stroke-linecap:butt;stroke-linejoin:miter;stroke-miterlimit:10;stroke-dasharray:none;stroke-opacity:1"
         d="m 7637.63,5817.52 532.73,5.01 c 0,0 303.23,4.6 156.63,354.22 l 70.31,253.56 -123.95,197.64 c 0,0 339.63,77.57 149.58,265.38 l -270.39,364.91 c 0,0 138.6,202.97 11.7,420.46 0,0 -596.56,1376.57 -2010.03,619.22 0,0 -988.91,-660.42 -189.63,-1811 0,0 106.53,-125.96 218.82,-109.24 l 976.99,23.88 z" /><path
         id="path238"
         style="fill:#282828;fill-opacity:1;fill-rule:nonzero;stroke:none"
         d="m 6619.39,7836.96 c -264.77,0 -479.42,-214.67 -479.42,-479.44 h 479.42 v 479.44" /><path
         id="path240"
         style="fill:#ffc923;fill-opacity:1;fill-rule:nonzero;stroke:none"
         d="m 6139.97,7357.52 c 0,-264.81 214.65,-479.48 479.42,-479.48 v 479.48 h -479.42" /><path
         id="path242"
         style="fill:#282828;fill-opacity:1;fill-rule:nonzero;stroke:none"
         d="m 6619.39,6878.04 c 264.8,0 479.46,214.67 479.46,479.48 h -479.46 v -479.48" /><path
         id="path244"
         style="fill:#ffc923;fill-opacity:1;fill-rule:nonzero;stroke:none"
         d="m 6619.39,7836.96 v -479.44 h 479.46 c 0,264.77 -214.66,479.44 -479.46,479.44" /><path
         id="path246"
         style="fill:#282828;fill-opacity:1;fill-rule:nonzero;stroke:none"
         d="m 6619.39,7795.87 c -241.71,0 -438.35,-196.65 -438.35,-438.35 0,-241.72 196.64,-438.36 438.35,-438.36 241.71,0 438.36,196.64 438.36,438.36 0,241.7 -196.65,438.35 -438.36,438.35 z m 0,-958.91 c -287.03,0 -520.55,233.53 -520.55,520.56 0,287.02 233.52,520.55 520.55,520.55 287.03,0 520.54,-233.53 520.54,-520.55 0,-287.03 -233.51,-520.56 -520.54,-520.56" /><path
         id="path248"
         style="fill:#231f20;fill-opacity:1;fill-rule:nonzero;stroke:none"
         d="m 7098.85,6201.54 c 0,-68.25 -55.31,-123.57 -123.58,-123.57 h -596.05 c -68.23,0 -123.57,55.32 -123.57,123.57 v 0 c 0,68.25 55.34,123.57 123.57,123.57 h 596.05 c 68.27,0 123.58,-55.32 123.58,-123.57 v 0" /><path
         id="path250"
         style="fill:#231f20;fill-opacity:1;fill-rule:nonzero;stroke:none"
         d="m 7098.85,5897.62 c 0,-68.25 -55.31,-123.56 -123.58,-123.56 h -596.05 c -68.23,0 -123.57,55.31 -123.57,123.56 v 0 c 0,68.26 55.34,123.57 123.57,123.57 h 596.05 c 68.27,0 123.58,-55.31 123.58,-123.57 v 0" /><path
         id="path252"
         style="fill:#231f20;fill-opacity:1;fill-rule:nonzero;stroke:none"
         d="m 7098.85,5593.72 c 0,-68.26 -55.31,-123.57 -123.58,-123.57 h -596.05 c -68.23,0 -123.57,55.31 -123.57,123.57 v 0 c 0,68.25 55.34,123.57 123.57,123.57 h 596.05 c 68.27,0 123.58,-55.32 123.58,-123.57 v 0" /><path
         id="path254"
         style="fill:#9b9da0;fill-opacity:1;fill-rule:nonzero;stroke:none"
         d="m 3086.08,5522.35 c -750.09,0 -1358.18,608.09 -1358.18,1358.21 0,750.12 608.09,1358.21 1358.18,1358.21 750.13,0 1358.21,-608.09 1358.21,-1358.21 0,-750.12 -608.08,-1358.21 -1358.21,-1358.21 z m 0,2835.28 c -815.85,0 -1479.59,-663.74 -1479.59,-1479.59 0,-815.86 663.74,-1479.59 1479.59,-1479.59 815.85,0 1479.59,663.73 1479.59,1479.59 0,815.85 -663.74,1479.59 -1479.59,1479.59" /><path
         id="path256"
         style="fill:#a7a9ac;fill-opacity:1;fill-rule:nonzero;stroke:none"
         d="m 4090.02,7111.71 c -398.31,265.55 -1003.94,240.01 -1003.94,240.01 0,0 -605.6,25.54 -1003.94,-240.01 0,0 -125.55,-62.75 -203.51,22.96 118.48,557.91 614.76,977.83 1207.45,977.83 592.69,0 1089,-419.92 1207.48,-977.83 -77.96,-85.71 -203.54,-22.96 -203.54,-22.96 z M 3610.78,5760.93 c -202.99,-76.59 -226.74,93.28 -226.74,93.28 -19.14,260.44 222.11,543.85 222.11,543.85 271.96,320.84 501.75,292.35 501.75,292.35 89.59,-13.56 142.82,-61.52 174.36,-117.72 -91.82,-359.57 -341.97,-656.36 -671.48,-811.76 z m -822.64,93.28 c 0,0 -23.77,-169.87 -226.75,-93.28 -329.49,155.4 -579.65,452.19 -671.49,811.76 31.55,56.2 84.77,104.16 174.36,117.72 0,0 229.82,28.49 501.74,-292.35 0,0 241.29,-283.41 222.14,-543.85 z m 297.94,2384.56 c -750.09,0 -1358.18,-608.09 -1358.18,-1358.21 0,-750.12 608.09,-1358.21 1358.18,-1358.21 750.13,0 1358.21,608.09 1358.21,1358.21 0,750.12 -608.08,1358.21 -1358.21,1358.21" /><path
         id="path258"
         style="fill:#9b9da0;fill-opacity:1;fill-rule:nonzero;stroke:none"
         d="m 3155.67,5899.58 c -76.35,0 -148.15,10.47 -209.41,24.17 -14.3,282.54 -229.06,543.03 -255.38,573.92 -201.72,238.04 -390.49,312.08 -507.85,333.48 -18.42,62.88 -21.03,120.41 -16.48,168.89 l 4.8,2.39 7.2,4.78 c 302.7,201.85 752.78,217.5 883.53,217.5 23.22,0 36.81,-0.47 38.24,-0.52 l 5.67,-0.23 5.82,0.23 c 1.3,0.05 14.87,0.52 38.09,0.52 130.74,0 580.81,-15.65 883.53,-217.5 l 7.2,-4.78 4.8,-2.39 c 4.55,-48.48 1.93,-106.01 -16.49,-168.89 -117.35,-21.4 -306.18,-95.5 -508.05,-333.71 -26.61,-31.25 -249.17,-301.3 -255.77,-590.06 -35.15,-5.19 -71.7,-7.8 -109.45,-7.8" /><path
         id="path260"
         style="fill:#282828;fill-opacity:1;fill-rule:nonzero;stroke:none"
         d="m 3105.99,7097.12 c -162.78,0 -294.76,-131.97 -294.76,-294.72 h 294.76 v 294.72" /><path
         id="path262"
         style="fill:#ffc923;fill-opacity:1;fill-rule:nonzero;stroke:none"
         d="m 2811.23,6802.4 c 0,-162.81 131.98,-294.73 294.76,-294.73 v 294.73 h -294.76" /><path
         id="path264"
         style="fill:#282828;fill-opacity:1;fill-rule:nonzero;stroke:none"
         d="m 3105.99,6507.67 c 162.76,0 294.72,131.92 294.72,294.73 h -294.72 v -294.73" /><path
         id="path266"
         style="fill:#ffc923;fill-opacity:1;fill-rule:nonzero;stroke:none"
         d="M 3105.99,7097.12 V 6802.4 h 294.72 c 0,162.75 -131.96,294.72 -294.72,294.72" /><path
         id="path268"
         style="fill:#282828;fill-opacity:1;fill-rule:nonzero;stroke:none"
         d="m 3105.99,7071.87 c -148.59,0 -269.47,-120.91 -269.47,-269.47 0,-148.62 120.88,-269.5 269.47,-269.5 148.59,0 269.47,120.88 269.47,269.5 0,148.56 -120.88,269.47 -269.47,269.47 z m 0,-589.51 c -176.46,0 -320.01,143.55 -320.01,320.04 0,176.43 143.55,319.98 320.01,319.98 176.43,0 320.01,-143.55 320.01,-319.98 0,-176.49 -143.58,-320.04 -320.01,-320.04" /><path
         id="path270"
         style="fill:#ffc923;fill-opacity:1;fill-rule:nonzero;stroke:none"
         d="m 8417.81,2821.48 c -37.19,165.08 -155.71,269.87 -224.85,318.64 l -91.9,694.38 -1.2,6.35 c -128.93,533.67 -894.59,549.09 -981.5,549.09 l -5.35,-0.06 c -910.66,0 -985.41,-533.41 -988.04,-555.38 l -91.9,-694.38 c -69.14,-48.77 -187.65,-153.56 -224.83,-318.64 -35.52,-157.72 10.35,-325.12 136.27,-497.87 16.6,-209.06 146.43,-1026.87 1156.37,-1125.84 l 12.13,-1.23 12.03,1.23 c 1010.05,98.97 1139.88,916.78 1156.49,1125.84 125.89,172.75 171.76,340.15 136.28,497.87" /><path
         id="path272"
         style="fill:none;stroke:#231f20;stroke-width:20;stroke-linecap:butt;stroke-linejoin:miter;stroke-miterlimit:10;stroke-dasharray:none;stroke-opacity:1"
         d="m 8417.81,2821.48 c -37.19,165.08 -155.71,269.87 -224.85,318.64 l -91.9,694.38 -1.2,6.35 c -128.93,533.67 -894.59,549.09 -981.5,549.09 l -5.35,-0.06 c -910.66,0 -985.41,-533.41 -988.04,-555.38 l -91.9,-694.38 c -69.14,-48.77 -187.65,-153.56 -224.83,-318.64 -35.52,-157.72 10.35,-325.12 136.27,-497.87 16.6,-209.06 146.43,-1026.87 1156.37,-1125.84 l 12.13,-1.23 12.03,1.23 c 1010.05,98.97 1139.88,916.78 1156.49,1125.84 125.89,172.75 171.76,340.15 136.28,497.87 z" /><path
         id="path274"
         style="fill:#282828;fill-opacity:1;fill-rule:nonzero;stroke:none"
         d="m 7113.01,3916.54 c -162.68,0 -294.51,-131.87 -294.51,-294.52 h 294.51 v 294.52" /><path
         id="path276"
         style="fill:#ffc923;fill-opacity:1;fill-rule:nonzero;stroke:none"
         d="m 6818.5,3622.02 c 0,-162.68 131.83,-294.54 294.51,-294.54 v 294.54 H 6818.5" /><path
         id="path278"
         style="fill:#282828;fill-opacity:1;fill-rule:nonzero;stroke:none"
         d="m 7113.01,3327.48 c 162.62,0 294.53,131.86 294.53,294.54 h -294.53 v -294.54" /><path
         id="path280"
         style="fill:#ffc923;fill-opacity:1;fill-rule:nonzero;stroke:none"
         d="m 7113.01,3916.54 v -294.52 h 294.53 c 0,162.65 -131.91,294.52 -294.53,294.52" /><path
         id="path282"
         style="fill:#282828;fill-opacity:1;fill-rule:nonzero;stroke:none"
         d="m 7113.01,3891.28 c -148.49,0 -269.26,-120.77 -269.26,-269.26 0,-148.51 120.77,-269.31 269.26,-269.31 148.48,0 269.28,120.8 269.28,269.31 0,148.49 -120.8,269.26 -269.28,269.26 z m 0,-589.08 c -176.29,0 -319.74,143.47 -319.74,319.82 0,176.27 143.45,319.73 319.74,319.73 176.33,0 319.77,-143.46 319.77,-319.73 0,-176.35 -143.44,-319.82 -319.77,-319.82" /><path
         id="path284"
         style="fill:#231f20;fill-opacity:1;fill-rule:nonzero;stroke:none"
         d="m 6719,2925.9 c 0,-81.53 -66.08,-147.68 -147.62,-147.68 -81.54,0 -147.62,66.15 -147.62,147.68 0,81.54 66.08,147.63 147.62,147.63 81.54,0 147.62,-66.09 147.62,-147.63" /><path
         id="path286"
         style="fill:#231f20;fill-opacity:1;fill-rule:nonzero;stroke:none"
         d="m 7802.32,2925.9 c 0,-81.53 -66.12,-147.68 -147.67,-147.68 -81.52,0 -147.63,66.15 -147.63,147.68 0,81.54 66.11,147.63 147.63,147.63 81.55,0 147.67,-66.09 147.67,-147.63" /><path
         id="path288"
         style="fill:#231f20;fill-opacity:1;fill-rule:nonzero;stroke:none"
         d="m 7723.42,1954.42 -87.61,125.22 c -7.94,11.32 -23.54,14.03 -34.86,6.13 -11.33,-7.91 -14.08,-23.54 -6.16,-34.86 l 32.35,-46.21 c -443.42,-286.15 -957.76,-36.09 -1035.25,4.77 l 24.9,43.32 c 6.88,11.98 2.76,27.32 -9.19,34.17 -12.01,6.9 -27.32,2.8 -34.21,-9.23 l -71.98,-125.16 c -6.89,-11.97 -2.77,-27.29 9.23,-34.18 3.92,-2.27 8.23,-3.37 12.45,-3.37 8.66,0 17.09,4.54 21.71,12.58 l 22.08,38.36 c 36.96,-19.86 170.79,-87.15 352.95,-124 78.56,-15.81 155.4,-23.72 230.04,-23.72 185.91,0 357.78,49.11 506.11,145.26 l 26.42,-37.78 c 4.89,-6.94 12.63,-10.7 20.56,-10.7 4.93,0 9.97,1.49 14.3,4.54 11.32,7.94 14.09,23.59 6.16,34.86" /><path
         id="path290"
         style="fill:#231f20;fill-opacity:1;fill-rule:nonzero;stroke:none"
         d="m 7139.44,2120.67 c -1.43,0 -2.87,0.11 -4.27,0.32 -75.54,10.17 -121.62,37.37 -136.99,80.78 -19.78,55.96 21.17,114.74 40.5,138.23 v 396.61 c 0,17.51 14.14,31.62 31.65,31.62 17.48,0 31.61,-14.11 31.61,-31.62 v -421.03 l -8.62,-9.18 c -15.4,-16.45 -44.38,-58.53 -35.44,-83.63 6.66,-18.63 37.07,-32.54 85.73,-39.11 17.33,-2.29 29.47,-18.23 27.14,-35.54 -2.14,-15.89 -15.73,-27.45 -31.31,-27.45" /><path
         id="path292"
         style="fill:#231f20;fill-opacity:1;fill-rule:nonzero;stroke:none"
         d="m 10907.3,5506.05 c -543.8,315.13 -925.5,761.29 -1134.72,1326.43 -133.24,359.85 -150.76,657.82 -152.9,747.25 465.22,515.89 1137.02,542.36 1268.52,542.36 7.1,0 12.9,-0.02 17.6,-0.13 l 1.5,-0.05 1.5,0.05 c 4.6,0.11 10.5,0.13 17.5,0.13 131.5,0 803.3,-26.47 1268.5,-542.33 -4.8,-194.75 -85,-1376.34 -1287.5,-2073.71 z m 1444.6,2105.15 -0.7,28.13 -18.5,21.23 c -510.3,588.58 -1261.1,618.37 -1406.4,618.37 -7.5,0 -13.8,-0.05 -19,-0.14 -5.2,0.09 -11.6,0.14 -19.1,0.14 -145.3,0 -896.03,-29.79 -1406.38,-618.37 l -18.42,-21.23 -0.73,-28.13 c -0.38,-14.9 -7.42,-369.82 160.41,-826.57 151.82,-413.45 481.62,-989.46 1191.82,-1406.3 l 92.4,-52.52 92.3,52.52 c 710.3,416.84 1040,992.85 1191.9,1406.3 167.8,456.75 160.8,811.67 160.4,826.57" /><path
         id="path294"
         style="fill:#a7a9ac;fill-opacity:1;fill-rule:nonzero;stroke:none"
         d="m 3222.82,3060.54 -184.26,-184.24 -213.32,213.35 184.21,184.24 z m -582.66,15.34 105.92,-0.7 270.46,-270.44 c 14.22,-14.25 37.47,-14.25 51.72,0 l 232.73,232.7 c 14.25,14.22 14.25,37.53 0,51.72 l -270.43,270.46 -7.36,99.34 -383.04,-383.08" /><path
         id="path296"
         style="fill:#231f20;fill-opacity:1;fill-rule:nonzero;stroke:none"
         d="m 3648.14,3121.75 -111.59,-111.67 c 2.92,-2.61 5.9,-5.23 8.71,-8.06 66.79,-66.75 79.06,-162.9 27.35,-214.61 L 3246.52,2461.3 c -51.74,-51.69 -147.86,-39.47 -214.65,27.37 -2.85,2.81 -5.46,5.76 -8.07,8.71 l -84.93,-84.9 c -14.22,-14.25 -13.17,-36.37 2.38,-49.18 l 770.08,-635.38 c 15.51,-12.75 39.85,-11.66 54.06,2.61 l 564.69,564.69 c 14.2,14.2 15.35,38.54 2.57,54.04 l -635.38,770.11 c -12.79,15.5 -34.91,16.57 -49.13,2.38" /><path
         id="path298"
         style="fill:#ef4023;fill-opacity:1;fill-rule:nonzero;stroke:none"
         d="m 3057.71,2514.5 c 48.28,-48.27 117.99,-57.2 155.41,-19.8 l 326.06,326.11 c 37.39,37.38 28.52,107.1 -19.78,155.35 -2.81,2.86 -5.76,5.53 -8.71,8.09 l -461.04,-461.04 c 2.56,-2.95 5.25,-5.88 8.06,-8.71" /><path
         id="path300"
         style="fill:#231f20;fill-opacity:1;fill-rule:nonzero;stroke:none"
         d="m 2364.58,3294.86 c -13.65,-13.67 -13.65,-35.88 0,-49.52 l 62.54,-62.51 c 13.65,-13.65 35.85,-13.68 49.5,0 l 446.28,446.26 c 13.68,13.67 13.65,35.87 0,49.52 l -62.53,62.54 c -13.62,13.62 -35.85,13.65 -49.53,0 z m 713.49,179.1 -446.29,-446.3 c -99.2,-99.22 -260.63,-99.22 -359.83,0 l -62.51,62.49 c -99.21,99.22 -99.21,260.65 0,359.85 l 446.26,446.29 c 99.21,99.23 260.66,99.23 359.85,0 l 62.52,-62.51 c 99.2,-99.23 99.2,-260.64 0,-359.82" /><path
         id="path302"
         style="fill:#231f20;fill-opacity:1;fill-rule:nonzero;stroke:none"
         d="m 2615.19,3943.91 -633.48,633.53 c -85.16,-62.05 -166.65,-131.42 -243.51,-208.26 -76.86,-76.9 -146.23,-158.36 -208.29,-243.5 l 633.51,-633.51 451.77,451.74" /><path
         id="path304"
         style="fill:#231f20;fill-opacity:1;fill-rule:nonzero;stroke:none"
         d="m 3892.44,1767.01 637.33,-460.85 c 49.57,41.01 97.76,84.64 144.2,131.08 106.35,106.37 198.4,221.6 276.38,343.2 l -606.17,438.37 -451.74,-451.8" /><path
         id="path306"
         style="fill:#231f20;fill-opacity:1;fill-rule:nonzero;stroke:none"
         d="m 4343.34,1168.95 c 40.97,26.68 81.17,55.04 120.55,84.97 l -383.45,278.77 262.9,-363.74" /><path
         id="path308"
         style="fill:#ffc923;fill-opacity:1;fill-rule:nonzero;stroke:none"
         d="m 11394.4,3369.28 c -2.5,2.06 -5.1,3.85 -7.7,5.82 -13.3,11.5 -28.2,21.07 -44.5,28.36 -55.3,28.41 -115.2,36.07 -166.8,23 -175.3,15.36 -538.2,58.97 -765,169.26 -90,43.75 -198.3,6.26 -242,-83.65 -43.8,-89.91 -6.3,-198.27 83.6,-242 179.4,-87.24 412.8,-139.43 610.1,-170.28 l -445.6,-540.36 -765.19,-158.3 -370.28,-592.4 c -60.59,-96.9 -31.12,-224.62 65.8,-285.18 34.12,-21.32 72.03,-31.47 109.47,-31.47 69.01,0 136.45,34.47 175.73,97.28 l 276.44,442.34 595.63,123.2 c 87.1,-35.43 181.3,-21.55 234.1,42.48 l 716.9,869.31 c 68.4,83.06 41.3,218.52 -60.7,302.59" /><path
         id="path310"
         style="fill:none;stroke:#231f20;stroke-width:10;stroke-linecap:butt;stroke-linejoin:miter;stroke-miterlimit:10;stroke-dasharray:none;stroke-opacity:1"
         d="m 11394.4,3369.28 c -2.5,2.06 -5.1,3.85 -7.7,5.82 -13.3,11.5 -28.2,21.07 -44.5,28.36 -55.3,28.41 -115.2,36.07 -166.8,23 -175.3,15.36 -538.2,58.97 -765,169.26 -90,43.75 -198.3,6.26 -242,-83.65 -43.8,-89.91 -6.3,-198.27 83.6,-242 179.4,-87.24 412.8,-139.43 610.1,-170.28 l -445.6,-540.36 -765.19,-158.3 -370.28,-592.4 c -60.59,-96.9 -31.12,-224.62 65.8,-285.18 34.12,-21.32 72.03,-31.47 109.47,-31.47 69.01,0 136.45,34.47 175.73,97.28 l 276.44,442.34 595.63,123.2 c 87.1,-35.43 181.3,-21.55 234.1,42.48 l 716.9,869.31 c 68.4,83.06 41.3,218.52 -60.7,302.59 z" /><path
         id="path312"
         style="fill:#ffc923;fill-opacity:1;fill-rule:nonzero;stroke:none"
         d="m 11734.3,3906.57 c 0,-192.89 -156.4,-349.26 -349.3,-349.26 -192.9,0 -349.2,156.37 -349.2,349.26 0,192.89 156.3,349.21 349.2,349.21 192.9,0 349.3,-156.32 349.3,-349.21" /><path
         id="path314"
         style="fill:none;stroke:#231f20;stroke-width:10;stroke-linecap:butt;stroke-linejoin:miter;stroke-miterlimit:10;stroke-dasharray:none;stroke-opacity:1"
         d="m 11734.3,3906.57 c 0,-192.89 -156.4,-349.26 -349.3,-349.26 -192.9,0 -349.2,156.37 -349.2,349.26 0,192.89 156.3,349.21 349.2,349.21 192.9,0 349.3,-156.32 349.3,-349.21 z" /><path
         id="path316"
         style="fill:#4679b3;fill-opacity:1;fill-rule:nonzero;stroke:none"
         d="m 11864.9,3671.1 c 0,0 -7.8,-2.25 -20.3,-8.56 252.6,-375.26 114.6,-869.29 114.6,-869.29 l -607.8,-1076.99 -1444.71,-50.93 c -1.17,-5.48 -2.77,-10.62 -3.74,-16.28 l 66.83,-79.76 h 1435.72 l 653.2,1170.56 c 0,0 213.9,808.38 -193.8,931.25" /><path
         id="path318"
         style="fill:#4e85c5;fill-opacity:1;fill-rule:nonzero;stroke:none"
         d="m 11959.2,2793.25 c 0,0 138,494.03 -114.6,869.29 -70.2,-35.35 -291.4,-200.54 -152.4,-840.79 0,0 -508.8,-400.92 -845,-862.24 0,0 -841.7,167.94 -940.51,-294.18 l 1444.71,50.93 607.8,1076.99" /><path
         id="path320"
         style="fill:#231f20;fill-opacity:1;fill-rule:nonzero;stroke:none"
         d="m 11415.3,1500.77 c -21.3,-18.84 -54.2,-16.81 -73,4.54 l -1005.1,1137.45 c -18.8,21.32 -16.8,54.19 4.5,73.04 l 155.1,137.02 c 21.4,18.82 54.2,16.81 73,-4.59 l 1005.1,-1137.42 c 18.9,-21.3 16.8,-54.17 -4.5,-73.01 l -155.1,-137.03" /></g></g></svg>