<?xml version="1.0" encoding="UTF-8" standalone="no"?>
<!DOCTYPE svg PUBLIC "-//W3C//DTD SVG 1.1//EN" "http://www.w3.org/Graphics/SVG/1.1/DTD/svg11.dtd">
<svg version="1.1" xmlns="http://www.w3.org/2000/svg" xmlns:xlink="http://www.w3.org/1999/xlink" preserveAspectRatio="xMidYMid meet" viewBox="0 0 1920 1080"><defs><path d="M84.27 596.16L84.47 591.88L85.92 585.8L88.9 580.41L91.8 577.02L97.39 574.19L105.43 572.55L287.76 572.55L185.28 488.98L186.22 483.97L119.11 428.72L114.44 423.83L111.15 421.55L108.24 418.1L104.93 414.09L101.75 409.81L99.54 406.49L99.81 366.97L180.25 366.93L115.93 313.99L115.93 312.38L110.78 307.87L105.16 301.42L99.91 294.42L99.9 254.16L172.65 253.83L98.75 192.87L98.15 190.77L85.86 179.58L80.05 171.91L76.32 163.87L77.24 115.23L134.36 115.04L181.25 114.22L186.14 117.71L186.81 110.83L187.64 106.06L190.12 98.46L194.61 90.44L198.21 85.05L202.77 80.15L206.78 76.21L212.79 72.2L220.18 68.54L230.27 65.71L242.43 64.6L235.34 59.02L240.58 55.8L248.99 49.88L261.64 44.15L273.87 40.69L283.82 39.93L294.11 40.69L303.79 43.11L313.88 47.6L320.99 51.75L331.67 59.02L341.24 66.81L354.64 72.34L364.67 78.86L408.64 115.05L491.52 114.22L615.42 216.19L623.57 155.67L625.64 137.7L629.92 122.92L636.56 109.93L646.51 96.25L658.11 84.78L670.27 75.93L686.44 67.09L708.97 58.8L725.28 54.65L743.52 51.47L762.59 49.81L786.77 49.12L808.05 50.5L825.74 52.85L844.4 56.58L866.78 63.63L882.54 70.68L895.53 77.68L909.44 86.56L1396.51 487.44L1396.15 476.09L1119.01 247.86L1109.73 238.86L1102.68 230.98L1093.84 217.58L1087.34 201.96L1083.47 178.61L1084.85 162.63L1087.76 150.56L1093.98 136.32L1104.85 121.95L1115.72 110.89L1129.81 101.5L1143.08 96.61L1157.08 93.3L1174.87 92.75L1188.32 94.96L1197.71 97.72L1211.17 103.71L1223.31 110.79L1385.75 244.8L1385.84 239.41L1387.23 234.35L1390.81 230.29L1396.62 229.28L1410.8 228.91L1366.01 80.77L1456.27 80.44L1462.76 87.86L1464.89 80.77L1554.39 81.07L1743.86 237L1743.86 -120L-121.86 -120L-121.86 1186L265.23 1186L83.16 1036.14L84.27 596.16" id="TgSqVI65Gy"></path><path d="M1743.86 237L1554.39 81.07L1464.89 80.77L1462.76 87.86L1456.27 80.44L1366.01 80.77L1410.8 228.91L1396.62 229.28L1390.81 230.29L1387.23 234.35L1385.84 239.41L1385.75 244.8L1223.31 110.79L1211.17 103.71L1197.71 97.72L1188.32 94.96L1174.87 92.75L1157.08 93.3L1143.08 96.61L1129.81 101.5L1115.72 110.89L1104.85 121.95L1093.98 136.32L1087.76 150.56L1084.85 162.63L1083.47 178.61L1087.34 201.96L1093.84 217.58L1102.68 230.98L1109.73 238.86L1119.01 247.86L1396.15 476.09L1396.51 487.44L909.44 86.56L895.53 77.68L882.54 70.68L866.78 63.63L844.4 56.58L825.74 52.85L808.05 50.5L786.77 49.12L762.59 49.81L743.52 51.47L725.28 54.65L708.97 58.8L686.44 67.09L670.27 75.93L658.11 84.78L646.51 96.25L636.56 109.93L629.92 122.92L625.64 137.7L623.57 155.67L615.42 216.19L491.52 114.22L408.64 115.05L364.67 78.86L354.64 72.34L341.24 66.81L331.67 59.02L320.99 51.75L313.88 47.6L303.79 43.11L294.11 40.69L283.82 39.93L273.87 40.69L261.64 44.15L248.99 49.88L240.58 55.8L235.34 59.02L242.43 64.6L230.27 65.71L220.18 68.54L212.79 72.2L206.78 76.21L202.77 80.15L198.21 85.05L194.61 90.44L190.12 98.46L187.64 106.06L186.81 110.83L186.14 117.71L181.25 114.22L134.36 115.04L77.24 115.23L76.32 163.87L80.05 171.91L85.86 179.58L98.15 190.77L98.75 192.87L172.65 253.83L99.9 254.16L99.91 294.42L105.16 301.42L110.78 307.87L115.93 312.38L115.93 313.99L180.25 366.93L99.81 366.97L99.54 406.49L101.75 409.81L104.93 414.09L108.24 418.1L111.15 421.55L114.44 423.83L119.11 428.72L186.22 483.97L185.28 488.98L287.76 572.55L105.43 572.55L97.39 574.19L91.8 577.02L88.9 580.41L85.92 585.8L84.47 591.88L84.27 596.16L83.16 1036.14L265.23 1186L1743.86 1186L1743.86 237" id="g1mJcb6lOb"></path><path d="M379.52 486.77L187.49 486.77C187.49 265.93 187.49 143.24 187.49 118.71C187.49 89.52 211.23 65.78 240.41 65.78C249.03 65.78 317.98 65.78 326.6 65.78C355.78 65.78 379.52 89.52 379.52 118.71C379.52 167.78 379.52 290.47 379.52 486.77ZM381.73 118.71C381.73 88.3 357 63.57 326.6 63.57C317.98 63.57 249.03 63.57 240.41 63.57C210.01 63.57 185.28 88.3 185.28 118.71C185.28 143.39 185.28 266.82 185.28 488.98L381.73 488.98L381.73 118.71" id="szjdzYOZbT"></path><path d="M224.96 165.79C224.96 133.5 251.22 107.23 283.5 107.23C315.79 107.23 342.05 133.5 342.05 165.79C342.05 198.07 315.79 224.33 283.5 224.33C251.22 224.33 224.96 198.07 224.96 165.79ZM283.5 105.02C250 105.02 222.74 132.28 222.74 165.79C222.74 199.29 250 226.54 283.5 226.54C317.01 226.54 344.26 199.29 344.26 165.79C344.26 132.28 317.01 105.02 283.5 105.02" id="qxTuq4NKzl"></path><path d="M283.5 331.63C262.39 331.63 245.22 314.45 245.22 293.35C245.22 272.23 262.39 255.05 283.5 255.05C304.62 255.05 321.8 272.23 321.8 293.35C321.8 314.45 304.62 331.63 283.5 331.63C283.5 331.63 283.5 331.63 283.5 331.63ZM283.5 252.84C261.18 252.84 243.01 271.01 243.01 293.35C243.01 315.67 261.18 333.84 283.5 333.84C305.84 333.84 324.01 315.67 324.01 293.35C324.01 271.01 305.84 252.84 283.5 252.84" id="OqUhz89kBE"></path><path d="M245.22 405.89C245.22 384.78 262.39 367.61 283.5 367.61C304.62 367.61 321.8 384.78 321.8 405.89C321.8 427.01 304.62 444.19 283.5 444.19C262.39 444.19 245.22 427.01 245.22 405.89ZM283.5 365.39C261.18 365.39 243.01 383.56 243.01 405.89C243.01 428.23 261.18 446.4 283.5 446.4C305.84 446.4 324.01 428.23 324.01 405.89C324.01 383.56 305.84 365.39 283.5 365.39" id="qoZ8ndhat"></path><path d="M77.71 116.43L179.04 116.43C179.04 175.65 179.04 208.56 179.04 215.14C104.71 214.69 79.56 169.98 77.71 166.46C77.71 159.78 77.71 143.11 77.71 116.43ZM180.14 217.35L181.25 217.35L181.25 114.22L75.5 114.22L75.5 166.97C75.56 167.11 75.6 167.19 75.61 167.2C75.85 167.71 100.83 217.35 180.14 217.35" id="RuWgdAdhaY"></path><path d="M179.04 331.36C122.08 330.92 102.58 296.84 100.96 293.8C100.96 291.24 100.96 278.41 100.96 255.33L179.04 255.33C179.04 295.88 179.04 321.22 179.04 331.36ZM181.25 253.11L98.75 253.11L98.75 294.32C98.82 294.46 98.85 294.54 98.86 294.55C99.05 294.94 118.49 333.57 180.14 333.57C180.22 333.57 180.58 333.57 181.25 333.57L181.25 253.11" id="fi6oNpe6nE"></path><path d="M100.96 367.88L179.04 367.88C179.04 413.5 179.04 438.85 179.04 443.91C122.08 443.48 102.58 409.4 100.96 406.36C100.96 401.23 100.96 388.4 100.96 367.88ZM98.75 406.88C98.82 407.02 98.85 407.09 98.86 407.11C99.05 407.5 118.49 446.13 180.14 446.13C180.22 446.13 180.58 446.13 181.25 446.13L181.25 365.67L98.75 365.67L98.75 406.88" id="Ku6AG8vXVW"></path><path d="M387.98 116.43L489.31 116.43C489.31 146.45 489.31 163.12 489.31 166.46C487.46 169.98 462.38 214.69 387.98 215.14C387.98 201.97 387.98 169.07 387.98 116.43ZM491.41 167.2L491.52 166.97L491.52 114.22L385.77 114.22L385.77 217.35C386.43 217.35 386.8 217.35 386.88 217.35C466.18 217.35 491.17 167.71 491.41 167.2" id="FyOBSEEJEh"></path><path d="M387.98 255.33L466.06 255.33C466.06 278.41 466.06 291.24 466.06 293.8C464.43 296.84 444.93 330.92 387.98 331.36C387.98 321.22 387.98 295.88 387.98 255.33ZM468.15 294.55L468.27 294.32L468.27 253.11L385.77 253.11L385.77 333.57C386.43 333.57 386.8 333.57 386.88 333.57C448.52 333.57 467.96 294.94 468.15 294.55" id="G2o6sEswTd"></path><path d="M387.98 367.88L466.06 367.88C466.06 390.96 466.06 403.79 466.06 406.36C464.43 409.4 444.93 443.48 387.98 443.91C387.98 433.78 387.98 408.43 387.98 367.88ZM468.15 407.11L468.27 406.88L468.27 365.67L385.77 365.67L385.77 446.13C386.43 446.13 386.8 446.13 386.88 446.13C448.52 446.13 467.96 407.5 468.15 407.11" id="E5WAaDAyc7"></path><path d="M241.02 56.81C252.89 46.61 267.87 41.02 283.5 41.02C299.15 41.02 314.13 46.61 325.99 56.81C309 56.81 258.01 56.81 241.02 56.81ZM329.64 57.11C317.05 45.31 300.66 38.81 283.5 38.81C266.35 38.81 249.97 45.31 237.38 57.11C237.24 57.24 236.56 57.88 235.34 59.02L331.67 59.02L329.64 57.11" id="mjUEbVodG4"></path><path d="M1496.16 559.83L1422.22 560.8L1400.37 502.03L1516.47 500.52L1496.16 559.83ZM1498 561.29C1510.64 524.36 1517.66 503.85 1519.07 499.75C1519.19 499.41 1519.13 499.03 1518.92 498.74C1518.71 498.46 1518.39 498.28 1518.03 498.28C1518.02 498.28 1518.02 498.28 1518.01 498.28C1446.46 499.22 1406.72 499.73 1398.77 499.84C1398.41 499.84 1398.07 500.02 1397.87 500.31C1397.67 500.61 1397.62 500.99 1397.75 501.32C1400.02 507.42 1418.16 556.2 1420.42 562.3C1420.58 562.73 1421 563.02 1421.46 563.02C1421.46 563.02 1421.46 563.02 1421.47 563.02C1429.02 562.92 1489.42 562.13 1496.97 562.03C1497.44 562.03 1497.84 561.73 1498 561.29" id="gzmKGazXzL"></path><path d="M1415.09 408.56L1416.05 408.54C1416.18 418.3 1416.25 423.72 1416.26 424.81C1416.26 425.41 1416.76 425.9 1417.37 425.9C1417.37 425.9 1417.37 425.9 1417.38 425.9C1425.39 425.8 1489.48 424.96 1497.49 424.86C1498.09 424.85 1498.58 424.34 1498.57 423.73C1498.56 422.65 1498.49 417.23 1498.37 407.47C1499.09 407.47 1499.49 407.46 1499.57 407.46C1509.68 407.46 1518.03 415.69 1518.16 425.81C1518.22 430.33 1518.51 452.93 1519.03 493.62L1397.62 495.2C1397.09 454.51 1396.8 431.91 1396.74 427.39C1396.61 417.14 1404.84 408.69 1415.09 408.56C1415.09 408.56 1415.09 408.56 1415.09 408.56ZM1394.53 427.42C1395.07 468.77 1395.37 491.74 1395.43 496.33C1395.43 496.94 1395.93 497.42 1396.54 497.42C1396.54 497.42 1396.54 497.42 1396.55 497.42C1408.92 497.26 1507.81 495.98 1520.17 495.82C1520.77 495.81 1521.26 495.31 1521.25 494.7C1521.16 487.81 1520.46 432.67 1520.37 425.78C1520.21 414.46 1510.88 405.25 1499.57 405.25C1499.34 405.25 1497.47 405.27 1497.24 405.28C1496.94 405.28 1496.66 405.4 1496.45 405.61C1496.25 405.82 1496.14 406.1 1496.14 406.4C1496.16 407.48 1496.23 412.9 1496.36 422.66L1418.46 423.67C1418.34 413.91 1418.26 408.49 1418.25 407.41C1418.24 407.12 1418.12 406.84 1417.92 406.63C1417.7 406.43 1417.42 406.32 1417.14 406.32C1417.13 406.32 1417.13 406.32 1417.13 406.32C1416.92 406.32 1415.27 406.34 1415.06 406.34C1403.59 406.5 1394.38 415.95 1394.53 427.42" id="edyl3lPctX"></path><path d="M1493.76 419.83L1420.97 420.78C1420.9 415.26 1420.86 412.19 1420.85 411.58C1420.81 408.05 1423.63 405.15 1427.17 405.1C1433.17 405.02 1481.23 404.39 1487.24 404.31C1490.72 404.31 1493.6 407.14 1493.64 410.62C1493.65 411.85 1493.69 414.92 1493.76 419.83ZM1487.13 402.1C1451.14 402.57 1431.14 402.84 1427.14 402.89C1422.39 402.95 1418.58 406.86 1418.64 411.6C1418.65 412.63 1418.76 420.89 1418.77 421.92C1418.77 422.21 1418.89 422.49 1419.1 422.69C1419.3 422.9 1419.58 423.01 1419.88 423.01C1419.88 423.01 1419.88 423.01 1419.89 423.01C1464.9 422.42 1489.9 422.09 1494.9 422.02C1495.2 422.02 1495.46 421.9 1495.68 421.69C1495.88 421.48 1496 421.2 1495.98 420.9C1495.97 419.87 1495.86 411.62 1495.85 410.59C1495.8 405.91 1491.93 402.1 1487.13 402.1" id="dyXYAHSIjJ"></path><path d="M1474.7 335.02L1474.85 345.94L1437.95 346.42L1437.81 335.5L1474.7 335.02ZM1436.08 348.33C1436.29 348.53 1436.57 348.64 1436.85 348.64C1436.87 348.64 1436.87 348.64 1436.87 348.64C1440.78 348.59 1472.07 348.18 1475.98 348.13C1476.27 348.13 1476.55 348.01 1476.77 347.8C1476.97 347.59 1477.07 347.3 1477.07 347.01C1477.06 345.7 1476.92 335.2 1476.9 333.89C1476.89 333.28 1476.39 332.79 1475.79 332.79C1475.79 332.79 1475.79 332.79 1475.78 332.79C1452.31 333.1 1439.27 333.27 1436.67 333.3C1436.07 333.31 1435.57 333.81 1435.59 334.42C1435.6 335.74 1435.73 346.24 1435.75 347.55C1435.76 347.85 1435.87 348.13 1436.08 348.33" id="mB04WPZSNj"></path><path d="M1480.36 332.78C1480.15 332.99 1480.05 333.27 1480.05 333.57C1480.08 336.2 1480.25 349.37 1480.55 373.06L1476.59 377.37L1437.03 377.89L1432.95 373.68C1432.65 349.99 1432.48 336.82 1432.44 334.19C1432.43 333.89 1432.31 333.61 1432.1 333.41C1430.44 331.82 1422.13 323.9 1407.19 309.64L1504.65 308.37C1491.7 321.39 1483.6 329.52 1480.36 332.78ZM1508.35 306.8C1508.18 306.39 1507.78 306.12 1507.34 306.12C1507.34 306.12 1507.34 306.12 1507.32 306.12C1497.04 306.26 1414.73 307.33 1404.44 307.46C1404 307.47 1403.6 307.74 1403.43 308.16C1403.27 308.58 1403.38 309.06 1403.7 309.37C1405.47 311.05 1414.31 319.49 1430.23 334.69C1430.53 358.37 1430.7 371.52 1430.74 374.15C1430.75 374.43 1430.86 374.71 1431.06 374.91C1431.53 375.39 1435.3 379.28 1435.77 379.77C1435.99 379.98 1436.27 380.1 1436.56 380.1C1436.57 380.1 1436.57 380.1 1436.59 380.1C1440.64 380.05 1473.05 379.63 1477.1 379.57C1477.41 379.57 1477.7 379.44 1477.9 379.22C1478.36 378.72 1482.03 374.73 1482.48 374.23C1482.67 374.03 1482.78 373.75 1482.78 373.47C1482.74 370.84 1482.57 357.69 1482.27 334.01C1497.78 318.41 1506.4 309.74 1508.12 308.01C1508.44 307.69 1508.54 307.21 1508.35 306.8" id="sD6KAYuEvx"></path><path d="M1438.29 372.47L1438.04 353.63L1474.94 353.14L1475.19 371.99L1438.29 372.47ZM1476.03 350.92L1476.02 350.92C1452.55 351.23 1439.51 351.39 1436.91 351.43C1436.31 351.44 1435.81 351.94 1435.83 352.55C1435.85 354.65 1436.07 371.5 1436.09 373.6C1436.09 373.9 1436.21 374.18 1436.43 374.38C1436.63 374.58 1436.91 374.69 1437.2 374.69C1437.2 374.69 1437.2 374.69 1437.21 374.69C1441.12 374.64 1472.42 374.23 1476.33 374.18C1476.62 374.18 1476.9 374.06 1477.1 373.85C1477.31 373.64 1477.42 373.36 1477.42 373.06C1477.39 370.96 1477.17 354.11 1477.14 352.01C1477.13 351.4 1476.63 350.92 1476.03 350.92" id="GobwuUJVUo"></path><path d="M1425.06 626.91L1424.27 567.5L1494.28 566.58L1495.06 626.91L1425.06 626.91ZM1496.13 564.67C1495.93 564.47 1495.65 564.36 1495.37 564.36C1495.36 564.36 1495.36 564.36 1495.34 564.36C1488.12 564.45 1430.36 565.21 1423.14 565.3C1422.85 565.3 1422.57 565.43 1422.37 565.63C1422.15 565.84 1422.05 566.13 1422.05 566.42C1422.13 572.58 1422.78 621.87 1422.86 628.03C1422.87 628.63 1423.37 629.12 1423.97 629.12C1431.19 629.12 1488.96 629.12 1496.18 629.12C1496.48 629.12 1496.76 629 1496.97 628.79C1497.17 628.58 1497.29 628.29 1497.29 628C1497.21 621.75 1496.56 571.7 1496.48 565.45C1496.46 565.15 1496.34 564.87 1496.13 564.67" id="cecBpL3JnL"></path><path d="M1511.39 227.27L1507.72 240.45L1505.74 247.61L1419.1 248.74L1465.43 81.87L1551.88 81.87L1511.39 227.27ZM1523.12 238.32C1523.61 276.45 1523.89 297.63 1523.94 301.86C1523.97 304.48 1523 306.95 1521.17 308.82C1519.35 310.7 1516.89 311.75 1514.28 311.78C1514.15 311.78 1513.49 311.79 1512.3 311.81C1512.22 305.28 1512.17 301.65 1512.16 300.93C1512.16 300.63 1512.04 300.35 1511.83 300.15C1511.62 299.94 1511.43 299.83 1511.04 299.84C1500 299.98 1411.63 301.13 1400.58 301.28C1399.97 301.28 1399.47 301.79 1399.49 302.4C1399.5 303.12 1399.54 306.75 1399.62 313.27L1397.65 313.3L1397.5 314.4C1397.5 313.74 1397.5 313.37 1397.5 313.3C1392.17 313.3 1387.79 308.97 1387.73 303.64C1387.65 297.29 1386.98 246.45 1386.89 240.09C1386.87 237.48 1387.85 235.01 1389.68 233.14C1391.5 231.26 1393.94 230.22 1396.55 230.18C1397.48 230.17 1402.09 230.11 1410.4 230L1413.73 240.87C1402.08 241.03 1395.61 241.11 1394.32 241.13C1393.7 241.14 1393.21 241.64 1393.22 242.25C1393.28 246.6 1393.73 281.39 1393.78 285.74C1393.78 286.03 1393.9 286.31 1394.12 286.52C1394.32 286.72 1394.61 286.83 1394.89 286.83C1394.89 286.83 1394.89 286.83 1394.9 286.83C1467.76 285.87 1508.24 285.34 1516.33 285.24C1516.93 285.23 1517.43 284.73 1517.43 284.12C1517.37 279.77 1516.91 244.99 1516.85 240.64C1516.85 240.34 1516.73 240.06 1516.52 239.86C1516.32 239.66 1516.04 239.55 1515.75 239.55C1515.75 239.55 1515.75 239.55 1515.73 239.55C1515.37 239.55 1513.54 239.57 1510.26 239.62L1513.31 228.66C1513.32 228.66 1513.32 228.66 1513.32 228.66C1518.65 228.66 1523.05 232.99 1523.12 238.32C1523.12 238.32 1523.12 238.32 1523.12 238.32ZM1417.65 250.97C1471.02 250.27 1500.66 249.89 1506.59 249.81C1507.08 249.8 1507.51 249.47 1507.64 249C1507.78 248.52 1508.44 246.13 1509.64 241.84L1514.67 241.77L1515.19 283.04L1395.98 284.6L1395.45 243.33L1414.4 243.08C1415.71 247.34 1416.44 249.71 1416.58 250.18C1416.6 250.22 1416.64 250.24 1416.64 250.28C1416.68 250.36 1416.7 250.46 1416.76 250.54C1416.8 250.59 1416.86 250.62 1416.92 250.67C1416.97 250.71 1417 250.74 1417.05 250.77C1417.22 250.89 1417.42 250.97 1417.64 250.97C1417.64 250.97 1417.64 250.97 1417.65 250.97ZM1367.34 81.87L1454.39 81.87L1458.98 96.84L1417.58 245.91C1416.8 243.36 1416.36 241.94 1416.28 241.65C1416.28 241.65 1416.28 241.64 1416.28 241.64C1415.88 240.33 1412.68 229.87 1412.28 228.56C1412.28 228.55 1412.27 228.55 1412.27 228.54C1406.28 208.99 1391.3 160.1 1367.34 81.87ZM1554.22 80.1C1554.01 79.82 1553.67 79.66 1553.33 79.66C1544.45 79.66 1473.46 79.66 1464.59 79.66C1464.09 79.66 1463.65 80 1463.52 80.47C1463.29 81.3 1462.14 85.44 1460.07 92.88C1457.79 85.42 1456.52 81.27 1456.27 80.44C1456.12 79.98 1455.7 79.66 1455.22 79.66C1446.28 79.66 1374.79 79.66 1365.85 79.66C1365.5 79.66 1365.17 79.83 1364.96 80.11C1364.76 80.39 1364.69 80.76 1364.8 81.09C1367.79 90.87 1382.77 139.77 1409.72 227.8C1401.81 227.9 1397.41 227.96 1396.53 227.97C1393.33 228.01 1390.33 229.3 1388.09 231.59C1385.85 233.89 1384.64 236.92 1384.69 240.12C1384.78 246.48 1385.44 297.31 1385.52 303.67C1385.6 310.2 1390.97 315.51 1397.5 315.51C1397.5 315.51 1397.66 315.51 1397.67 315.51C1397.98 315.5 1400.44 315.47 1400.75 315.47C1401.05 315.46 1401.33 315.34 1401.54 315.14C1401.74 314.92 1401.84 314.64 1401.84 314.35C1401.84 313.63 1401.79 310 1401.71 303.47L1509.96 302.06C1510.04 308.59 1510.09 312.21 1510.1 312.94C1510.11 313.23 1510.23 313.51 1510.44 313.71C1510.64 313.92 1510.92 314.03 1511.2 314.03C1511.22 314.03 1511.22 314.03 1511.23 314.03C1511.54 314.03 1514 314 1514.31 313.99C1517.52 313.95 1520.52 312.66 1522.74 310.37C1524.98 308.07 1526.19 305.04 1526.15 301.84C1526.07 295.48 1525.41 244.65 1525.33 238.29C1525.25 232 1520.24 226.89 1513.91 226.52C1517.96 211.98 1550.35 95.61 1554.39 81.07C1554.49 80.73 1554.42 80.38 1554.22 80.1" id="T2nCksHYuD"></path><path d="M1317.26 985.99C1314.34 985.99 1311 985.28 1307.41 983.93C1271.32 966.91 1244.95 935.13 1235 896.7C1238.89 890.03 1244.93 886.03 1252.93 884.82C1252.97 884.81 1253.49 884.75 1254.44 884.75C1260.41 884.75 1281.81 887.03 1306.6 916.27C1306.85 916.57 1332.56 947.1 1330.53 974.62C1330.47 975.08 1328.76 985.99 1317.26 985.99ZM1254.44 882.54C1253.28 882.54 1252.67 882.62 1252.64 882.63C1243.74 883.97 1237.08 888.47 1232.85 896C1232.84 896.02 1232.77 896.15 1232.64 896.38C1232.7 896.64 1232.74 896.78 1232.74 896.81C1242.78 936.08 1269.65 968.56 1306.55 985.96C1310.46 987.45 1314.08 988.2 1317.26 988.2C1330.71 988.2 1332.71 975.06 1332.73 974.85C1334.83 946.37 1309.37 916.11 1308.28 914.84C1282.88 884.87 1260.65 882.54 1254.44 882.54" id="JojOoOlW3S"></path><path d="M1474.01 836.92C1474.01 836.92 1474.01 836.92 1474.01 836.92C1437.27 812.43 1384.23 810.53 1368.85 810.53C1365.84 810.53 1364.12 810.6 1364.12 810.6C1364.02 810.6 1362.31 810.53 1359.29 810.53C1343.91 810.53 1290.87 812.43 1254.25 836.85C1254.21 836.88 1249.58 839.15 1244.22 839.15C1239.99 839.15 1236.49 837.75 1233.8 835.01C1247 774.11 1301.71 729.96 1364.08 729.96C1426.45 729.96 1481.14 774.11 1494.36 835.01C1491.67 837.75 1488.15 839.15 1483.92 839.15C1478.62 839.15 1474.03 836.92 1474.01 836.92ZM1364.08 727.75C1300.47 727.75 1244.73 772.91 1231.51 835.11C1231.5 835.15 1231.46 835.33 1231.39 835.67C1231.62 835.92 1231.75 836.06 1231.77 836.09C1234.96 839.58 1239.14 841.36 1244.22 841.36C1250.12 841.36 1255.04 838.93 1255.36 838.76C1291.58 814.61 1344.07 812.74 1359.29 812.74C1362.32 812.74 1364.01 812.81 1364.12 812.81C1364.13 812.81 1365.82 812.74 1368.85 812.74C1384.08 812.74 1436.56 814.61 1472.9 838.83C1473.1 838.93 1478.03 841.36 1483.92 841.36C1489 841.36 1493.2 839.58 1496.38 836.09C1496.41 836.06 1496.53 835.92 1496.76 835.67C1496.69 835.33 1496.66 835.15 1496.65 835.11C1483.43 772.91 1427.67 727.75 1364.08 727.75" id="YcuCy2OSSZ"></path><path d="M1420.82 983.9C1417.14 985.28 1413.8 985.99 1410.89 985.99C1399.38 985.99 1397.69 975.08 1397.62 974.69C1395.59 947.12 1421.29 916.57 1421.55 916.27C1446.34 887.03 1467.73 884.75 1473.71 884.75C1474.66 884.75 1475.17 884.81 1475.18 884.81C1483.22 886.03 1489.25 890.02 1493.15 896.7C1483.19 935.13 1456.83 966.91 1420.82 983.9C1420.82 983.9 1420.82 983.9 1420.82 983.9ZM1475.47 882.62C1475.47 882.62 1474.86 882.54 1473.71 882.54C1467.5 882.54 1445.26 884.87 1419.86 914.84C1418.78 916.11 1393.32 946.37 1395.42 974.93C1395.45 975.06 1397.43 988.2 1410.89 988.2C1414.07 988.2 1417.68 987.45 1421.67 985.93C1458.51 968.56 1485.38 936.08 1495.4 896.81C1495.4 896.78 1495.44 896.64 1495.5 896.38C1495.38 896.15 1495.3 896.02 1495.29 896C1491.07 888.47 1484.42 883.97 1475.47 882.62" id="cfvuKHG3AM"></path><path d="M1204.06 863.29C1204.06 775.06 1275.84 703.27 1364.08 703.27C1452.3 703.27 1524.09 775.06 1524.09 863.29C1524.09 951.51 1452.3 1023.3 1364.08 1023.3C1275.84 1023.3 1204.06 951.51 1204.06 863.29ZM1364.08 701.06C1274.63 701.06 1201.85 773.84 1201.85 863.29C1201.85 952.74 1274.63 1025.51 1364.08 1025.51C1453.53 1025.51 1526.3 952.74 1526.3 863.29C1526.3 773.84 1453.53 701.06 1364.08 701.06" id="foyL2hkmgi"></path><path d="M1367.34 872.63C1386.89 872.63 1397.75 872.63 1399.93 872.63C1399.34 890.35 1385.07 904.63 1367.34 905.21C1367.34 900.87 1367.34 890.01 1367.34 872.63ZM1367.34 837.84C1385.07 838.42 1399.34 852.7 1399.93 870.42C1397.75 870.42 1386.89 870.42 1367.34 870.42C1367.34 853.04 1367.34 842.18 1367.34 837.84ZM1365.14 870.42C1345.59 870.42 1334.73 870.42 1332.56 870.42C1333.13 852.7 1347.42 838.42 1365.14 837.84C1365.14 842.18 1365.14 853.04 1365.14 870.42ZM1365.14 905.21C1347.42 904.63 1333.13 890.35 1332.56 872.63C1334.73 872.63 1345.59 872.63 1365.14 872.63C1365.14 890.01 1365.14 900.87 1365.14 905.21ZM1366.24 835.57C1346.42 835.57 1330.29 851.7 1330.29 871.52C1330.29 891.35 1346.42 907.48 1366.24 907.48C1386.07 907.48 1402.19 891.35 1402.19 871.52C1402.19 851.7 1386.07 835.57 1366.24 835.57" id="m1k5wLVkwD"></path><path d="M576.84 298.08C582.67 272.2 601.39 255.74 612.04 248.23C612.07 248.21 612.2 248.12 612.43 247.95C621.21 181.61 626.09 144.76 627.06 137.39C627.49 133.83 639.19 50.32 782.6 50.32C782.69 50.32 783.36 50.31 783.44 50.31C797.12 50.31 917.71 52.73 937.94 136.46C938.93 143.89 943.87 181.05 952.75 247.95C952.99 248.12 953.12 248.21 953.15 248.23C963.79 255.74 982.52 272.2 988.35 298.08C993.9 322.74 986.69 349 966.93 376.11C966.92 376.13 966.86 376.21 966.75 376.36C966.73 376.55 966.73 376.65 966.73 376.67C963.73 414.41 941.73 538.72 784.39 554.13C784.27 554.14 783.67 554.2 782.59 554.31C781.5 554.2 780.9 554.14 780.78 554.13C623.45 538.72 601.46 414.41 598.47 376.67C598.47 376.65 598.46 376.55 598.44 376.36C598.33 376.21 598.27 376.13 598.25 376.11C578.49 349 571.29 322.74 576.84 298.08C576.84 298.08 576.84 298.08 576.84 298.08ZM629.04 473.15C661.13 521.64 712.11 549.62 780.56 556.33C780.69 556.34 781.37 556.41 782.59 556.54C783.8 556.41 784.47 556.34 784.61 556.33C853.07 549.62 904.05 521.64 936.14 473.15C961.76 434.44 967.58 393.36 968.9 377.16C988.91 349.6 996.18 322.83 990.51 297.6C984.58 271.31 965.78 254.52 954.82 246.7C953.85 239.39 949.01 202.84 940.31 137.05C940.18 136.41 940.11 136.06 940.1 135.99C919.47 50.57 797.3 48.1 783.43 48.1C783.34 48.1 782.68 48.11 782.59 48.11C637.25 48.11 625.31 133.49 624.87 137.11C623.42 148.07 611.82 235.74 610.37 246.7C599.4 254.52 580.6 271.31 574.68 297.6C569 322.83 576.27 349.6 596.29 377.16C597.6 393.36 603.42 434.44 629.04 473.15" id="CD7qS7EzsN"></path><path d="M781.49 172.04C781.49 201.12 781.49 217.27 781.49 220.5C755.03 219.92 733.62 198.51 733.04 172.04C739.5 172.04 755.65 172.04 781.49 172.04ZM781.49 169.83C752.42 169.83 736.27 169.83 733.04 169.83C733.62 143.37 755.03 121.97 781.49 121.39C781.49 127.85 781.49 144 781.49 169.83ZM783.7 172.04C812.77 172.04 828.92 172.04 832.15 172.04C831.57 198.51 810.16 219.92 783.7 220.5C783.7 214.04 783.7 197.89 783.7 172.04ZM783.7 121.39C810.16 121.97 831.57 143.37 832.15 169.83C828.92 169.83 812.77 169.83 783.7 169.83C783.7 144 783.7 127.85 783.7 121.39ZM782.59 222.74C811.15 222.74 834.39 199.5 834.39 170.94C834.39 142.38 811.15 119.15 782.59 119.15C754.03 119.15 730.8 142.38 730.8 170.94C730.8 199.5 754.03 222.74 782.59 222.74" id="SElU5xuRa5"></path><path d="M1167.49 206.8L1169.7 206.8L1169.7 116.69L1167.49 116.69L1167.49 206.8Z" id="Ggxu0A8nGO"></path><path d="M1168.6 233.89C1171.34 233.89 1173.57 231.65 1173.57 228.91C1173.57 226.17 1171.34 223.94 1168.6 223.94C1165.85 223.94 1163.62 226.17 1163.62 228.91C1163.62 231.65 1165.85 233.89 1168.6 233.89" id="V9pzQWEWip"></path><path d="M1252.55 177.46C1252.55 223.75 1214.89 261.41 1168.6 261.41C1122.31 261.41 1084.65 223.75 1084.65 177.46C1084.65 131.17 1122.31 93.52 1168.6 93.52C1214.89 93.52 1252.55 131.17 1252.55 177.46ZM1168.6 263.62C1216.1 263.62 1254.76 224.97 1254.76 177.46C1254.76 129.95 1216.1 91.3 1168.6 91.3C1121.09 91.3 1082.44 129.95 1082.44 177.46C1082.44 224.97 1121.09 263.62 1168.6 263.62" id="VEvcaWynJP"></path><path d="M420.04 975.73C420.04 944.45 445.49 919 476.77 919C508.06 919 533.5 944.45 533.5 975.73C533.5 1007.02 508.06 1032.47 476.77 1032.47C445.49 1032.47 420.04 1007.02 420.04 975.73ZM476.77 916.79C444.27 916.79 417.83 943.23 417.83 975.73C417.83 1008.23 444.27 1034.68 476.77 1034.68C509.28 1034.68 535.72 1008.23 535.72 975.73C535.72 943.23 509.28 916.79 476.77 916.79" id="cDxJygXpEx"></path><path d="M476.77 1013.91C476.77 1015.24 476.77 1015.98 476.77 1016.13C499.04 1016.13 517.16 998.01 517.16 975.73C516.94 975.73 515.17 975.73 514.95 975.73C514.95 996.79 497.82 1013.91 476.77 1013.91" id="oqR2B7wWQs"></path><path d="M778.92 794.65C778.48 795.48 776.57 798.63 773.1 798.63C772.14 798.63 767.31 798.63 758.61 798.63C755.98 804.18 754.52 807.26 754.23 807.88C754.21 807.92 751.96 811.74 747.83 811.85C747.34 811.85 745.62 811.78 744.06 810.88C743.6 810.62 743.2 810.3 742.85 809.93C742.83 809.91 742.81 809.88 742.78 809.85C742.47 809.51 742.2 809.12 741.98 808.7C741.95 808.63 741.92 808.55 741.88 808.48C741.69 808.05 741.53 807.6 741.42 807.1C741.41 807.03 741.4 806.95 741.38 806.87C741.28 806.33 741.22 805.76 741.22 805.13C741.22 803.26 741.22 788.23 741.22 786.35C741.22 786.35 741.22 786.33 741.22 786.32C741.16 785.49 740.4 770.23 759.49 768.18C759.5 768.18 760.33 768.05 761.64 768.05C766.23 768.05 774.59 769.5 778.98 779.1C778.99 779.11 779.08 779.4 779.22 779.91C779.83 782.12 781.18 788.46 779.02 794.45C779.01 794.47 778.97 794.55 778.92 794.65ZM761.64 765.84C760.14 765.84 759.19 765.99 759.19 765.99C759.19 765.99 759.19 765.99 759.19 765.99C737.88 768.28 739 786.34 739.01 786.43C739.01 788.3 739.01 803.26 739.01 805.13C739.01 805.89 739.09 806.56 739.2 807.19C739.23 807.33 739.25 807.47 739.28 807.6C739.42 808.22 739.59 808.8 739.81 809.3C739.82 809.31 739.82 809.31 739.82 809.32C740.06 809.86 740.35 810.32 740.66 810.74C740.7 810.79 740.75 810.86 740.79 810.92C741.11 811.33 741.46 811.68 741.81 811.97C741.88 812.03 741.95 812.09 742.02 812.15C742.34 812.4 742.65 812.62 742.96 812.8C743 812.82 743.03 812.83 743.07 812.85C743.44 813.05 743.82 813.22 744.21 813.37C744.31 813.41 744.4 813.46 744.5 813.49C744.84 813.61 745.17 813.69 745.52 813.77C745.68 813.8 745.84 813.85 745.99 813.87C746.21 813.92 746.44 813.95 746.67 813.97C747.15 814.03 747.57 814.06 747.83 814.06C747.86 814.06 748.04 814.05 748.06 814.05C753.24 813.91 756.03 809.19 756.19 808.9C756.44 808.37 757.72 805.68 760.01 800.84C767.87 800.84 772.23 800.84 773.1 800.84C778.48 800.84 780.93 795.6 781.07 795.29C784.03 787.1 781.19 778.73 781.03 778.28C775.91 767.05 765.76 765.84 761.64 765.84" id="CApweV6qZd"></path><path d="M763.42 790.01C759.78 790.01 756.77 787.31 756.24 783.8C756.79 783.8 759.56 783.8 764.54 783.8C764.54 778.83 764.54 776.06 764.54 775.51C768.04 776.05 770.74 779.05 770.74 782.7C770.74 786.73 767.46 790.01 763.42 790.01C763.42 790.01 763.42 790.01 763.42 790.01ZM762.32 781.59C758.67 781.59 756.64 781.59 756.24 781.59C756.72 778.45 759.19 775.99 762.32 775.51C762.32 776.32 762.32 778.35 762.32 781.59ZM763.42 773.19C758.18 773.19 753.91 777.45 753.91 782.7C753.91 787.95 758.18 792.22 763.42 792.22C768.67 792.22 772.95 787.95 772.95 782.7C772.95 777.45 768.67 773.19 763.42 773.19" id="upuykQKBQm"></path><path d="M1003.29 1013.91C1003.29 1015.24 1003.29 1015.98 1003.29 1016.13C1025.56 1016.13 1043.68 998.01 1043.68 975.73C1043.45 975.73 1041.69 975.73 1041.46 975.73C1041.46 996.79 1024.34 1013.91 1003.29 1013.91" id="PB8f14MMGR"></path><path d="M948.18 975.73C948.18 944.45 973.64 919 1004.92 919C1036.21 919 1061.66 944.45 1061.66 975.73C1061.66 1007.02 1036.21 1032.47 1004.92 1032.47C973.64 1032.47 948.18 1007.02 948.18 975.73ZM1004.92 916.79C972.42 916.79 945.97 943.23 945.97 975.73C945.97 1008.23 972.42 1034.68 1004.92 1034.68C1037.43 1034.68 1063.87 1008.23 1063.87 975.73C1063.87 943.23 1037.43 916.79 1004.92 916.79" id="N6N8vrDsVX"></path><path d="M1077.65 970.88C1075.14 932.6 1043.5 902.85 1004.92 902.85C964.73 902.85 932.04 935.55 932.04 975.73C932.04 976.86 932.07 978.02 932.14 979.26C893.88 979.26 587.81 979.26 549.55 979.26C549.61 978.1 549.65 976.92 549.65 975.73C549.65 935.55 516.96 902.85 476.77 902.85C436.59 902.85 403.9 935.55 403.9 975.73C403.9 976.86 403.93 978.04 403.99 979.26C399.36 979.26 362.27 979.26 357.63 979.26C359.44 972.72 365.87 944.55 357.33 898.82C361.36 893.76 408.08 838.59 541.94 818.8C541.96 818.8 542.03 818.79 542.15 818.77C629.61 767.25 678.19 738.63 687.91 732.91C691.38 732.13 749.36 719.48 852.73 719.48C895.86 719.48 941.31 721.67 987.79 725.99C987.8 725.99 987.86 726 987.95 726.01L1018.88 719.71L1020.79 737.45C1021.02 737.62 1021.15 737.72 1021.18 737.74C1021.78 738.2 1081.78 783.81 1093.61 822.9C1093.94 826.64 1095.61 845.36 1098.62 879.05C1098.77 879.22 1098.86 879.31 1098.88 879.33C1099.07 879.53 1118.07 900.19 1117.18 925.09C1116.7 938.47 1110.61 950.71 1099.07 961.47C1094.78 963.35 1079.79 969.94 1077.65 970.88ZM1095.8 822.59C1095.78 822.46 1095.76 822.38 1095.76 822.37C1084.17 783.77 1028.54 740.58 1022.89 736.26C1022.75 734.98 1022.06 728.58 1020.81 717.06C1001.03 721.09 990.03 723.33 987.83 723.77C941.34 719.46 895.88 717.27 852.73 717.27C746.32 717.27 687.82 730.66 687.24 730.79C687.23 730.8 687.18 730.81 687.08 730.83C599.67 782.32 551.11 810.92 541.4 816.64C401.02 837.46 355.7 897.28 355.26 897.89C355.24 897.91 355.15 898.04 354.97 898.27C355.03 898.56 355.06 898.72 355.06 898.75C364.86 950.69 355.2 979.72 355.1 980.01C355.07 980.11 354.9 980.6 354.6 981.48L406.34 981.48C406.29 980.77 406.27 980.38 406.27 980.3C406.17 978.8 406.11 977.27 406.11 975.73C406.11 936.76 437.81 905.06 476.77 905.06C515.74 905.06 547.44 936.76 547.44 975.73C547.44 977.27 547.37 978.8 547.28 980.3C547.28 980.38 547.25 980.77 547.21 981.48L934.51 981.48C934.46 980.76 934.43 980.37 934.42 980.29C934.31 978.65 934.25 977.16 934.25 975.73C934.25 936.76 965.95 905.06 1004.92 905.06C1042.85 905.06 1073.86 934.73 1075.52 972.58C1075.53 972.69 1075.55 973.23 1075.6 974.2L1100.13 963.42C1100.31 963.3 1100.42 963.23 1100.44 963.22C1112.51 952.01 1118.88 939.21 1119.39 925.17C1120.26 900.67 1103.18 880.8 1100.75 878.1C1100.42 874.4 1098.77 855.9 1095.8 822.59" id="VrlSxnKtrm"></path><path d="M972.39 773.93C957.07 801.76 899.52 809.55 898.98 809.62C894.07 810.03 869.48 812.08 825.22 815.76C825.22 789.01 825.22 774.15 825.22 771.18C825.22 763.41 819.7 756.91 812.37 755.41C811.32 755.19 810.24 755.08 809.13 755.08C808.02 755.08 806.93 755.19 805.89 755.41C798.56 756.91 793.03 763.41 793.03 771.18C793.03 774.33 793.03 790.09 793.03 818.45L576.47 836.49L572.07 824.14C648.14 775.42 690.4 748.34 698.85 742.93C744.35 737.95 791.29 735.42 838.38 735.42C914.11 735.42 966.08 742.06 972.17 742.87C977.35 754.34 977.42 764.78 972.39 773.93C972.39 773.93 972.39 773.93 972.39 773.93ZM823.01 815.95L807.77 817.22L795.24 818.26C795.24 790.01 795.24 774.32 795.24 771.18C795.24 763.52 801.47 757.29 809.13 757.29C816.78 757.29 823.01 763.52 823.01 771.18C823.01 777.15 823.01 792.07 823.01 815.95ZM973.67 740.85C973.31 740.8 973.12 740.77 973.08 740.77C973.06 740.76 972.99 740.75 972.87 740.74C969.16 740.23 916.33 733.21 838.38 733.21C791.12 733.21 744.01 735.75 698.35 740.76C698.33 740.76 698.25 740.77 698.09 740.79L569.39 823.23L574.96 838.84L793.03 820.67L823.01 818.17C868.74 814.36 894.14 812.24 899.22 811.82C901.63 811.5 958.46 803.8 974.32 775C979.8 765.05 979.66 753.75 973.92 741.39C973.91 741.36 973.82 741.18 973.67 740.85" id="bcYcFg7QwR"></path><path d="M899.57 881.15L922.89 881.15L922.89 904.47L899.57 904.47L899.57 881.15ZM897.36 930L874.05 930L874.05 906.68L897.36 906.68L897.36 930ZM871.84 904.47L848.52 904.47L848.52 881.15L871.84 881.15L871.84 904.47ZM846.31 930L823 930L823 906.68L846.31 906.68L846.31 930ZM820.78 904.47L797.47 904.47L797.47 881.15L820.78 881.15L820.78 904.47ZM795.26 930L771.94 930L771.94 906.68L795.26 906.68L795.26 930ZM769.73 904.47L746.41 904.47L746.41 881.15L769.73 881.15L769.73 904.47ZM744.2 930L720.88 930L720.88 906.68L744.2 906.68L744.2 930ZM718.67 904.47L695.35 904.47L695.35 881.15L718.67 881.15L718.67 904.47ZM693.14 930L669.82 930L669.82 906.68L693.14 906.68L693.14 930ZM667.61 904.47L644.29 904.47L644.29 881.15L667.61 881.15L667.61 904.47ZM642.08 930L618.76 930L618.76 906.68L642.08 906.68L642.08 930ZM616.55 904.47L593.24 904.47L593.24 881.15L616.55 881.15L616.55 904.47ZM591.03 930L567.71 930L567.71 906.68L591.03 906.68L591.03 930ZM565.49 904.47L542.17 904.47L542.17 881.15L565.49 881.15L565.49 904.47ZM897.36 904.47L874.05 904.47L874.05 878.94L846.31 878.94L846.31 904.47L823 904.47L823 878.94L795.26 878.94L795.26 904.47L771.94 904.47L771.94 878.94L744.2 878.94L744.2 904.47L720.88 904.47L720.88 878.94L693.14 878.94L693.14 904.47L669.82 904.47L669.82 878.94L642.08 878.94L642.08 904.47L618.76 904.47L618.76 878.94L591.03 878.94L591.03 904.47L567.71 904.47L567.71 878.94L539.96 878.94L539.96 906.68L565.49 906.68L565.49 932.21L593.24 932.21L593.24 906.68L616.55 906.68L616.55 932.21L644.29 932.21L644.29 906.68L667.61 906.68L667.61 932.21L695.35 932.21L695.35 906.68L718.67 906.68L718.67 932.21L746.41 932.21L746.41 906.68L769.73 906.68L769.73 932.21L797.47 932.21L797.47 906.68L820.78 906.68L820.78 932.21L848.52 932.21L848.52 906.68L871.84 906.68L871.84 932.21L899.57 932.21L899.57 906.68L925.1 906.68L925.1 878.94L897.36 878.94L897.36 904.47" id="PAjMTiGCgz"></path><path d="M1006.03 819.52C1006.03 806.11 1006.03 798.66 1006.03 797.17C1018.1 797.74 1027.81 807.45 1028.37 819.52C1025.39 819.52 1017.94 819.52 1006.03 819.52ZM1006.03 821.74C1019.43 821.74 1026.88 821.74 1028.37 821.74C1027.81 833.81 1018.1 843.51 1006.03 844.08C1006.03 841.1 1006.03 833.65 1006.03 821.74ZM1003.82 819.52C990.41 819.52 982.97 819.52 981.48 819.52C982.04 807.45 991.74 797.74 1003.82 797.17C1003.82 800.15 1003.82 807.6 1003.82 819.52ZM1003.82 844.08C991.74 843.51 982.04 833.81 981.48 821.74C982.97 821.74 990.41 821.74 1003.82 821.74C1003.82 833.65 1003.82 841.1 1003.82 844.08ZM1004.92 794.91C990.75 794.91 979.21 806.44 979.21 820.63C979.21 834.81 990.75 846.35 1004.92 846.35C1019.1 846.35 1030.64 834.81 1030.64 820.63C1030.64 806.44 1019.1 794.91 1004.92 794.91" id="sv6FxTWdaV"></path><path d="M308.93 1033.93L259.35 1033.93L259.35 1003.09L228.51 1003.09L228.51 974.47L259.35 974.47L259.35 941.41L228.51 941.41L228.51 912.79L259.35 912.79L259.35 879.74L228.51 879.74L228.51 851.11L259.35 851.11L259.35 818.05L228.51 818.05L228.51 789.42L259.35 789.42L259.35 756.37L228.51 756.37L228.51 727.74L259.35 727.74L259.35 694.69L228.51 694.69L228.51 666.05L259.35 666.05L259.35 633L228.51 633L228.51 604.37L259.35 604.37L259.35 573.53C276.86 573.53 286.59 573.53 288.53 573.53C299.78 573.53 308.93 582.68 308.93 593.93C308.93 652.6 308.93 799.26 308.93 1033.93ZM257.14 1033.93L228.51 1033.93L228.51 1005.3L257.14 1005.3L257.14 1033.93ZM228.51 943.63L257.14 943.63L257.14 972.26L228.51 972.26L228.51 943.63ZM228.51 881.95L257.14 881.95L257.14 910.58L228.51 910.58L228.51 881.95ZM228.51 820.26L257.14 820.26L257.14 848.89L228.51 848.89L228.51 820.26ZM228.51 758.58L257.14 758.58L257.14 787.21L228.51 787.21L228.51 758.58ZM228.51 696.9L257.14 696.9L257.14 725.53L228.51 725.53L228.51 696.9ZM228.51 635.22L257.14 635.22L257.14 663.84L228.51 663.84L228.51 635.22ZM228.51 573.53L257.14 573.53L257.14 602.16L228.51 602.16L228.51 573.53ZM226.3 602.16L195.46 602.16L195.46 635.22L226.3 635.22L226.3 663.84L195.46 663.84L195.46 696.9L226.3 696.9L226.3 725.53L195.46 725.53L195.46 758.58L226.3 758.58L226.3 787.21L195.46 787.21L195.46 820.26L226.3 820.26L226.3 848.89L195.46 848.89L195.46 881.95L226.3 881.95L226.3 910.58L195.46 910.58L195.46 943.63L226.3 943.63L226.3 972.26L195.46 972.26L195.46 1005.3L226.3 1005.3L226.3 1033.93L172.42 1033.93L172.42 573.53L226.3 573.53L226.3 602.16ZM226.3 633L197.67 633L197.67 604.37L226.3 604.37L226.3 633ZM226.3 694.69L197.67 694.69L197.67 666.05L226.3 666.05L226.3 694.69ZM226.3 756.37L197.67 756.37L197.67 727.74L226.3 727.74L226.3 756.37ZM226.3 818.05L197.67 818.05L197.67 789.42L226.3 789.42L226.3 818.05ZM226.3 879.74L197.67 879.74L197.67 851.11L226.3 851.11L226.3 879.74ZM226.3 941.41L197.67 941.41L197.67 912.79L226.3 912.79L226.3 941.41ZM226.3 1003.09L197.67 1003.09L197.67 974.47L226.3 974.47L226.3 1003.09ZM170.21 1033.93L136.58 1033.93L136.58 573.53L170.21 573.53L170.21 1033.93ZM134.37 1033.93L85.37 1033.93C85.37 769.93 85.37 623.26 85.37 593.93C85.37 582.68 94.52 573.53 105.77 573.53C107.68 573.53 117.21 573.53 134.37 573.53L134.37 1033.93ZM288.53 571.32C178.87 571.32 117.95 571.32 105.77 571.32C93.3 571.32 83.16 581.46 83.16 593.93C83.16 623.41 83.16 770.81 83.16 1036.14L311.14 1036.14C311.14 770.81 311.14 623.41 311.14 593.93C311.14 581.46 301 571.32 288.53 571.32" id="WqzMs7cmDQ"></path><path d="M429 623.33L427.44 624.89L466.63 664.08L526.11 604.6L524.55 603.03L466.63 660.95L429 623.33" id="xvgIPovdhP"></path><path d="M476.77 709.21C430.48 709.21 392.83 671.55 392.83 625.27C392.83 578.98 430.48 541.32 476.77 541.32C523.06 541.32 560.72 578.98 560.72 625.27C560.72 671.55 523.06 709.21 476.77 709.21ZM390.61 625.27C390.61 672.78 429.27 711.42 476.77 711.42C524.28 711.42 562.93 672.78 562.93 625.27C562.93 577.76 524.28 539.11 476.77 539.11C429.27 539.11 390.61 577.76 390.61 625.27" id="BojndQOuQS"></path><path d="M668.81 660.75L652.4 652.13L635.99 660.75L639.13 642.49L625.85 629.55L644.2 626.88L652.4 610.26L660.61 626.88L678.96 629.55L665.68 642.49L668.81 660.75ZM662.08 624.86L652.4 605.26L642.73 624.86L621.1 628L636.75 643.26L633.06 664.8L652.4 654.63L671.75 664.8L668.06 643.26L683.7 628L662.08 624.86" id="cr0KvqG9AM"></path><path d="M751.77 660.75L735.36 652.13L718.96 660.75L722.09 642.49L708.82 629.55L727.16 626.88L735.36 610.26L743.57 626.88L761.91 629.55L748.64 642.49L751.77 660.75ZM745.04 624.86L735.36 605.26L725.69 624.86L704.06 628L719.71 643.26L716.02 664.8L735.36 654.63L754.71 664.8L751.01 643.26L766.67 628L745.04 624.86" id="Up5gCY9RyY"></path><path d="M834.73 660.75L818.33 652.13L801.92 660.75L805.05 642.49L791.78 629.55L810.12 626.88L818.33 610.26L826.53 626.88L844.87 629.55L831.6 642.49L834.73 660.75ZM828 624.86L818.33 605.26L808.65 624.86L787.02 628L802.67 643.26L798.98 664.8L818.33 654.63L837.67 664.8L833.97 643.26L849.63 628L828 624.86" id="S8DmbiVZx"></path><path d="M917.69 660.75L901.29 652.13L884.88 660.75L888.01 642.49L874.74 629.55L893.08 626.88L901.29 610.26L909.49 626.88L927.83 629.55L914.56 642.49L917.69 660.75ZM910.96 624.86L901.29 605.26L891.61 624.86L869.99 628L885.63 643.26L881.94 664.8L901.29 654.63L920.63 664.8L916.94 643.26L932.58 628L910.96 624.86" id="v3aVLFKOoD"></path><path d="M1000.65 660.75L984.24 652.13L967.84 660.75L970.97 642.49L957.69 629.55L976.04 626.88L984.24 610.26L992.45 626.88L1010.8 629.55L997.52 642.49L1000.65 660.75ZM1015.55 628L993.92 624.86L984.24 605.26L974.57 624.86L952.94 628L968.6 643.26L964.9 664.8L984.24 654.63L1003.59 664.8L999.9 643.26L1015.55 628" id="KBYL9qnK8B"></path><path d="M1058.22 430.03C1088.34 364.08 1147.97 356.96 1172.21 356.96C1180.93 356.96 1186.44 357.82 1186.55 357.84C1252.16 364.88 1281 397.02 1293.63 422.75C1307.35 450.67 1305.52 477.31 1305.51 477.65C1305.51 489.33 1305.51 582.78 1305.51 594.46C1305.51 613.71 1298.56 627.47 1284.89 635.35C1273.95 641.66 1261.88 642.15 1258.44 642.15C1257.65 642.15 1257.21 642.12 1257.17 642.12C1229.29 641.45 1213.59 614.78 1213.49 614.59C1211.75 610.93 1203.04 592.63 1187.37 559.68C1135.25 559.68 1106.29 559.68 1100.5 559.68C1072.03 559.68 1058.36 530.4 1058.25 530.19C1040.74 481.67 1058.08 430.44 1058.22 430.03C1058.22 430.03 1058.22 430.03 1058.22 430.03ZM1100.5 561.89L1185.97 561.89C1201.31 594.13 1209.82 612.03 1211.53 615.62C1211.69 615.9 1227.97 643.63 1257.08 644.33C1257.08 644.33 1257.56 644.36 1258.44 644.36C1263.02 644.36 1274.9 643.67 1286 637.27C1300.4 628.96 1307.71 614.56 1307.71 594.46C1307.71 582.78 1307.71 489.41 1307.71 477.74C1307.73 477.47 1309.61 450.32 1295.66 421.86C1282.79 395.6 1253.45 362.79 1186.85 355.65C1186.62 355.61 1181.12 354.75 1172.21 354.75C1147.54 354.75 1086.86 361.99 1056.17 429.21C1055.99 429.72 1038.39 481.67 1056.21 531.02C1056.35 531.33 1070.59 561.89 1100.5 561.89" id="TjA22LcBQ2"></path><path d="M1159.85 455.4C1159.85 485.59 1159.85 502.37 1159.85 505.72C1132.36 505.14 1110.12 482.89 1109.54 455.4C1116.24 455.4 1133.02 455.4 1159.85 455.4ZM1159.85 453.19C1129.66 453.19 1112.89 453.19 1109.54 453.19C1110.12 425.7 1132.36 403.46 1159.85 402.87C1159.85 409.58 1159.85 426.35 1159.85 453.19ZM1162.06 455.4C1192.25 455.4 1209.03 455.4 1212.38 455.4C1211.8 482.89 1189.56 505.14 1162.06 505.72C1162.06 499.01 1162.06 482.24 1162.06 455.4ZM1162.06 402.87C1189.56 403.46 1211.8 425.7 1212.38 453.19C1209.03 453.19 1192.25 453.19 1162.06 453.19C1162.06 426.35 1162.06 409.58 1162.06 402.87ZM1160.96 507.96C1190.55 507.96 1214.62 483.89 1214.62 454.3C1214.62 424.71 1190.55 400.63 1160.96 400.63C1131.37 400.63 1107.3 424.71 1107.3 454.3C1107.3 483.89 1131.37 507.96 1160.96 507.96" id="I9B02SYzBf"></path><path d="M1084.52 579.96C1084.53 575.18 1088.43 571.29 1093.22 571.29C1100.69 571.3 1160.46 571.39 1167.94 571.4C1170.25 571.41 1172.43 572.31 1174.07 573.96C1175.71 575.6 1176.61 577.78 1176.6 580.1C1176.6 584.88 1172.7 588.77 1167.92 588.77C1167.92 588.84 1167.92 589.21 1167.92 589.87L1167.91 588.77C1123.08 588.7 1098.17 588.66 1093.19 588.66C1088.4 588.65 1084.51 584.75 1084.52 579.96C1084.52 579.96 1084.52 579.96 1084.52 579.96ZM1167.92 590.98C1173.92 590.98 1178.8 586.1 1178.81 580.1C1178.82 577.2 1177.69 574.46 1175.64 572.4C1173.58 570.34 1170.85 569.2 1167.94 569.19C1160.47 569.18 1100.68 569.09 1093.21 569.08C1087.21 569.08 1082.32 573.96 1082.31 579.96C1082.3 585.96 1087.18 590.86 1093.19 590.87C1098.17 590.88 1123.08 590.91 1167.92 590.98" id="T9N3RDAmTX"></path><path d="M1097.84 601.82C1142.67 601.89 1167.58 601.92 1172.56 601.93C1174.88 601.93 1177.06 602.84 1178.7 604.49C1180.33 606.13 1181.23 608.31 1181.23 610.63C1181.22 615.41 1177.33 619.3 1172.55 619.3C1172.55 619.37 1172.55 619.74 1172.55 620.4L1172.53 619.3C1127.7 619.23 1102.8 619.2 1097.81 619.19C1095.49 619.19 1093.32 618.28 1091.68 616.64C1090.04 614.99 1089.14 612.81 1089.14 610.49C1089.15 605.71 1093.05 601.82 1097.84 601.82C1097.84 601.82 1097.84 601.82 1097.84 601.82ZM1097.81 621.4C1142.65 621.47 1167.57 621.5 1172.55 621.51C1178.55 621.51 1183.43 616.63 1183.44 610.64C1183.44 607.73 1182.32 604.99 1180.26 602.93C1178.21 600.86 1175.47 599.73 1172.56 599.72C1165.09 599.71 1105.3 599.62 1097.83 599.61C1091.83 599.61 1086.94 604.49 1086.93 610.49C1086.93 613.4 1088.06 616.14 1090.11 618.2C1092.17 620.26 1094.9 621.4 1097.81 621.4" id="Ckv4wP9F70"></path><path d="M1177.19 632.46C1179.5 632.46 1181.68 633.37 1183.32 635.02C1184.96 636.66 1185.86 638.84 1185.85 641.16C1185.85 645.94 1181.95 649.83 1177.17 649.83C1177.17 649.9 1177.17 650.27 1177.17 650.94L1177.15 649.83C1132.33 649.76 1107.42 649.73 1102.44 649.72C1097.65 649.72 1093.76 645.81 1093.77 641.02C1093.78 636.24 1097.68 632.36 1102.47 632.36C1117.41 632.38 1169.71 632.45 1177.19 632.46ZM1102.44 651.93C1147.28 652 1172.18 652.03 1177.17 652.04C1183.17 652.04 1188.06 647.16 1188.06 641.16C1188.07 638.26 1186.94 635.52 1184.89 633.45C1182.83 631.39 1180.1 630.25 1177.19 630.25C1169.71 630.24 1109.93 630.16 1102.46 630.15C1096.46 630.15 1091.57 635.03 1091.56 641.02C1091.55 647.03 1096.43 651.93 1102.44 651.93" id="xAFdYBwd9N"></path><path d="M1181.79 681.47L1181.78 680.36C1136.95 680.3 1112.05 680.26 1107.06 680.26C1102.28 680.25 1098.39 676.34 1098.39 671.55C1098.4 666.77 1102.3 662.89 1107.09 662.89C1114.56 662.9 1174.33 662.98 1181.81 662.99C1184.12 663 1186.31 663.91 1187.94 665.55C1189.58 667.19 1190.48 669.37 1190.48 671.69C1190.47 676.47 1186.57 680.36 1181.79 680.36C1181.79 680.51 1181.79 680.88 1181.79 681.47ZM1181.81 660.78C1136.97 660.72 1112.06 660.68 1107.08 660.67C1101.08 660.67 1096.19 665.55 1096.18 671.55C1096.17 677.56 1101.05 682.46 1107.06 682.47C1114.53 682.48 1174.32 682.56 1181.79 682.57C1187.79 682.57 1192.68 677.69 1192.69 671.7C1192.69 668.79 1191.57 666.05 1189.51 663.99C1187.45 661.93 1184.72 660.79 1181.81 660.78" id="QB2XvGTY9H"></path><path d="M1464.57 848.31C1464.81 848.31 1466.72 848.31 1466.96 848.31C1473.06 848.31 1478.02 853.27 1478.02 859.36C1478.02 865.46 1473.06 870.42 1466.96 870.42C1466.72 870.42 1464.81 870.42 1464.57 870.42C1458.48 870.42 1453.53 865.46 1453.53 859.36C1453.53 853.27 1458.48 848.31 1464.57 848.31ZM1466.96 872.63C1474.27 872.63 1480.23 866.68 1480.23 859.36C1480.23 852.05 1474.27 846.1 1466.96 846.1C1466.72 846.1 1464.81 846.1 1464.57 846.1C1457.26 846.1 1451.31 852.05 1451.31 859.36C1451.31 866.68 1457.26 872.63 1464.57 872.63C1464.73 872.63 1465.53 872.63 1466.96 872.63" id="Opa3GFBCMc"></path><path d="M1267.9 848.31C1274 848.31 1278.96 853.27 1278.96 859.36C1278.96 865.46 1274 870.42 1267.9 870.42C1267.66 870.42 1265.75 870.42 1265.51 870.42C1259.42 870.42 1254.47 865.46 1254.47 859.36C1254.47 853.27 1259.42 848.31 1265.51 848.31C1265.99 848.31 1267.66 848.31 1267.9 848.31ZM1265.51 872.63C1266.95 872.63 1267.74 872.63 1267.9 872.63C1275.22 872.63 1281.17 866.68 1281.17 859.36C1281.17 852.05 1275.22 846.1 1267.9 846.1C1267.66 846.1 1265.75 846.1 1265.51 846.1C1258.2 846.1 1252.25 852.05 1252.25 859.36C1252.25 866.68 1258.2 872.63 1265.51 872.63" id="P8IzaqQXi1"></path><path d="M796.24 498.51C779.86 498.51 770.76 498.51 768.94 498.51C739.45 498.51 715.45 474.52 715.45 445.02C715.23 445.02 713.46 445.02 713.24 445.02C713.24 475.74 738.23 500.72 768.94 500.72C771.67 500.72 793.51 500.72 796.24 500.72C826.95 500.72 851.94 475.74 851.94 445.02C851.72 445.02 849.95 445.02 849.73 445.02C849.73 474.52 825.73 498.51 796.24 498.51" id="MBuZWGJmT7"></path><path d="M722.99 276.32C732.37 276.32 740.01 283.96 740.01 293.35C740.01 302.73 732.37 310.36 722.99 310.36C718.32 310.36 680.95 310.36 676.28 310.36C666.9 310.36 659.26 302.73 659.26 293.35C659.26 283.96 666.9 276.32 676.28 276.32C685.62 276.32 718.32 276.32 722.99 276.32ZM676.28 312.58C704.31 312.58 719.88 312.58 722.99 312.58C733.59 312.58 742.22 303.95 742.22 293.35C742.22 282.74 733.59 274.11 722.99 274.11C718.32 274.11 680.95 274.11 676.28 274.11C665.68 274.11 657.05 282.74 657.05 293.35C657.05 303.95 665.68 312.58 676.28 312.58" id="BseIgmDvQk"></path><path d="M888.91 276.32C898.29 276.32 905.93 283.96 905.93 293.35C905.93 302.73 898.29 310.36 888.91 310.36C884.24 310.36 846.87 310.36 842.2 310.36C832.82 310.36 825.18 302.73 825.18 293.35C825.18 283.96 832.82 276.32 842.2 276.32C851.54 276.32 884.24 276.32 888.91 276.32ZM822.97 293.35C822.97 303.95 831.6 312.58 842.2 312.58C846.87 312.58 884.24 312.58 888.91 312.58C899.51 312.58 908.14 303.95 908.14 293.35C908.14 282.74 899.51 274.11 888.91 274.11C884.24 274.11 846.87 274.11 842.2 274.11C831.6 274.11 822.97 282.74 822.97 293.35" id="s6Fop1qkOj"></path><path d="M781.48 332.47L781.48 413.66L804.36 413.66L804.36 411.45L783.7 411.45L783.7 332.47L781.48 332.47" id="mDAqm02IOF"></path></defs><g visibility="inherit"><g visibility="inherit"><path></path><g><use xlink:href="#TgSqVI65Gy" opacity="1" fill="#58595b" fill-opacity="1"></use><g><use xlink:href="#TgSqVI65Gy" opacity="1" fill-opacity="0" stroke="#000000" stroke-width="1" stroke-opacity="0"></use></g></g><g><use xlink:href="#g1mJcb6lOb" opacity="1" fill="#454647" fill-opacity="1"></use><g><use xlink:href="#g1mJcb6lOb" opacity="1" fill-opacity="0" stroke="#000000" stroke-width="1" stroke-opacity="0"></use></g></g><g><use xlink:href="#szjdzYOZbT" opacity="1" fill="#ffffff" fill-opacity="1"></use><g><use xlink:href="#szjdzYOZbT" opacity="1" fill-opacity="0" stroke="#000000" stroke-width="1" stroke-opacity="0"></use></g></g><g><use xlink:href="#qxTuq4NKzl" opacity="1" fill="#ffffff" fill-opacity="1"></use><g><use xlink:href="#qxTuq4NKzl" opacity="1" fill-opacity="0" stroke="#000000" stroke-width="1" stroke-opacity="0"></use></g></g><g><use xlink:href="#OqUhz89kBE" opacity="1" fill="#ffffff" fill-opacity="1"></use><g><use xlink:href="#OqUhz89kBE" opacity="1" fill-opacity="0" stroke="#000000" stroke-width="1" stroke-opacity="0"></use></g></g><g><use xlink:href="#qoZ8ndhat" opacity="1" fill="#ffffff" fill-opacity="1"></use><g><use xlink:href="#qoZ8ndhat" opacity="1" fill-opacity="0" stroke="#000000" stroke-width="1" stroke-opacity="0"></use></g></g><g><use xlink:href="#RuWgdAdhaY" opacity="1" fill="#ffffff" fill-opacity="1"></use><g><use xlink:href="#RuWgdAdhaY" opacity="1" fill-opacity="0" stroke="#000000" stroke-width="1" stroke-opacity="0"></use></g></g><g><use xlink:href="#fi6oNpe6nE" opacity="1" fill="#ffffff" fill-opacity="1"></use><g><use xlink:href="#fi6oNpe6nE" opacity="1" fill-opacity="0" stroke="#000000" stroke-width="1" stroke-opacity="0"></use></g></g><g><use xlink:href="#Ku6AG8vXVW" opacity="1" fill="#ffffff" fill-opacity="1"></use><g><use xlink:href="#Ku6AG8vXVW" opacity="1" fill-opacity="0" stroke="#000000" stroke-width="1" stroke-opacity="0"></use></g></g><g><use xlink:href="#FyOBSEEJEh" opacity="1" fill="#ffffff" fill-opacity="1"></use><g><use xlink:href="#FyOBSEEJEh" opacity="1" fill-opacity="0" stroke="#000000" stroke-width="1" stroke-opacity="0"></use></g></g><g><use xlink:href="#G2o6sEswTd" opacity="1" fill="#ffffff" fill-opacity="1"></use><g><use xlink:href="#G2o6sEswTd" opacity="1" fill-opacity="0" stroke="#000000" stroke-width="1" stroke-opacity="0"></use></g></g><g><use xlink:href="#E5WAaDAyc7" opacity="1" fill="#ffffff" fill-opacity="1"></use><g><use xlink:href="#E5WAaDAyc7" opacity="1" fill-opacity="0" stroke="#000000" stroke-width="1" stroke-opacity="0"></use></g></g><g><use xlink:href="#mjUEbVodG4" opacity="1" fill="#ffffff" fill-opacity="1"></use><g><use xlink:href="#mjUEbVodG4" opacity="1" fill-opacity="0" stroke="#000000" stroke-width="1" stroke-opacity="0"></use></g></g><g><use xlink:href="#gzmKGazXzL" opacity="1" fill="#ffffff" fill-opacity="1"></use><g><use xlink:href="#gzmKGazXzL" opacity="1" fill-opacity="0" stroke="#000000" stroke-width="1" stroke-opacity="0"></use></g></g><g><use xlink:href="#edyl3lPctX" opacity="1" fill="#ffffff" fill-opacity="1"></use><g><use xlink:href="#edyl3lPctX" opacity="1" fill-opacity="0" stroke="#000000" stroke-width="1" stroke-opacity="0"></use></g></g><g><use xlink:href="#dyXYAHSIjJ" opacity="1" fill="#ffffff" fill-opacity="1"></use><g><use xlink:href="#dyXYAHSIjJ" opacity="1" fill-opacity="0" stroke="#000000" stroke-width="1" stroke-opacity="0"></use></g></g><g><use xlink:href="#mB04WPZSNj" opacity="1" fill="#ffffff" fill-opacity="1"></use><g><use xlink:href="#mB04WPZSNj" opacity="1" fill-opacity="0" stroke="#000000" stroke-width="1" stroke-opacity="0"></use></g></g><g><use xlink:href="#sD6KAYuEvx" opacity="1" fill="#ffffff" fill-opacity="1"></use><g><use xlink:href="#sD6KAYuEvx" opacity="1" fill-opacity="0" stroke="#000000" stroke-width="1" stroke-opacity="0"></use></g></g><g><use xlink:href="#GobwuUJVUo" opacity="1" fill="#ffffff" fill-opacity="1"></use><g><use xlink:href="#GobwuUJVUo" opacity="1" fill-opacity="0" stroke="#000000" stroke-width="1" stroke-opacity="0"></use></g></g><g><use xlink:href="#cecBpL3JnL" opacity="1" fill="#ffffff" fill-opacity="1"></use><g><use xlink:href="#cecBpL3JnL" opacity="1" fill-opacity="0" stroke="#000000" stroke-width="1" stroke-opacity="0"></use></g></g><g><use xlink:href="#T2nCksHYuD" opacity="1" fill="#ffffff" fill-opacity="1"></use><g><use xlink:href="#T2nCksHYuD" opacity="1" fill-opacity="0" stroke="#000000" stroke-width="1" stroke-opacity="0"></use></g></g><g><use xlink:href="#JojOoOlW3S" opacity="1" fill="#ffffff" fill-opacity="1"></use><g><use xlink:href="#JojOoOlW3S" opacity="1" fill-opacity="0" stroke="#000000" stroke-width="1" stroke-opacity="0"></use></g></g><g><use xlink:href="#YcuCy2OSSZ" opacity="1" fill="#ffffff" fill-opacity="1"></use><g><use xlink:href="#YcuCy2OSSZ" opacity="1" fill-opacity="0" stroke="#000000" stroke-width="1" stroke-opacity="0"></use></g></g><g><use xlink:href="#cfvuKHG3AM" opacity="1" fill="#ffffff" fill-opacity="1"></use><g><use xlink:href="#cfvuKHG3AM" opacity="1" fill-opacity="0" stroke="#000000" stroke-width="1" stroke-opacity="0"></use></g></g><g><use xlink:href="#foyL2hkmgi" opacity="1" fill="#ffffff" fill-opacity="1"></use><g><use xlink:href="#foyL2hkmgi" opacity="1" fill-opacity="0" stroke="#000000" stroke-width="1" stroke-opacity="0"></use></g></g><g><use xlink:href="#m1k5wLVkwD" opacity="1" fill="#ffffff" fill-opacity="1"></use><g><use xlink:href="#m1k5wLVkwD" opacity="1" fill-opacity="0" stroke="#000000" stroke-width="1" stroke-opacity="0"></use></g></g><g><use xlink:href="#CD7qS7EzsN" opacity="1" fill="#ffffff" fill-opacity="1"></use><g><use xlink:href="#CD7qS7EzsN" opacity="1" fill-opacity="0" stroke="#000000" stroke-width="1" stroke-opacity="0"></use></g></g><g><use xlink:href="#SElU5xuRa5" opacity="1" fill="#ffffff" fill-opacity="1"></use><g><use xlink:href="#SElU5xuRa5" opacity="1" fill-opacity="0" stroke="#000000" stroke-width="1" stroke-opacity="0"></use></g></g><g><use xlink:href="#Ggxu0A8nGO" opacity="1" fill="#ffffff" fill-opacity="1"></use><g><use xlink:href="#Ggxu0A8nGO" opacity="1" fill-opacity="0" stroke="#000000" stroke-width="1" stroke-opacity="0"></use></g></g><g><use xlink:href="#V9pzQWEWip" opacity="1" fill="#ffffff" fill-opacity="1"></use><g><use xlink:href="#V9pzQWEWip" opacity="1" fill-opacity="0" stroke="#000000" stroke-width="1" stroke-opacity="0"></use></g></g><g><use xlink:href="#VEvcaWynJP" opacity="1" fill="#ffffff" fill-opacity="1"></use><g><use xlink:href="#VEvcaWynJP" opacity="1" fill-opacity="0" stroke="#000000" stroke-width="1" stroke-opacity="0"></use></g></g><g><use xlink:href="#cDxJygXpEx" opacity="1" fill="#ffffff" fill-opacity="1"></use><g><use xlink:href="#cDxJygXpEx" opacity="1" fill-opacity="0" stroke="#000000" stroke-width="1" stroke-opacity="0"></use></g></g><g><use xlink:href="#oqR2B7wWQs" opacity="1" fill="#ffffff" fill-opacity="1"></use><g><use xlink:href="#oqR2B7wWQs" opacity="1" fill-opacity="0" stroke="#000000" stroke-width="1" stroke-opacity="0"></use></g></g><g><use xlink:href="#CApweV6qZd" opacity="1" fill="#ffffff" fill-opacity="1"></use><g><use xlink:href="#CApweV6qZd" opacity="1" fill-opacity="0" stroke="#000000" stroke-width="1" stroke-opacity="0"></use></g></g><g><use xlink:href="#upuykQKBQm" opacity="1" fill="#ffffff" fill-opacity="1"></use><g><use xlink:href="#upuykQKBQm" opacity="1" fill-opacity="0" stroke="#000000" stroke-width="1" stroke-opacity="0"></use></g></g><g><use xlink:href="#PB8f14MMGR" opacity="1" fill="#ffffff" fill-opacity="1"></use><g><use xlink:href="#PB8f14MMGR" opacity="1" fill-opacity="0" stroke="#000000" stroke-width="1" stroke-opacity="0"></use></g></g><g><use xlink:href="#N6N8vrDsVX" opacity="1" fill="#ffffff" fill-opacity="1"></use><g><use xlink:href="#N6N8vrDsVX" opacity="1" fill-opacity="0" stroke="#000000" stroke-width="1" stroke-opacity="0"></use></g></g><g><use xlink:href="#VrlSxnKtrm" opacity="1" fill="#ffffff" fill-opacity="1"></use><g><use xlink:href="#VrlSxnKtrm" opacity="1" fill-opacity="0" stroke="#000000" stroke-width="1" stroke-opacity="0"></use></g></g><g><use xlink:href="#bcYcFg7QwR" opacity="1" fill="#ffffff" fill-opacity="1"></use><g><use xlink:href="#bcYcFg7QwR" opacity="1" fill-opacity="0" stroke="#000000" stroke-width="1" stroke-opacity="0"></use></g></g><g><use xlink:href="#PAjMTiGCgz" opacity="1" fill="#ffffff" fill-opacity="1"></use><g><use xlink:href="#PAjMTiGCgz" opacity="1" fill-opacity="0" stroke="#000000" stroke-width="1" stroke-opacity="0"></use></g></g><g><use xlink:href="#sv6FxTWdaV" opacity="1" fill="#ffffff" fill-opacity="1"></use><g><use xlink:href="#sv6FxTWdaV" opacity="1" fill-opacity="0" stroke="#000000" stroke-width="1" stroke-opacity="0"></use></g></g><g><use xlink:href="#WqzMs7cmDQ" opacity="1" fill="#ffffff" fill-opacity="1"></use><g><use xlink:href="#WqzMs7cmDQ" opacity="1" fill-opacity="0" stroke="#000000" stroke-width="1" stroke-opacity="0"></use></g></g><g><use xlink:href="#xvgIPovdhP" opacity="1" fill="#ffffff" fill-opacity="1"></use><g><use xlink:href="#xvgIPovdhP" opacity="1" fill-opacity="0" stroke="#000000" stroke-width="1" stroke-opacity="0"></use></g></g><g><use xlink:href="#BojndQOuQS" opacity="1" fill="#ffffff" fill-opacity="1"></use><g><use xlink:href="#BojndQOuQS" opacity="1" fill-opacity="0" stroke="#000000" stroke-width="1" stroke-opacity="0"></use></g></g><g><use xlink:href="#cr0KvqG9AM" opacity="1" fill="#ffffff" fill-opacity="1"></use><g><use xlink:href="#cr0KvqG9AM" opacity="1" fill-opacity="0" stroke="#000000" stroke-width="1" stroke-opacity="0"></use></g></g><g><use xlink:href="#Up5gCY9RyY" opacity="1" fill="#ffffff" fill-opacity="1"></use><g><use xlink:href="#Up5gCY9RyY" opacity="1" fill-opacity="0" stroke="#000000" stroke-width="1" stroke-opacity="0"></use></g></g><g><use xlink:href="#S8DmbiVZx" opacity="1" fill="#ffffff" fill-opacity="1"></use><g><use xlink:href="#S8DmbiVZx" opacity="1" fill-opacity="0" stroke="#000000" stroke-width="1" stroke-opacity="0"></use></g></g><g><use xlink:href="#v3aVLFKOoD" opacity="1" fill="#ffffff" fill-opacity="1"></use><g><use xlink:href="#v3aVLFKOoD" opacity="1" fill-opacity="0" stroke="#000000" stroke-width="1" stroke-opacity="0"></use></g></g><g><use xlink:href="#KBYL9qnK8B" opacity="1" fill="#ffffff" fill-opacity="1"></use><g><use xlink:href="#KBYL9qnK8B" opacity="1" fill-opacity="0" stroke="#000000" stroke-width="1" stroke-opacity="0"></use></g></g><g><use xlink:href="#TjA22LcBQ2" opacity="1" fill="#ffffff" fill-opacity="1"></use><g><use xlink:href="#TjA22LcBQ2" opacity="1" fill-opacity="0" stroke="#000000" stroke-width="1" stroke-opacity="0"></use></g></g><g><use xlink:href="#I9B02SYzBf" opacity="1" fill="#ffffff" fill-opacity="1"></use><g><use xlink:href="#I9B02SYzBf" opacity="1" fill-opacity="0" stroke="#000000" stroke-width="1" stroke-opacity="0"></use></g></g><g><use xlink:href="#T9N3RDAmTX" opacity="1" fill="#ffffff" fill-opacity="1"></use><g><use xlink:href="#T9N3RDAmTX" opacity="1" fill-opacity="0" stroke="#000000" stroke-width="1" stroke-opacity="0"></use></g></g><g><use xlink:href="#Ckv4wP9F70" opacity="1" fill="#ffffff" fill-opacity="1"></use><g><use xlink:href="#Ckv4wP9F70" opacity="1" fill-opacity="0" stroke="#000000" stroke-width="1" stroke-opacity="0"></use></g></g><g><use xlink:href="#xAFdYBwd9N" opacity="1" fill="#ffffff" fill-opacity="1"></use><g><use xlink:href="#xAFdYBwd9N" opacity="1" fill-opacity="0" stroke="#000000" stroke-width="1" stroke-opacity="0"></use></g></g><g><use xlink:href="#QB2XvGTY9H" opacity="1" fill="#ffffff" fill-opacity="1"></use><g><use xlink:href="#QB2XvGTY9H" opacity="1" fill-opacity="0" stroke="#000000" stroke-width="1" stroke-opacity="0"></use></g></g><g><use xlink:href="#Opa3GFBCMc" opacity="1" fill="#ffffff" fill-opacity="1"></use><g><use xlink:href="#Opa3GFBCMc" opacity="1" fill-opacity="0" stroke="#000000" stroke-width="1" stroke-opacity="0"></use></g></g><g><use xlink:href="#P8IzaqQXi1" opacity="1" fill="#ffffff" fill-opacity="1"></use><g><use xlink:href="#P8IzaqQXi1" opacity="1" fill-opacity="0" stroke="#000000" stroke-width="1" stroke-opacity="0"></use></g></g><g><use xlink:href="#MBuZWGJmT7" opacity="1" fill="#ffffff" fill-opacity="1"></use><g><use xlink:href="#MBuZWGJmT7" opacity="1" fill-opacity="0" stroke="#000000" stroke-width="1" stroke-opacity="0"></use></g></g><g><use xlink:href="#BseIgmDvQk" opacity="1" fill="#ffffff" fill-opacity="1"></use><g><use xlink:href="#BseIgmDvQk" opacity="1" fill-opacity="0" stroke="#000000" stroke-width="1" stroke-opacity="0"></use></g></g><g><use xlink:href="#s6Fop1qkOj" opacity="1" fill="#ffffff" fill-opacity="1"></use><g><use xlink:href="#s6Fop1qkOj" opacity="1" fill-opacity="0" stroke="#000000" stroke-width="1" stroke-opacity="0"></use></g></g><g><use xlink:href="#mDAqm02IOF" opacity="1" fill="#ffffff" fill-opacity="1"></use><g><use xlink:href="#mDAqm02IOF" opacity="1" fill-opacity="0" stroke="#000000" stroke-width="1" stroke-opacity="0"></use></g></g></g></g></svg>