<?xml version="1.0" encoding="UTF-8" standalone="no"?>
<!DOCTYPE svg PUBLIC "-//W3C//DTD SVG 1.1//EN" "http://www.w3.org/Graphics/SVG/1.1/DTD/svg11.dtd">
<svg version="1.1" xmlns="http://www.w3.org/2000/svg" xmlns:xlink="http://www.w3.org/1999/xlink" preserveAspectRatio="xMidYMid meet" viewBox="0 0 1520 950"><defs><path d="M1479.09 926.52L1479.09 0L0 0L0 926.52L1479.09 926.52Z" id="b6rfHVVjkj"></path><path d="M838.86 350.65L835.45 349.88L849.86 285.7L853.27 286.46" id="E8yjbSP7Vj"></path><path d="M868.16 248.67C876.89 254.2 884.17 262.06 885.63 271.67C887.08 281.25 886.56 286.55 882.42 295.25C879.51 301.36 874.13 306.37 867.38 308.42C859.03 310.95 840.21 311.84 834.68 292.05C837.27 288.63 842.49 282.2 842.49 282.2C842.49 282.2 847.24 291.48 850.63 293.23C864.66 300.49 871.41 285.5 872.41 282.78C873.74 279.15 877.47 266.14 865.56 256.24C866.14 254.14 868.08 250.87 868.16 248.67" id="DArgDLDpbF"></path><path d="M842.49 282.2L830.9 280.69L822.75 289.43L834.68 292.05" id="YmthRWwDao"></path><path d="M867.38 308.42C859.03 310.95 840.21 311.84 834.68 292.05C833.49 291.78 823.94 289.69 822.75 289.43C822.75 289.43 822.45 293.5 828.57 302.23C834.72 311.03 844.66 313.76 853.31 313.01C859.19 312.49 871.14 309.05 875.43 304.27C875.15 304.46 874.85 304.63 874.54 304.8C872.4 306.37 870 307.63 867.38 308.42" id="eqcSidtxd4"></path><path d="M850.63 293.23C864.66 300.49 871.41 285.5 872.41 282.78C873.74 279.15 877.47 266.14 865.56 256.24C865.59 256.15 865.64 256.04 865.66 255.96C865.19 255.84 862.82 255.26 858.55 254.2C856.63 257.35 855.56 259.09 855.35 259.44C859.03 257.47 862.12 264.9 862.32 267.88C862.63 272.25 863.79 276.04 857.68 283.32C855.19 286.28 846.91 289.13 844.29 285.06C844.29 285.1 844.28 285.38 844.28 285.41C845.97 288.26 848.55 292.15 850.63 293.23" id="AnWNeoNTj"></path><path d="M929.72 350.48C929.72 334.21 918.09 321.01 903.74 321.01C901.88 321.01 900.07 321.24 898.32 321.66C898.32 321.65 898.31 321.58 898.28 321.45C897.1 321.93 896.44 322.2 896.31 322.25C895.36 322.57 894.42 322.95 893.52 323.38C887.26 325.93 855.95 338.68 799.6 361.62L814.45 417.94C871.15 394.8 902.65 381.94 908.95 379.36C920.8 376.63 929.72 364.73 929.72 350.48" id="SigtfVxmJA"></path><path d="M831.48 390.22C831.48 406.5 819.84 419.69 805.5 419.69C791.15 419.69 779.52 406.5 779.52 390.22C779.52 373.94 791.15 360.74 805.5 360.74C819.84 360.74 831.48 373.94 831.48 390.22" id="lvWaeNtOix"></path><path d="M813.57 390.22C813.57 395.28 809.96 399.38 805.5 399.38C801.03 399.38 797.42 395.28 797.42 390.22C797.42 385.16 801.03 381.05 805.5 381.05C809.96 381.05 813.57 385.16 813.57 390.22" id="mrE1e32l8U"></path><path d="M886.98 389.97L863.6 293.43L850.84 287.67L852.28 284.49L866.59 290.95L890.37 389.15" id="rfgTyJVMth"></path><path d="M494.38 543.18C494.25 543.14 481.09 538.47 463.56 532.72C459.71 531.46 454.59 529.34 454.61 525.54C454.63 521 462.57 518.25 464.16 517.75C464.29 517.71 476.43 513.94 483.28 511.37C483.35 511.35 483.92 511.14 483.99 511.11C486.1 510.32 491.71 508.23 491.72 507.05C491.72 507.04 491.55 505.56 485.01 502.99C480.43 501.2 469.4 497.13 456.63 492.42C427.33 481.62 387.19 466.82 379.45 462.74C373.61 459.67 370.84 453.12 373.28 448.16C375.6 443.47 382.52 440.5 394.97 446.22C407.88 452.14 424.95 459.32 440.01 465.66C449.83 469.78 459.1 473.68 465.4 476.48C472.78 479.76 481.14 479.03 484.64 476.48C485.66 475.73 486.14 474.94 486.05 474.14C485.97 473.45 485.21 470.98 478.54 468.03C469.8 464.17 461.28 460.82 453.04 457.57C442.9 453.57 433.33 449.8 425.48 445.87C418.44 442.35 417.28 436.65 419.27 432.57C422.26 426.38 432.12 422.95 444.47 428.76C465.23 438.52 498.95 453.06 510.2 457.84C522.34 463 529.55 461.98 530.59 459.65C531.25 458.21 529.36 454.55 521.57 450.83C513.88 447.18 506.42 444.13 499.19 441.19C491.63 438.11 484.49 435.21 477.88 431.9C473.53 429.72 471.49 427.35 471.65 424.63C471.92 420.02 479.01 417.34 479.82 417.05C479.82 417.05 485.66 414.7 494.84 410.69C503.34 406.97 503.54 405.06 503.53 404.86C503.53 404.81 503.46 403.73 499.59 402.28C495.89 400.89 492.54 400.07 488.66 399.1C483.03 397.71 476.03 395.98 465.22 391.79C458.3 389.12 454.93 385.95 454.9 382.11C454.87 375.74 464.92 370.38 473.35 367.01C477.86 365.2 491.51 359.97 508.79 353.36C546.22 339.02 602.79 317.37 610.63 313.5C620.52 308.61 630.62 302.98 630.46 298.26C630.34 295.05 625.47 291.45 615.98 287.57C603.31 282.38 580.67 274.54 558.77 266.96C535.85 259.02 514.21 251.52 503.01 246.81C496.46 244.05 493.36 240.98 493.54 237.43C493.89 230.63 506.96 226.28 509.58 225.48C509.58 225.47 523.43 219.12 533.84 214.49C540.72 211.44 544.99 207.57 545 204.39C545 201.8 542.15 199.15 536.74 196.72C520.09 189.26 389.68 137.89 388.36 137.37C388.49 137.04 389.51 134.44 389.64 134.12C390.95 134.64 521.45 186.04 538.17 193.54C545.03 196.61 548.5 200.26 548.49 204.4C548.48 211.09 539.23 215.92 535.26 217.69C524.79 222.34 510.82 228.74 510.82 228.74C505.07 230.52 497.2 234.37 497.03 237.61C496.94 239.41 499.61 241.59 504.37 243.59C515.46 248.26 537.05 255.74 559.91 263.66C581.85 271.26 604.54 279.12 617.3 284.33C628.64 288.97 633.77 293.23 633.95 298.14C634.17 304.48 625.78 309.91 612.17 316.63C604.19 320.57 549.77 341.41 510.04 356.62C492.77 363.23 479.13 368.45 474.65 370.25C464.45 374.32 458.38 378.75 458.39 382.09C458.41 384.24 461.28 386.52 466.48 388.54C477.08 392.64 483.68 394.27 489.5 395.71C493.48 396.7 496.93 397.55 500.81 399.01C502.33 399.58 506.93 401.3 507.02 404.77C507.1 407.82 503.88 410.54 496.24 413.89C487.01 417.93 481.11 420.29 481.05 420.31C478.69 421.17 475.23 423.18 475.13 424.84C475.07 425.94 476.64 427.38 479.44 428.78C485.93 432.02 493.01 434.91 500.51 437.96C507.78 440.92 515.29 443.98 523.07 447.68C533.24 452.52 535.27 457.78 533.78 461.09C531.79 465.5 523.3 467.21 508.83 461.05C497.57 456.27 463.79 441.71 442.98 431.92C432.02 426.76 424.35 430.09 422.41 434.1C420.88 437.24 422.66 440.55 427.04 442.75C434.76 446.6 444.26 450.35 454.32 454.32C462.59 457.58 471.14 460.95 479.95 464.84C485.95 467.49 489.17 470.49 489.52 473.76C489.74 475.84 488.74 477.81 486.69 479.3C482.37 482.45 472.94 483.66 463.98 479.67C457.71 476.89 448.45 472.99 438.65 468.87C423.57 462.53 406.47 455.34 393.51 449.39C383.32 444.71 377.93 446.64 376.41 449.71C375.01 452.57 376.39 457.18 381.08 459.65C388.62 463.62 428.62 478.37 457.84 489.14C471.15 494.05 481.67 497.93 486.28 499.74C492.48 502.17 495.23 504.43 495.21 507.08C495.18 510.66 490.11 512.55 485.21 514.38C485.14 514.41 484.58 514.61 484.51 514.64C477.56 517.25 465.32 521.04 465.2 521.08C461.87 522.14 458.11 524.29 458.1 525.56C458.1 525.63 458.17 527.27 464.65 529.4C482.22 535.16 495.41 539.85 495.55 539.89" id="E3q9tVQRyP"></path><path d="M695.23 879.21L695.23 840.2L688.25 840.2L688.25 879.21L695.23 879.21Z" id="zzSRxXT3Wx"></path><path d="M765.1 849.52L765.1 810.51L758.11 810.51L758.11 849.52L765.1 849.52Z" id="QmwLrBenKw"></path><path d="M836.71 818.66L836.71 779.65L829.72 779.65L829.72 818.66L836.71 818.66Z" id="ts2SwgKy3A"></path><path d="M593.93 845.44L593.93 833.21L586.95 833.21L586.95 845.44L593.93 845.44Z" id="MtR57Crk7A"></path><path d="M447.22 256.26C447.22 333.69 299.34 391.91 299.34 391.91C296.78 391.91 276.29 391.91 273.73 391.91C273.73 391.91 121.19 338.35 121.19 256.26C121.19 213.5 194.17 178.83 284.2 178.83C374.23 178.83 447.22 213.49 447.22 256.26" id="Njm2plF0n0"></path><path d="M1255.63 605.92L1189.96 632.39L1189.96 709.79L1255.63 683.32" id="hnuseS7KKk"></path><path d="M1123.26 607.47L1189.96 632.39L1255.89 604.88L1189.18 579.96" id="b1WFAeaEjJ"></path><path d="M965.66 448.38L744.72 537.46L744.72 715.61L965.66 626.53" id="xpRhVefPlw"></path><path d="M636.73 90.27C636.73 142.85 636.73 172.05 636.73 177.9C636.73 180.95 634.25 183.42 631.19 183.42C628.14 183.42 625.66 180.95 625.66 177.9C625.66 172.05 625.66 142.85 625.66 90.27" id="H2fNeupgel"></path><path d="M1189.81 532.22L968.86 621.29L968.86 799.45L1189.81 710.37" id="FBA2BePP5Z"></path><path d="M744.43 537.46L968.86 621.29L1189.8 532.22L966.24 444.89" id="c6Hh0LS82D"></path><path d="M744.43 537.46L744.43 715.61C765.97 723.66 777.95 728.13 780.34 729.03C780.51 711.97 780.81 677.14 780.81 648.08C780.81 607.91 814 595.68 829.72 600.92C845.44 606.16 854.76 610.23 873.38 617.8C892.01 625.37 924.61 652.74 924.61 708.04C924.61 713.04 924.61 737.99 924.61 782.92L968.86 799.45L968.86 621.29" id="J5PiRcqD9r"></path><path d="M998.55 531.06C998.55 539.42 985.52 546.19 969.44 546.19C953.37 546.19 940.33 539.42 940.33 531.06C940.33 522.7 953.37 515.92 969.44 515.92C985.52 515.92 998.55 522.7 998.55 531.06" id="exVzwQdW3d"></path><path d="M992.15 532.22L988.66 491.47L950.81 491.47C948.83 514.6 947.73 527.46 947.51 530.03C947.4 530.37 947.32 530.71 947.32 531.06C947.32 531.21 947.36 531.36 947.38 531.51C947.38 531.56 947.36 531.79 947.32 532.22C947.46 532.22 947.55 532.22 947.56 532.22C949.07 536.25 958.28 539.36 969.44 539.36C980.61 539.36 989.82 536.25 991.33 532.22" id="kkfgrsoG6S"></path><path d="M556.09 780.82C532.8 789.55 533.96 810.51 546.77 816.33C559.58 822.15 643.42 851.26 643.42 851.26C643.42 851.26 648.08 857.67 675.44 847.19C702.8 836.71 848.93 774.41 865.23 765.1C878.37 757.59 882.12 754.03 882.12 742.39C882.12 726.67 860.58 720.27 860.58 720.27C860.58 720.27 815.17 704.55 794.79 696.98C774.41 689.41 761.6 698.73 761.6 698.73C761.6 698.73 579.37 772.08 556.08 780.82" id="wvFpPMFFsh"></path><path d="M654.48 818.08C631.19 826.81 635.85 855.34 656.67 852.81C661.77 852.19 667.91 850.07 675.44 847.19C702.8 836.71 849.51 773.83 865.23 765.1C878.46 757.75 882.12 754.04 882.12 742.39C882.12 726.67 868.72 728.42 857.08 733.08C845.44 737.74 677.76 809.35 654.48 818.08" id="UnjOroWBty"></path><path d="M870.92 729.82C866.67 729.82 861.74 731.21 857.08 733.07C845.44 737.73 677.76 809.35 654.48 818.08C632.17 826.44 635.51 852.97 654.13 852.97C654.94 852.97 655.79 852.92 656.67 852.81C661.77 852.19 667.91 850.07 675.44 847.19C702.8 836.71 849.51 773.83 865.23 765.1C878.46 757.75 882.12 754.03 882.12 742.39C882.12 732.96 877.29 729.82 870.92 729.82M870.92 732.32C876.94 732.32 879.62 735.42 879.62 742.39C879.62 752.47 877.28 755.54 864.02 762.91C848.19 771.71 700.15 835.05 674.54 844.85C666.82 847.81 661.09 849.76 656.37 850.33C655.6 850.42 654.85 850.47 654.13 850.47C646.28 850.47 642.55 845.27 641.66 840.4C641 836.75 641.78 832.85 643.84 829.42C646.23 825.46 650.21 822.35 655.36 820.42C671.01 814.55 752.51 780.01 806.43 757.16C833.12 745.86 854.2 736.92 858.01 735.4C863.12 733.35 867.46 732.32 870.92 732.32" id="jDhePgfj4X"></path><path d="M624.21 833.8C624.01 833.8 623.81 833.76 623.61 833.69C616.16 830.95 556.54 809.06 549.09 806.33C548.18 805.99 547.71 804.99 548.05 804.09C548.38 803.17 549.39 802.72 550.29 803.04C557.74 805.78 617.36 827.67 624.81 830.41C625.72 830.75 626.18 831.75 625.85 832.65C625.59 833.36 624.92 833.8 624.21 833.8" id="faNg8OENfx"></path><path d="M639.35 815.75C639.15 815.75 638.95 815.72 638.75 815.64C631.3 812.91 571.68 791.02 564.22 788.28C563.32 787.95 562.85 786.94 563.18 786.04C563.52 785.13 564.53 784.68 565.43 785C572.88 787.74 632.5 809.63 639.95 812.36C640.86 812.7 641.32 813.7 640.99 814.6C640.73 815.31 640.06 815.75 639.35 815.75" id="rn0hkSBw84"></path><path d="M664.96 804.11C664.76 804.11 664.56 804.07 664.36 804C656.91 801.26 597.29 779.37 589.84 776.63C588.93 776.3 588.47 775.3 588.8 774.39C589.13 773.48 590.15 773.03 591.04 773.35C598.49 776.09 658.11 797.98 665.56 800.72C666.47 801.05 666.94 802.05 666.61 802.96C666.35 803.67 665.68 804.11 664.96 804.11" id="cqK7RHGjHG"></path><path d="M688.25 794.21C688.05 794.21 687.85 794.17 687.65 794.1C680.2 791.36 620.58 769.47 613.13 766.73C612.22 766.4 611.76 765.4 612.09 764.49C612.42 763.58 613.44 763.13 614.33 763.45C621.78 766.19 681.4 788.08 688.85 790.82C689.76 791.15 690.23 792.16 689.89 793.06C689.63 793.77 688.97 794.21 688.25 794.21" id="Uq8aW1OR20"></path><path d="M715.03 784.89C714.83 784.89 714.63 784.86 714.43 784.79C706.98 782.05 647.36 760.16 639.91 757.42C639 757.09 638.54 756.08 638.87 755.18C639.2 754.27 640.21 753.82 641.11 754.14C648.56 756.88 708.18 778.77 715.63 781.51C716.54 781.84 717 782.84 716.67 783.75C716.41 784.46 715.74 784.89 715.03 784.89" id="Q6rJwdOkbt"></path><path d="M741.23 774.41C741.03 774.41 740.83 774.38 740.63 774.31C733.18 771.57 673.56 749.68 666.11 746.94C665.2 746.61 664.74 745.6 665.07 744.7C665.4 743.79 666.41 743.34 667.31 743.66C674.76 746.4 734.38 768.29 741.83 771.03C742.74 771.36 743.2 772.36 742.87 773.27C742.61 773.98 741.94 774.41 741.23 774.41" id="Ax05EPG3GX"></path><path d="M766.26 764.51C766.06 764.51 765.86 764.48 765.66 764.41C758.21 761.67 698.59 739.78 691.14 737.05C690.23 736.71 689.77 735.71 690.1 734.8C690.43 733.89 691.44 733.44 692.34 733.76C699.79 736.5 759.41 758.39 766.86 761.13C767.77 761.46 768.23 762.46 767.9 763.37C767.64 764.08 766.97 764.51 766.26 764.51" id="smtsvcAlN0"></path><path d="M790.13 754.62C789.93 754.62 789.73 754.58 789.53 754.51C782.08 751.78 722.46 729.89 715.01 727.15C714.1 726.82 713.64 725.81 713.97 724.91C714.3 724 715.31 723.55 716.21 723.87C723.66 726.6 783.28 748.49 790.73 751.23C791.64 751.56 792.1 752.57 791.77 753.47C791.51 754.18 790.84 754.62 790.13 754.62" id="D43iMfMDqB"></path><path d="M813.42 743.56C813.22 743.56 813.02 743.52 812.82 743.45C805.37 740.71 745.75 718.82 738.3 716.09C737.39 715.75 736.93 714.75 737.25 713.85C737.59 712.94 738.6 712.49 739.5 712.81C746.95 715.54 806.57 737.43 814.02 740.17C814.93 740.5 815.39 741.5 815.06 742.41C814.8 743.12 814.13 743.56 813.42 743.56" id="P9USh9FkL3"></path><path d="M841.95 733.08C841.74 733.08 841.54 733.04 841.35 732.97C833.89 730.23 774.27 708.34 766.82 705.61C765.91 705.27 765.45 704.27 765.78 703.37C766.12 702.46 767.13 702 768.02 702.33C775.47 705.06 835.09 726.95 842.55 729.69C843.45 730.02 843.92 731.03 843.59 731.93C843.33 732.64 842.66 733.08 841.95 733.08" id="w1ku4tNPmh"></path><path d="M656.22 831.03C654.37 831.03 652.73 833.48 652.73 836.27C652.73 839.06 654.37 841.51 656.22 841.51C658.08 841.51 659.72 839.06 659.72 836.27C659.72 833.48 658.08 831.03 656.22 831.03M656.22 848.5C650.45 848.5 645.75 843.01 645.75 836.27C645.75 829.53 650.45 824.04 656.22 824.04C662 824.04 666.7 829.53 666.7 836.27C666.7 843.01 662 848.5 656.22 848.5" id="P9iwLTIKDN"></path><path d="M681.84 820.55C679.98 820.55 678.35 823 678.35 825.79C678.35 828.58 679.98 831.03 681.84 831.03C683.7 831.03 685.33 828.58 685.33 825.79C685.33 823 683.7 820.55 681.84 820.55M681.84 838.02C676.06 838.02 671.36 832.53 671.36 825.79C671.36 819.05 676.06 813.57 681.84 813.57C687.62 813.57 692.32 819.05 692.32 825.79C692.32 832.53 687.62 838.02 681.84 838.02" id="RtZet1bHTY"></path><path d="M841.36 751.85C839.5 751.85 837.87 754.3 837.87 757.09C837.87 759.88 839.5 762.33 841.36 762.33C843.22 762.33 844.86 759.88 844.86 757.09C844.86 754.3 843.22 751.85 841.36 751.85M841.36 769.32C835.58 769.32 830.88 763.83 830.88 757.09C830.88 750.35 835.58 744.86 841.36 744.86C847.14 744.86 851.84 750.35 851.84 757.09C851.84 763.83 847.14 769.32 841.36 769.32" id="wk4YltOtcg"></path><path d="M866.98 741.37C865.12 741.37 863.48 743.82 863.48 746.61C863.48 749.4 865.12 751.85 866.98 751.85C868.84 751.85 870.47 749.4 870.47 746.61C870.47 743.82 868.84 741.37 866.98 741.37M866.98 758.84C861.2 758.84 856.5 753.35 856.5 746.61C856.5 739.87 861.2 734.39 866.98 734.39C872.76 734.39 877.46 739.87 877.46 746.61C877.46 753.35 872.76 758.84 866.98 758.84" id="k4xrHwFVtp"></path><path d="M769.75 783.15C767.89 783.15 766.26 785.6 766.26 788.38C766.26 791.18 767.89 793.63 769.75 793.63C771.61 793.63 773.25 791.18 773.25 788.38C773.25 785.6 771.61 783.15 769.75 783.15M769.75 800.61C763.98 800.61 759.27 795.13 759.27 788.38C759.27 781.65 763.98 776.16 769.75 776.16C775.53 776.16 780.23 781.65 780.23 788.38C780.23 795.13 775.53 800.61 769.75 800.61" id="k5AQwnSAqH"></path><path d="M448.68 757.83L448.68 703.68L441.69 703.68L441.69 757.83L448.68 757.83Z" id="FBKdQn8gTr"></path><path d="M408.51 825.07L408.51 686.22L401.52 686.22L401.52 825.07L408.51 825.07Z" id="iDHcRZbkk9"></path><path d="M321.18 789.27L321.18 650.41L314.19 650.41L314.19 789.27L321.18 789.27Z" id="FrG0aSJEGo"></path><path d="M233.85 750.84L233.85 611.99L226.86 611.99L226.86 750.84L233.85 750.84Z" id="PdwqRsVqiV"></path><path d="M146.52 712.42L146.52 573.56L139.53 573.56L139.53 712.42L146.52 712.42Z" id="MlzLDK2JZC"></path><path d="M355.24 724.64L362.22 724.64L362.22 667.88L355.24 667.88L355.24 724.64L355.24 724.64Z" id="w8f3E8lnOl"></path><path d="M274.02 689.71L274.02 631.79L267.03 631.79L267.03 689.71L274.02 689.71Z" id="ghE01aU3gy"></path><path d="M529.02 752.86L536.01 752.86L536.01 683.32L529.02 683.32L529.02 752.86L529.02 752.86Z" id="bto4bdUjuC"></path><path d="M553.77 632.07C577.05 640.81 575.89 661.77 563.08 667.59C550.27 673.41 466.44 702.52 466.44 702.52C466.44 702.52 461.78 708.92 434.42 698.44C407.05 687.96 144.19 575.9 127.89 566.58C114.75 559.07 111 555.52 111 543.87C111 528.15 132.55 521.75 132.55 521.75C132.55 521.75 177.95 506.03 198.33 498.46C218.71 490.89 231.52 500.21 231.52 500.21C231.52 500.21 530.48 623.34 553.77 632.07" id="jENLj4hov3"></path><path d="M455.37 669.34C478.66 678.07 474 706.6 453.18 704.07C448.08 703.45 441.94 701.33 434.41 698.44C407.05 687.96 143.61 575.31 127.89 566.58C114.66 559.23 111 555.52 111 543.87C111 528.15 124.4 529.9 136.04 534.56C147.68 539.22 432.09 660.61 455.37 669.34" id="xBRTuHfgBv"></path><path d="M122.19 531.3C115.82 531.3 111 534.44 111 543.87C111 555.52 114.66 559.23 127.89 566.58C143.61 575.31 407.05 687.96 434.41 698.44C441.94 701.33 448.08 703.45 453.18 704.07C454.06 704.18 454.91 704.23 455.73 704.23C474.34 704.23 477.68 677.7 455.37 669.34C432.09 660.61 147.68 539.22 136.04 534.56C131.38 532.69 126.44 531.3 122.19 531.3M122.19 533.8C122.19 533.8 122.19 533.8 122.19 533.8C125.65 533.8 130 534.83 135.11 536.88C138.95 538.42 173.53 553.11 217.31 571.7C305.55 609.19 438.89 665.83 454.49 671.68C465.69 675.88 469.44 684.74 468.19 691.66C467.3 696.53 463.57 701.73 455.72 701.73C455 701.73 454.25 701.68 453.48 701.59C448.75 701.02 443.02 699.07 435.31 696.11C422.5 691.21 354.78 662.6 277.77 629.56C211.2 601 137.18 568.88 129.1 564.39C115.84 557.02 113.5 553.96 113.5 543.87C113.5 536.9 116.18 533.8 122.19 533.8" id="qqxwVQKym8"></path><path d="M485.64 685.06C484.93 685.06 484.26 684.62 484 683.91C483.67 683.01 484.13 682.01 485.04 681.67C492.49 678.93 552.11 657.04 559.56 654.31C560.46 653.98 561.47 654.43 561.81 655.35C562.14 656.25 561.67 657.25 560.77 657.59C553.31 660.32 493.69 682.21 486.24 684.95C486.04 685.02 485.84 685.06 485.64 685.06" id="shmYPCzmLc"></path><path d="M470.5 667.01C469.79 667.01 469.12 666.57 468.86 665.86C468.53 664.96 468.99 663.95 469.9 663.62C477.35 660.88 536.97 638.99 544.42 636.26C545.32 635.93 546.34 636.39 546.67 637.3C547 638.2 546.53 639.21 545.63 639.54C538.18 642.27 478.56 664.16 471.1 666.9C470.9 666.97 470.7 667.01 470.5 667.01" id="nuT9KGwFDa"></path><path d="M444.89 655.36C444.17 655.36 443.51 654.93 443.25 654.22C442.92 653.31 443.38 652.31 444.29 651.98C451.74 649.24 511.36 627.35 518.81 624.61C519.71 624.29 520.72 624.74 521.05 625.65C521.38 626.56 520.92 627.56 520.01 627.89C512.56 630.63 452.94 652.52 445.49 655.26C445.29 655.33 445.09 655.36 444.89 655.36" id="SteUUZebkw"></path><path d="M421.6 645.47C420.88 645.47 420.22 645.03 419.96 644.32C419.63 643.42 420.09 642.41 421 642.08C428.45 639.34 488.07 617.45 495.52 614.71C496.42 614.39 497.43 614.84 497.76 615.75C498.09 616.66 497.63 617.66 496.72 618C489.27 620.73 429.65 642.62 422.2 645.36C422 645.43 421.8 645.47 421.6 645.47" id="YcYYgv8Kkz"></path><path d="M394.82 636.15C394.11 636.15 393.44 635.71 393.18 635C392.85 634.1 393.31 633.1 394.22 632.76C401.67 630.03 461.29 608.14 468.74 605.4C469.64 605.08 470.65 605.53 470.98 606.44C471.31 607.34 470.85 608.35 469.94 608.68C462.49 611.42 402.87 633.31 395.42 636.04C395.22 636.12 395.02 636.15 394.82 636.15" id="BEapzhZrq1"></path><path d="M368.62 625.67C367.91 625.67 367.24 625.23 366.98 624.52C366.65 623.62 367.11 622.62 368.02 622.28C375.47 619.55 435.09 597.66 442.54 594.92C443.44 594.6 444.46 595.06 444.78 595.96C445.12 596.87 444.65 597.87 443.75 598.2C436.29 600.94 376.67 622.83 369.22 625.57C369.02 625.64 368.82 625.67 368.62 625.67" id="AsLDzzUUQe"></path><path d="M343.59 615.77C342.88 615.77 342.21 615.34 341.95 614.63C341.62 613.72 342.08 612.72 342.99 612.39C350.44 609.65 410.06 587.76 417.51 585.02C418.41 584.7 419.42 585.15 419.75 586.06C420.08 586.97 419.62 587.97 418.71 588.3C411.26 591.04 351.64 612.93 344.19 615.67C343.99 615.74 343.79 615.77 343.59 615.77" id="XsWa1wDdxs"></path><path d="M319.72 605.87C319.01 605.87 318.34 605.44 318.08 604.73C317.75 603.82 318.21 602.82 319.12 602.49C326.57 599.75 386.19 577.86 393.64 575.13C394.55 574.8 395.55 575.26 395.88 576.17C396.22 577.07 395.75 578.07 394.84 578.41C387.39 581.14 327.77 603.03 320.32 605.77C320.12 605.84 319.92 605.87 319.72 605.87" id="jB6OlE6VGT"></path><path d="M296.43 594.82C295.72 594.82 295.05 594.38 294.79 593.67C294.46 592.76 294.92 591.76 295.83 591.43C303.28 588.69 362.9 566.8 370.36 564.06C371.26 563.74 372.26 564.2 372.59 565.1C372.93 566.01 372.46 567.01 371.55 567.34C364.1 570.08 304.48 591.97 297.03 594.71C296.83 594.78 296.63 594.82 296.43 594.82" id="UDErJY3hxh"></path><path d="M267.9 584.34C267.19 584.34 266.52 583.9 266.27 583.19C265.93 582.29 266.4 581.28 267.31 580.95C274.76 578.21 334.38 556.32 341.83 553.58C342.73 553.26 343.74 553.71 344.07 554.62C344.4 555.53 343.94 556.53 343.03 556.87C335.58 559.6 275.96 581.49 268.51 584.23C268.31 584.3 268.11 584.34 267.91 584.34" id="mnSMVP7zac"></path><path d="M244.33 572.98C243.61 572.98 242.95 572.55 242.69 571.84C242.36 570.93 242.82 569.93 243.73 569.6C251.18 566.86 310.8 544.97 318.25 542.23C319.15 541.9 320.16 542.36 320.49 543.27C320.82 544.17 320.36 545.18 319.45 545.51C312 548.25 252.38 570.14 244.93 572.88C244.73 572.95 244.53 572.98 244.33 572.98" id="Uf5hs8vO8T"></path><path d="M219 562.51C218.29 562.51 217.62 562.07 217.36 561.36C217.03 560.45 217.49 559.45 218.4 559.12C225.85 556.38 285.47 534.49 292.92 531.75C293.82 531.43 294.83 531.88 295.16 532.79C295.5 533.7 295.03 534.7 294.12 535.03C286.67 537.77 227.05 559.66 219.6 562.4C219.4 562.47 219.2 562.51 219 562.51" id="fuMwvqvnRe"></path><path d="M191.93 551.15C191.22 551.15 190.55 550.71 190.29 550.01C189.96 549.1 190.42 548.1 191.33 547.76C198.78 545.03 258.4 523.14 265.85 520.4C266.76 520.08 267.76 520.53 268.09 521.44C268.42 522.34 267.96 523.35 267.05 523.68C259.6 526.42 199.98 548.31 192.53 551.04C192.33 551.12 192.13 551.15 191.93 551.15" id="Ey0EjOP3aF"></path><path d="M169.22 540.67C168.51 540.67 167.84 540.23 167.58 539.53C167.25 538.62 167.72 537.62 168.62 537.28C176.08 534.55 235.69 512.65 243.15 509.92C244.05 509.6 245.06 510.05 245.39 510.96C245.72 511.86 245.25 512.87 244.35 513.2C236.9 515.94 177.28 537.83 169.82 540.57C169.63 540.64 169.42 540.67 169.22 540.67" id="tzFrMYc3kf"></path><path d="M144.77 531.07C144.06 531.07 143.39 530.63 143.13 529.92C142.8 529.02 143.26 528.01 144.17 527.68C151.62 524.94 211.24 503.05 218.69 500.31C219.59 499.99 220.6 500.45 220.93 501.35C221.27 502.26 220.8 503.26 219.9 503.59C212.44 506.33 152.82 528.22 145.37 530.96C145.17 531.03 144.97 531.07 144.77 531.07" id="L7XYoIFJRp"></path><path d="M453.63 682.29C451.77 682.29 450.13 684.74 450.13 687.53C450.13 690.32 451.77 692.77 453.63 692.77C455.49 692.77 457.12 690.32 457.12 687.53C457.12 684.74 455.49 682.29 453.63 682.29M453.63 699.76C447.85 699.76 443.15 694.27 443.15 687.53C443.15 680.79 447.85 675.3 453.63 675.3C459.41 675.3 464.11 680.79 464.11 687.53C464.11 694.27 459.41 699.76 453.63 699.76" id="haEV3FivZB"></path><path d="M428.01 671.81C426.15 671.81 424.52 674.26 424.52 677.05C424.52 679.84 426.15 682.29 428.01 682.29C429.87 682.29 431.5 679.84 431.5 677.05C431.5 674.26 429.87 671.81 428.01 671.81M428.01 689.28C422.23 689.28 417.53 683.79 417.53 677.05C417.53 670.31 422.23 664.82 428.01 664.82C433.79 664.82 438.49 670.31 438.49 677.05C438.49 683.79 433.79 689.28 428.01 689.28" id="Sh8PrVXIlS"></path><path d="M155.84 555.95C153.98 555.95 152.34 558.4 152.34 561.19C152.34 563.98 153.98 566.43 155.84 566.43C157.69 566.43 159.33 563.98 159.33 561.19C159.33 558.4 157.69 555.95 155.84 555.95M155.84 573.42C150.06 573.42 145.36 567.93 145.36 561.19C145.36 554.45 150.06 548.97 155.84 548.97C161.61 548.97 166.32 554.45 166.32 561.19C166.32 567.93 161.61 573.42 155.84 573.42" id="U8T8cbPopv"></path><path d="M130.22 545.48C128.36 545.48 126.73 547.92 126.73 550.71C126.73 553.51 128.36 555.95 130.22 555.95C132.08 555.95 133.71 553.51 133.71 550.71C133.71 547.92 132.08 545.48 130.22 545.48M130.22 562.94C124.44 562.94 119.74 557.46 119.74 550.71C119.74 543.97 124.44 538.49 130.22 538.49C136 538.49 140.7 543.97 140.7 550.71C140.7 557.45 136 562.94 130.22 562.94" id="I2pW4Sgdpp"></path><path d="M277.22 609.95C275.36 609.95 273.73 612.4 273.73 615.19C273.73 617.99 275.36 620.43 277.22 620.43C279.08 620.43 280.71 617.99 280.71 615.19C280.71 612.4 279.08 609.95 277.22 609.95M277.22 627.42C271.44 627.42 266.74 621.93 266.74 615.19C266.74 608.46 271.44 602.97 277.22 602.97C283 602.97 287.7 608.46 287.7 615.19C287.7 621.93 283 627.42 277.22 627.42" id="vvTlQKKvwD"></path><path d="M327 630.91C325.14 630.91 323.51 633.36 323.51 636.15C323.51 638.94 325.14 641.39 327 641.39C328.86 641.39 330.49 638.94 330.49 636.15C330.49 633.36 328.86 630.91 327 630.91M327 648.38C321.22 648.38 316.52 642.9 316.52 636.15C316.52 629.41 321.22 623.93 327 623.93C332.78 623.93 337.48 629.41 337.48 636.15C337.48 642.9 332.78 648.38 327 648.38" id="t3Qf5f461V"></path><path d="M225.7 587.25C223.84 587.25 222.21 589.7 222.21 592.49C222.21 595.28 223.84 597.73 225.7 597.73C227.56 597.73 229.19 595.28 229.19 592.49C229.19 589.7 227.56 587.25 225.7 587.25M225.7 604.71C219.92 604.71 215.22 599.23 215.22 592.49C215.22 585.75 219.92 580.26 225.7 580.26C231.48 580.26 236.18 585.75 236.18 592.49C236.18 599.23 231.48 604.71 225.7 604.71" id="TrbUOKhdA6"></path><path d="M447.22 256.26C447.22 299.02 374.23 333.69 284.2 333.69C194.17 333.69 121.19 299.02 121.19 256.26C121.19 213.5 194.17 178.83 284.2 178.83C374.23 178.83 447.22 213.49 447.22 256.26" id="bnMy9P7P7M"></path><path d="M427.42 256.26C427.42 288.9 363.3 315.36 284.21 315.36C205.11 315.36 140.98 288.9 140.98 256.26C140.98 223.62 205.11 197.16 284.21 197.16C363.3 197.16 427.42 223.62 427.42 256.26" id="AcfXoJb2uT"></path><path d="M299.34 420.44C299.34 427.83 293.35 433.83 285.95 433.83C278.56 433.83 272.56 427.83 272.56 420.44C272.56 417.18 272.56 391.1 272.56 387.84C272.56 380.44 278.56 374.45 285.95 374.45C293.35 374.45 299.34 380.44 299.34 387.84" id="Xly7ulk9jy"></path><path d="M294.69 460.61C294.69 465.76 290.51 469.93 285.37 469.93C280.22 469.93 276.05 465.76 276.05 460.61C276.05 455.46 285.37 444.31 285.37 444.31C285.37 444.31 294.69 455.46 294.69 460.61" id="On2lIXswoM"></path><path d="M294.69 496.71C294.69 501.85 290.51 506.02 285.37 506.02C280.22 506.02 276.05 501.85 276.05 496.71C276.05 491.56 285.37 480.41 285.37 480.41C285.37 480.41 294.69 491.56 294.69 496.71" id="InWaerQwTS"></path><path d="M529.31 550.85L488.55 534.55L488.55 563.66L529.31 579.96" id="PomnwR27v0"></path><path d="M529.31 550.85L488.55 534.55L515.33 523.48L556.09 539.79" id="z898CKev5X"></path><path d="M529.31 550.85L556.09 539.79L556.09 568.9L529.31 579.96" id="wEZYZ7S7WZ"></path><path d="M533.79 538.62L533.96 529.39L515.22 529.39C515.11 534.28 515.04 536.99 515.03 537.53C514.98 537.7 514.94 537.87 514.94 538.04C514.94 538.12 514.96 538.19 514.97 538.27C514.97 538.29 514.96 538.41 514.94 538.62C515.01 538.62 515.05 538.62 515.06 538.62C515.81 540.61 518.92 542.15 524.45 542.15C529.97 542.15 532.64 540.61 533.39 538.62" id="XohdwezdPE"></path><path d="M533.68 529.39C533.68 531.3 529.54 532.86 524.44 532.86C519.35 532.86 515.22 531.3 515.22 529.39C515.22 527.48 519.35 525.93 524.44 525.93C529.54 525.93 533.68 527.48 533.68 529.39" id="yj1RTVZqYc"></path><path d="M842.54 233.24L854.76 236.74L854.76 259.44L842.54 255.95" id="Bn2ohRHepq"></path><path d="M854.76 236.74L868.3 233.9L868.3 256.61L854.76 259.44" id="J3CeQJJEon"></path><path d="M842.54 233.24L854.76 236.74L868.15 233.82L855.93 230.33" id="G6bYQ2Q5SP"></path><path d="M857.68 230.33L857.68 226.84L854.18 226.84L854.18 230.33L857.68 230.33Z" id="eg24chqmPm"></path><path d="M854.18 146.29L854.18 138.97L857.68 138.97L857.68 146.29L854.18 146.29ZM854.18 160.94L854.18 153.62L857.68 153.62L857.68 160.94L854.18 160.94ZM854.18 175.58L854.18 168.26L857.68 168.26L857.68 175.58L854.18 175.58ZM854.18 190.22L854.18 182.9L857.68 182.9L857.68 190.22L854.18 190.22ZM854.18 204.87L854.18 197.55L857.68 197.55L857.68 204.87L854.18 204.87ZM857.68 219.51L854.18 219.51L854.18 212.19L857.68 212.19" id="NoNykvjTq0"></path><path d="M857.68 131.65L857.68 128.16L854.18 128.16L854.18 131.65L857.68 131.65Z" id="bgVN6uMV1C"></path><path d="M607.91 161.88C588.7 158.97 586.37 189.25 599.17 192.74C611.98 196.23 616.64 198.56 616.64 198.56C619.78 200.27 635.5 208.81 663.8 224.18L669.62 150.82C643.07 158.16 628.32 162.23 625.37 163.05C625.37 163.05 619.55 162.47 607.91 161.88" id="cegbE8PZNl"></path><path d="M614.31 90.27C614.31 142.85 614.31 172.05 614.31 177.9C614.31 180.95 611.83 183.42 608.78 183.42C605.72 183.42 603.25 180.95 603.25 177.9C603.25 172.05 603.25 142.85 603.25 90.27" id="fdPo7sPso5"></path><path d="M1069.34 366.24L1069.34 302.16L1015.55 327.06L1015.55 391.14" id="wywsa7Pmyz"></path><path d="M1123.29 341.34L1123.29 266.74L1069.5 247.71L1069.5 366.24L1176.91 404.09L1176.91 371.4L1170.97 358.51" id="nfSJP04dao"></path><path d="M1134.08 270.62L1069.34 247.71L1015.55 272.61L1080.29 295.52" id="SuyQo6JYwe"></path><path d="M1178.32 404.52L1113.58 381.62L1059.79 406.52L1124.54 429.42" id="jAvXr6V48l"></path><path d="M1134.08 270.62L1080.29 295.52L1127.11 397.07L1177.57 372.55L1134.08 270.62L1134.08 270.62ZM1132.28 275.3L1173.05 370.86L1128.79 392.37L1084.93 297.22" id="CkLIOTEkjE"></path><path d="M1143.71 290.87L1127.11 298.84L1127.11 429.76L1143.71 421.79" id="rcWK8LWJfX"></path><path d="M1177.57 274.27L1160.97 282.24L1160.97 413.15L1177.57 405.18" id="mvwjk5dkDp"></path><path d="M1161.57 340.98L1143.71 349.31L1143.71 422.45L1160.31 414.49" id="Tk9eqnNX3o"></path><path d="M1249.29 466.18L1232.69 474.15L1127.11 429.76L1143.71 421.79" id="k1gIGSogNX"></path><path d="M1283.16 449.57L1266.55 457.54L1160.97 413.16L1177.57 405.19" id="sebYxXKAIX"></path><path d="M1221.4 438.29L1204.07 447.52L1143.71 422.45L1160.97 413.16" id="exs4BbLb4D"></path><path d="M988.07 491.47C988.07 495.33 979.73 498.45 969.44 498.45C959.15 498.45 950.81 495.33 950.81 491.47C950.81 487.61 959.15 484.48 969.44 484.48C979.73 484.48 988.07 487.61 988.07 491.47" id="PaMHwaCPOp"></path><path d="M647.51 187.47C646.75 208.52 657.2 225.99 670.85 226.48C684.51 226.98 696.2 210.32 696.96 189.27C697.73 168.23 687.28 150.76 673.62 150.26C659.96 149.77 648.28 166.43 647.51 187.47" id="r5soCjgC2x"></path><path d="M647.51 187.47C647.72 181.63 648.8 176.14 650.51 171.25C656.45 172.51 669.8 175.39 677.77 177.6C688.25 180.52 685.92 198.56 676.02 198.56C673.24 198.56 650.96 198.56 648.17 198.56C647.61 195.04 647.37 191.32 647.51 187.47" id="E2THT4Wexb"></path><path d="M736.04 207.54C732.31 207.54 730.23 204.73 728.63 202.58C727.92 201.62 727.25 200.72 726.5 200.02C724.91 198.55 722.26 197.54 719.24 197.23C717.09 197.04 715.65 197.76 713.84 198.7C712.72 199.28 711.44 199.95 709.91 200.37C704.19 201.89 698.29 198.93 693.09 196.29C692.12 195.8 691.18 195.33 690.27 194.9C690.42 194.59 691.61 192.06 691.76 191.74C692.69 192.18 693.67 192.67 694.67 193.17C699.31 195.52 704.57 198.18 709 196.99C710.17 196.68 711.17 196.16 712.23 195.6C714.17 194.59 716.4 193.4 719.59 193.76C721.8 193.98 725.94 194.76 728.86 197.46C729.86 198.37 730.66 199.45 731.44 200.5C733.48 203.26 734.7 204.66 737.61 203.79C739.17 203.33 740.07 202.16 741.19 200.67C741.47 200.31 741.75 199.94 742.05 199.57C742.1 199.5 742.53 198.96 742.59 198.89C744.55 196.41 747.24 193.02 752.03 195.25C753.69 196.01 754.45 197.35 755.06 198.42C755.56 199.28 755.87 199.79 756.4 200.05C756.25 200.36 755.03 202.88 754.88 203.19C753.35 202.45 752.62 201.18 752.03 200.15C751.51 199.24 751.18 198.71 750.56 198.42C748.46 197.44 747.5 198.31 745.33 201.06C745.27 201.13 744.82 201.7 744.76 201.77C744.49 202.11 744.22 202.45 743.97 202.79C742.7 204.46 741.26 206.35 738.6 207.14C737.67 207.41 736.82 207.54 736.04 207.54" id="C6X5acEhNj"></path><path d="M736.54 243.98C735.53 242.61 735.47 241.15 735.42 239.97C735.38 238.91 735.33 238.29 734.91 237.75C733.5 235.91 732.24 236.25 729.05 237.68C728.96 237.71 728.31 238.01 728.22 238.04C727.82 238.22 727.42 238.4 727.04 238.59C725.15 239.48 723.01 240.49 720.28 239.97C714.74 238.89 714.05 234.51 713.54 231.31C713.35 230.14 713.17 229.03 712.82 228.07C712.09 226.03 710.21 223.91 707.67 222.25C705.84 221.05 704.24 221.07 702.22 221.05C700.97 221.05 699.5 221.06 697.95 220.71C692.17 219.43 688.32 214.08 684.91 209.35C684.28 208.47 683.66 207.61 683.05 206.81C683.33 206.6 685.55 204.9 685.83 204.69C686.45 205.51 687.09 206.4 687.75 207.31C690.79 211.53 694.23 216.31 698.7 217.3C699.89 217.57 701.04 217.57 702.21 217.56C704.4 217.59 706.88 217.55 709.58 219.32C711.44 220.54 714.76 223.14 716.11 226.88C716.57 228.16 716.78 229.48 716.98 230.76C717.52 234.16 717.95 235.96 720.95 236.54C722.52 236.84 723.87 236.22 725.55 235.43C725.97 235.23 726.39 235.03 726.83 234.84C726.91 234.81 727.54 234.53 727.62 234.49C730.49 233.2 734.44 231.43 737.68 235.61C738.8 237.06 738.86 238.6 738.91 239.83C738.95 240.83 738.99 241.42 739.34 241.89" id="eqgiXivumK"></path><path d="M701.46 176.99C698.72 176.99 695.93 176.6 693.29 176.23C692.2 176.08 691.15 175.93 690.15 175.82C690.19 175.48 690.5 172.7 690.54 172.35C691.57 172.46 692.65 172.62 693.77 172.77C698.91 173.49 704.74 174.31 708.55 171.76C709.55 171.09 710.33 170.27 711.16 169.4C712.67 167.81 714.38 166.02 717.53 165.28C719.68 164.78 723.85 164.18 727.5 165.78C728.74 166.33 729.85 167.09 730.91 167.83C733.75 169.79 735.35 170.73 737.83 168.96C739.15 168.02 739.61 166.63 740.2 164.87C740.35 164.43 740.5 163.98 740.66 163.54C740.69 163.46 740.93 162.81 740.96 162.72C742.01 159.74 743.5 155.67 748.72 156.22C750.54 156.42 751.69 157.43 752.61 158.25C753.36 158.91 753.82 159.28 754.41 159.36C754.36 159.71 754.02 162.48 753.97 162.82C752.29 162.61 751.19 161.65 750.31 160.87C749.51 160.17 749.03 159.77 748.35 159.7C746.06 159.46 745.42 160.59 744.25 163.89C744.21 163.98 743.97 164.66 743.94 164.74C743.79 165.16 743.65 165.57 743.52 165.98C742.85 167.96 742.1 170.21 739.85 171.81C735.24 175.07 731.6 172.55 728.93 170.71C727.95 170.03 727.03 169.39 726.09 168.98C724.1 168.1 721.27 167.99 718.32 168.69C716.19 169.18 715.08 170.34 713.68 171.81C712.81 172.73 711.82 173.77 710.5 174.66C707.83 176.44 704.69 176.99 701.46 176.99" id="beazHevrUb"></path><path d="M1069.34 366.24L1069.34 291.64L1015.55 272.61L1015.55 391.14L1127.11 429.76L1127.11 397.07L1121.16 384.18" id="uqwke4RfzC"></path><path d="M1117.81 413.15C1117.81 403.38 1111.26 395.46 1103.17 395.46C1100.87 395.46 1098.71 396.16 1096.77 397.3C1096.76 397.29 1096.72 397.26 1096.64 397.2C1095.77 397.88 1095.29 398.26 1095.19 398.34C1095.08 398.43 1094.96 398.52 1094.84 398.62C1094.32 399.03 1091.73 401.07 1087.07 404.74C1088.24 407.19 1088.88 408.55 1089.01 408.82C1088.72 410.21 1088.52 411.65 1088.52 413.15C1088.52 421.22 1093.02 427.95 1099.14 430.08C1099.3 430.42 1100.11 432.12 1101.57 435.19L1109.98 428.81C1110.01 428.73 1110.03 428.69 1110.03 428.69C1114.64 425.71 1117.81 419.91 1117.81 413.15" id="y8LkYfPNRN"></path><path d="M1110.42 418.66C1110.42 428.43 1103.86 436.35 1095.77 436.35C1087.68 436.35 1081.12 428.43 1081.12 418.66C1081.12 408.89 1087.68 400.97 1095.77 400.97C1103.86 400.97 1110.42 408.89 1110.42 418.66" id="VAvvsXJVgf"></path><path d="M1100.81 418.66C1100.81 422.02 1098.56 424.75 1095.77 424.75C1092.99 424.75 1090.73 422.02 1090.73 418.66C1090.73 415.29 1092.99 412.57 1095.77 412.57C1098.56 412.57 1100.81 415.29 1100.81 418.66" id="Xh38mycMLu"></path><path d="M1052.47 396.92C1052.47 387.15 1045.92 379.22 1037.83 379.22C1035.53 379.22 1033.38 379.92 1031.44 381.07C1031.43 381.06 1031.38 381.03 1031.3 380.97C1030.44 381.65 1029.95 382.03 1029.86 382.1C1029.74 382.2 1029.62 382.28 1029.51 382.38C1028.99 382.79 1026.4 384.83 1021.73 388.51C1022.9 390.96 1023.55 392.32 1023.68 392.59C1023.38 393.98 1023.18 395.42 1023.18 396.92C1023.18 404.99 1027.68 411.72 1033.8 413.85C1033.96 414.19 1034.77 415.89 1036.23 418.96L1044.65 412.58C1044.68 412.51 1044.69 412.46 1044.7 412.45C1049.3 409.48 1052.47 403.67 1052.47 396.92" id="Hu8XlkK1DE"></path><path d="M1045.08 402.43C1045.08 412.2 1038.52 420.12 1030.44 420.12C1022.34 420.12 1015.79 412.2 1015.79 402.43C1015.79 392.66 1022.34 384.74 1030.44 384.74C1038.53 384.74 1045.08 392.66 1045.08 402.43" id="iljs5ZVXEy"></path><path d="M1035.47 402.43C1035.47 405.79 1033.22 408.52 1030.44 408.52C1027.65 408.52 1025.4 405.79 1025.4 402.43C1025.4 399.07 1027.65 396.34 1030.44 396.34C1033.22 396.34 1035.47 399.07 1035.47 402.43" id="JSipPZblX"></path></defs><g visibility="inherit"><g visibility="inherit"><path></path><g><use xlink:href="#b6rfHVVjkj" opacity="1" fill="#e6e7e8" fill-opacity="1"></use><g><use xlink:href="#b6rfHVVjkj" opacity="1" fill-opacity="0" stroke="#000000" stroke-width="1" stroke-opacity="0"></use></g></g><g><use xlink:href="#E8yjbSP7Vj" opacity="1" fill="#606163" fill-opacity="1"></use><g><use xlink:href="#E8yjbSP7Vj" opacity="1" fill-opacity="0" stroke="#000000" stroke-width="1" stroke-opacity="0"></use></g></g><g><use xlink:href="#DArgDLDpbF" opacity="1" fill="#4c4c4d" fill-opacity="1"></use><g><use xlink:href="#DArgDLDpbF" opacity="1" fill-opacity="0" stroke="#000000" stroke-width="1" stroke-opacity="0"></use></g></g><g><use xlink:href="#YmthRWwDao" opacity="1" fill="#606163" fill-opacity="1"></use><g><use xlink:href="#YmthRWwDao" opacity="1" fill-opacity="0" stroke="#000000" stroke-width="1" stroke-opacity="0"></use></g></g><g><use xlink:href="#eqcSidtxd4" opacity="1" fill="#55554f" fill-opacity="1"></use><g><use xlink:href="#eqcSidtxd4" opacity="1" fill-opacity="0" stroke="#000000" stroke-width="1" stroke-opacity="0"></use></g></g><g><use xlink:href="#AnWNeoNTj" opacity="1" fill="#55554f" fill-opacity="1"></use><g><use xlink:href="#AnWNeoNTj" opacity="1" fill-opacity="0" stroke="#000000" stroke-width="1" stroke-opacity="0"></use></g></g><g><use xlink:href="#SigtfVxmJA" opacity="1" fill="#ee6054" fill-opacity="1"></use><g><use xlink:href="#SigtfVxmJA" opacity="1" fill-opacity="0" stroke="#000000" stroke-width="1" stroke-opacity="0"></use></g></g><g><use xlink:href="#lvWaeNtOix" opacity="1" fill="#f48480" fill-opacity="1"></use><g><use xlink:href="#lvWaeNtOix" opacity="1" fill-opacity="0" stroke="#000000" stroke-width="1" stroke-opacity="0"></use></g></g><g><use xlink:href="#mrE1e32l8U" opacity="1" fill="#ee6054" fill-opacity="1"></use><g><use xlink:href="#mrE1e32l8U" opacity="1" fill-opacity="0" stroke="#000000" stroke-width="1" stroke-opacity="0"></use></g></g><g><use xlink:href="#rfgTyJVMth" opacity="1" fill="#606163" fill-opacity="1"></use><g><use xlink:href="#rfgTyJVMth" opacity="1" fill-opacity="0" stroke="#000000" stroke-width="1" stroke-opacity="0"></use></g></g><g><use xlink:href="#E3q9tVQRyP" opacity="1" fill="#4c4c4d" fill-opacity="1"></use><g><use xlink:href="#E3q9tVQRyP" opacity="1" fill-opacity="0" stroke="#000000" stroke-width="1" stroke-opacity="0"></use></g></g><g><use xlink:href="#zzSRxXT3Wx" opacity="1" fill="#4c4c4d" fill-opacity="1"></use><g><use xlink:href="#zzSRxXT3Wx" opacity="1" fill-opacity="0" stroke="#000000" stroke-width="1" stroke-opacity="0"></use></g></g><g><use xlink:href="#QmwLrBenKw" opacity="1" fill="#4c4c4d" fill-opacity="1"></use><g><use xlink:href="#QmwLrBenKw" opacity="1" fill-opacity="0" stroke="#000000" stroke-width="1" stroke-opacity="0"></use></g></g><g><use xlink:href="#ts2SwgKy3A" opacity="1" fill="#4c4c4d" fill-opacity="1"></use><g><use xlink:href="#ts2SwgKy3A" opacity="1" fill-opacity="0" stroke="#000000" stroke-width="1" stroke-opacity="0"></use></g></g><g><use xlink:href="#MtR57Crk7A" opacity="1" fill="#4c4c4d" fill-opacity="1"></use><g><use xlink:href="#MtR57Crk7A" opacity="1" fill-opacity="0" stroke="#000000" stroke-width="1" stroke-opacity="0"></use></g></g><g><use xlink:href="#Njm2plF0n0" opacity="1" fill="#55554f" fill-opacity="1"></use><g><use xlink:href="#Njm2plF0n0" opacity="1" fill-opacity="0" stroke="#000000" stroke-width="1" stroke-opacity="0"></use></g></g><g><use xlink:href="#hnuseS7KKk" opacity="1" fill="#4c4c4d" fill-opacity="1"></use><g><use xlink:href="#hnuseS7KKk" opacity="1" fill-opacity="0" stroke="#000000" stroke-width="1" stroke-opacity="0"></use></g></g><g><use xlink:href="#b1WFAeaEjJ" opacity="1" fill="#606163" fill-opacity="1"></use><g><use xlink:href="#b1WFAeaEjJ" opacity="1" fill-opacity="0" stroke="#000000" stroke-width="1" stroke-opacity="0"></use></g></g><g><use xlink:href="#xpRhVefPlw" opacity="1" fill="#ee6054" fill-opacity="1"></use><g><use xlink:href="#xpRhVefPlw" opacity="1" fill-opacity="0" stroke="#000000" stroke-width="1" stroke-opacity="0"></use></g></g><g><use xlink:href="#H2fNeupgel" opacity="1" fill="#4c4c4d" fill-opacity="1"></use><g><use xlink:href="#H2fNeupgel" opacity="1" fill-opacity="0" stroke="#000000" stroke-width="1" stroke-opacity="0"></use></g></g><g><use xlink:href="#FBA2BePP5Z" opacity="1" fill="#4c4c4d" fill-opacity="1"></use><g><use xlink:href="#FBA2BePP5Z" opacity="1" fill-opacity="0" stroke="#000000" stroke-width="1" stroke-opacity="0"></use></g></g><g><use xlink:href="#c6Hh0LS82D" opacity="1" fill="#606163" fill-opacity="1"></use><g><use xlink:href="#c6Hh0LS82D" opacity="1" fill-opacity="0" stroke="#000000" stroke-width="1" stroke-opacity="0"></use></g></g><g><use xlink:href="#J5PiRcqD9r" opacity="1" fill="#55554f" fill-opacity="1"></use><g><use xlink:href="#J5PiRcqD9r" opacity="1" fill-opacity="0" stroke="#000000" stroke-width="1" stroke-opacity="0"></use></g></g><g><use xlink:href="#exVzwQdW3d" opacity="1" fill="#4c4c4d" fill-opacity="1"></use><g><use xlink:href="#exVzwQdW3d" opacity="1" fill-opacity="0" stroke="#000000" stroke-width="1" stroke-opacity="0"></use></g></g><g><use xlink:href="#kkfgrsoG6S" opacity="1" fill="#ee6054" fill-opacity="1"></use><g><use xlink:href="#kkfgrsoG6S" opacity="1" fill-opacity="0" stroke="#000000" stroke-width="1" stroke-opacity="0"></use></g></g><g><use xlink:href="#wvFpPMFFsh" opacity="1" fill="#606163" fill-opacity="1"></use><g><use xlink:href="#wvFpPMFFsh" opacity="1" fill-opacity="0" stroke="#000000" stroke-width="1" stroke-opacity="0"></use></g></g><g><use xlink:href="#UnjOroWBty" opacity="1" fill="#e6e7e8" fill-opacity="1"></use><g><use xlink:href="#UnjOroWBty" opacity="1" fill-opacity="0" stroke="#000000" stroke-width="1" stroke-opacity="0"></use></g></g><g><use xlink:href="#jDhePgfj4X" opacity="1" fill="#4c4c4d" fill-opacity="1"></use><g><use xlink:href="#jDhePgfj4X" opacity="1" fill-opacity="0" stroke="#000000" stroke-width="1" stroke-opacity="0"></use></g></g><g><use xlink:href="#faNg8OENfx" opacity="1" fill="#737577" fill-opacity="1"></use><g><use xlink:href="#faNg8OENfx" opacity="1" fill-opacity="0" stroke="#000000" stroke-width="1" stroke-opacity="0"></use></g></g><g><use xlink:href="#rn0hkSBw84" opacity="1" fill="#737577" fill-opacity="1"></use><g><use xlink:href="#rn0hkSBw84" opacity="1" fill-opacity="0" stroke="#000000" stroke-width="1" stroke-opacity="0"></use></g></g><g><use xlink:href="#cqK7RHGjHG" opacity="1" fill="#737577" fill-opacity="1"></use><g><use xlink:href="#cqK7RHGjHG" opacity="1" fill-opacity="0" stroke="#000000" stroke-width="1" stroke-opacity="0"></use></g></g><g><use xlink:href="#Uq8aW1OR20" opacity="1" fill="#737577" fill-opacity="1"></use><g><use xlink:href="#Uq8aW1OR20" opacity="1" fill-opacity="0" stroke="#000000" stroke-width="1" stroke-opacity="0"></use></g></g><g><use xlink:href="#Q6rJwdOkbt" opacity="1" fill="#737577" fill-opacity="1"></use><g><use xlink:href="#Q6rJwdOkbt" opacity="1" fill-opacity="0" stroke="#000000" stroke-width="1" stroke-opacity="0"></use></g></g><g><use xlink:href="#Ax05EPG3GX" opacity="1" fill="#737577" fill-opacity="1"></use><g><use xlink:href="#Ax05EPG3GX" opacity="1" fill-opacity="0" stroke="#000000" stroke-width="1" stroke-opacity="0"></use></g></g><g><use xlink:href="#smtsvcAlN0" opacity="1" fill="#737577" fill-opacity="1"></use><g><use xlink:href="#smtsvcAlN0" opacity="1" fill-opacity="0" stroke="#000000" stroke-width="1" stroke-opacity="0"></use></g></g><g><use xlink:href="#D43iMfMDqB" opacity="1" fill="#737577" fill-opacity="1"></use><g><use xlink:href="#D43iMfMDqB" opacity="1" fill-opacity="0" stroke="#000000" stroke-width="1" stroke-opacity="0"></use></g></g><g><use xlink:href="#P9USh9FkL3" opacity="1" fill="#737577" fill-opacity="1"></use><g><use xlink:href="#P9USh9FkL3" opacity="1" fill-opacity="0" stroke="#000000" stroke-width="1" stroke-opacity="0"></use></g></g><g><use xlink:href="#w1ku4tNPmh" opacity="1" fill="#737577" fill-opacity="1"></use><g><use xlink:href="#w1ku4tNPmh" opacity="1" fill-opacity="0" stroke="#000000" stroke-width="1" stroke-opacity="0"></use></g></g><g><use xlink:href="#P9iwLTIKDN" opacity="1" fill="#4c4c4d" fill-opacity="1"></use><g><use xlink:href="#P9iwLTIKDN" opacity="1" fill-opacity="0" stroke="#000000" stroke-width="1" stroke-opacity="0"></use></g></g><g><use xlink:href="#RtZet1bHTY" opacity="1" fill="#4c4c4d" fill-opacity="1"></use><g><use xlink:href="#RtZet1bHTY" opacity="1" fill-opacity="0" stroke="#000000" stroke-width="1" stroke-opacity="0"></use></g></g><g><use xlink:href="#wk4YltOtcg" opacity="1" fill="#4c4c4d" fill-opacity="1"></use><g><use xlink:href="#wk4YltOtcg" opacity="1" fill-opacity="0" stroke="#000000" stroke-width="1" stroke-opacity="0"></use></g></g><g><use xlink:href="#k4xrHwFVtp" opacity="1" fill="#4c4c4d" fill-opacity="1"></use><g><use xlink:href="#k4xrHwFVtp" opacity="1" fill-opacity="0" stroke="#000000" stroke-width="1" stroke-opacity="0"></use></g></g><g><use xlink:href="#k5AQwnSAqH" opacity="1" fill="#4c4c4d" fill-opacity="1"></use><g><use xlink:href="#k5AQwnSAqH" opacity="1" fill-opacity="0" stroke="#000000" stroke-width="1" stroke-opacity="0"></use></g></g><g><use xlink:href="#FBKdQn8gTr" opacity="1" fill="#4c4c4d" fill-opacity="1"></use><g><use xlink:href="#FBKdQn8gTr" opacity="1" fill-opacity="0" stroke="#000000" stroke-width="1" stroke-opacity="0"></use></g></g><g><use xlink:href="#iDHcRZbkk9" opacity="1" fill="#4c4c4d" fill-opacity="1"></use><g><use xlink:href="#iDHcRZbkk9" opacity="1" fill-opacity="0" stroke="#000000" stroke-width="1" stroke-opacity="0"></use></g></g><g><use xlink:href="#FrG0aSJEGo" opacity="1" fill="#4c4c4d" fill-opacity="1"></use><g><use xlink:href="#FrG0aSJEGo" opacity="1" fill-opacity="0" stroke="#000000" stroke-width="1" stroke-opacity="0"></use></g></g><g><use xlink:href="#PdwqRsVqiV" opacity="1" fill="#4c4c4d" fill-opacity="1"></use><g><use xlink:href="#PdwqRsVqiV" opacity="1" fill-opacity="0" stroke="#000000" stroke-width="1" stroke-opacity="0"></use></g></g><g><use xlink:href="#MlzLDK2JZC" opacity="1" fill="#4c4c4d" fill-opacity="1"></use><g><use xlink:href="#MlzLDK2JZC" opacity="1" fill-opacity="0" stroke="#000000" stroke-width="1" stroke-opacity="0"></use></g></g><g><use xlink:href="#w8f3E8lnOl" opacity="1" fill="#4c4c4d" fill-opacity="1"></use><g><use xlink:href="#w8f3E8lnOl" opacity="1" fill-opacity="0" stroke="#000000" stroke-width="1" stroke-opacity="0"></use></g></g><g><use xlink:href="#ghE01aU3gy" opacity="1" fill="#4c4c4d" fill-opacity="1"></use><g><use xlink:href="#ghE01aU3gy" opacity="1" fill-opacity="0" stroke="#000000" stroke-width="1" stroke-opacity="0"></use></g></g><g><use xlink:href="#bto4bdUjuC" opacity="1" fill="#4c4c4d" fill-opacity="1"></use><g><use xlink:href="#bto4bdUjuC" opacity="1" fill-opacity="0" stroke="#000000" stroke-width="1" stroke-opacity="0"></use></g></g><g><use xlink:href="#jENLj4hov3" opacity="1" fill="#606163" fill-opacity="1"></use><g><use xlink:href="#jENLj4hov3" opacity="1" fill-opacity="0" stroke="#000000" stroke-width="1" stroke-opacity="0"></use></g></g><g><use xlink:href="#xBRTuHfgBv" opacity="1" fill="#e6e7e8" fill-opacity="1"></use><g><use xlink:href="#xBRTuHfgBv" opacity="1" fill-opacity="0" stroke="#000000" stroke-width="1" stroke-opacity="0"></use></g></g><g><use xlink:href="#qqxwVQKym8" opacity="1" fill="#4c4c4d" fill-opacity="1"></use><g><use xlink:href="#qqxwVQKym8" opacity="1" fill-opacity="0" stroke="#000000" stroke-width="1" stroke-opacity="0"></use></g></g><g><use xlink:href="#shmYPCzmLc" opacity="1" fill="#737577" fill-opacity="1"></use><g><use xlink:href="#shmYPCzmLc" opacity="1" fill-opacity="0" stroke="#000000" stroke-width="1" stroke-opacity="0"></use></g></g><g><use xlink:href="#nuT9KGwFDa" opacity="1" fill="#737577" fill-opacity="1"></use><g><use xlink:href="#nuT9KGwFDa" opacity="1" fill-opacity="0" stroke="#000000" stroke-width="1" stroke-opacity="0"></use></g></g><g><use xlink:href="#SteUUZebkw" opacity="1" fill="#737577" fill-opacity="1"></use><g><use xlink:href="#SteUUZebkw" opacity="1" fill-opacity="0" stroke="#000000" stroke-width="1" stroke-opacity="0"></use></g></g><g><use xlink:href="#YcYYgv8Kkz" opacity="1" fill="#737577" fill-opacity="1"></use><g><use xlink:href="#YcYYgv8Kkz" opacity="1" fill-opacity="0" stroke="#000000" stroke-width="1" stroke-opacity="0"></use></g></g><g><use xlink:href="#BEapzhZrq1" opacity="1" fill="#737577" fill-opacity="1"></use><g><use xlink:href="#BEapzhZrq1" opacity="1" fill-opacity="0" stroke="#000000" stroke-width="1" stroke-opacity="0"></use></g></g><g><use xlink:href="#AsLDzzUUQe" opacity="1" fill="#737577" fill-opacity="1"></use><g><use xlink:href="#AsLDzzUUQe" opacity="1" fill-opacity="0" stroke="#000000" stroke-width="1" stroke-opacity="0"></use></g></g><g><use xlink:href="#XsWa1wDdxs" opacity="1" fill="#737577" fill-opacity="1"></use><g><use xlink:href="#XsWa1wDdxs" opacity="1" fill-opacity="0" stroke="#000000" stroke-width="1" stroke-opacity="0"></use></g></g><g><use xlink:href="#jB6OlE6VGT" opacity="1" fill="#737577" fill-opacity="1"></use><g><use xlink:href="#jB6OlE6VGT" opacity="1" fill-opacity="0" stroke="#000000" stroke-width="1" stroke-opacity="0"></use></g></g><g><use xlink:href="#UDErJY3hxh" opacity="1" fill="#737577" fill-opacity="1"></use><g><use xlink:href="#UDErJY3hxh" opacity="1" fill-opacity="0" stroke="#000000" stroke-width="1" stroke-opacity="0"></use></g></g><g><use xlink:href="#mnSMVP7zac" opacity="1" fill="#737577" fill-opacity="1"></use><g><use xlink:href="#mnSMVP7zac" opacity="1" fill-opacity="0" stroke="#000000" stroke-width="1" stroke-opacity="0"></use></g></g><g><use xlink:href="#Uf5hs8vO8T" opacity="1" fill="#737577" fill-opacity="1"></use><g><use xlink:href="#Uf5hs8vO8T" opacity="1" fill-opacity="0" stroke="#000000" stroke-width="1" stroke-opacity="0"></use></g></g><g><use xlink:href="#fuMwvqvnRe" opacity="1" fill="#737577" fill-opacity="1"></use><g><use xlink:href="#fuMwvqvnRe" opacity="1" fill-opacity="0" stroke="#000000" stroke-width="1" stroke-opacity="0"></use></g></g><g><use xlink:href="#Ey0EjOP3aF" opacity="1" fill="#737577" fill-opacity="1"></use><g><use xlink:href="#Ey0EjOP3aF" opacity="1" fill-opacity="0" stroke="#000000" stroke-width="1" stroke-opacity="0"></use></g></g><g><use xlink:href="#tzFrMYc3kf" opacity="1" fill="#737577" fill-opacity="1"></use><g><use xlink:href="#tzFrMYc3kf" opacity="1" fill-opacity="0" stroke="#000000" stroke-width="1" stroke-opacity="0"></use></g></g><g><use xlink:href="#L7XYoIFJRp" opacity="1" fill="#737577" fill-opacity="1"></use><g><use xlink:href="#L7XYoIFJRp" opacity="1" fill-opacity="0" stroke="#000000" stroke-width="1" stroke-opacity="0"></use></g></g><g><use xlink:href="#haEV3FivZB" opacity="1" fill="#4c4c4d" fill-opacity="1"></use><g><use xlink:href="#haEV3FivZB" opacity="1" fill-opacity="0" stroke="#000000" stroke-width="1" stroke-opacity="0"></use></g></g><g><use xlink:href="#Sh8PrVXIlS" opacity="1" fill="#4c4c4d" fill-opacity="1"></use><g><use xlink:href="#Sh8PrVXIlS" opacity="1" fill-opacity="0" stroke="#000000" stroke-width="1" stroke-opacity="0"></use></g></g><g><use xlink:href="#U8T8cbPopv" opacity="1" fill="#4c4c4d" fill-opacity="1"></use><g><use xlink:href="#U8T8cbPopv" opacity="1" fill-opacity="0" stroke="#000000" stroke-width="1" stroke-opacity="0"></use></g></g><g><use xlink:href="#I2pW4Sgdpp" opacity="1" fill="#4c4c4d" fill-opacity="1"></use><g><use xlink:href="#I2pW4Sgdpp" opacity="1" fill-opacity="0" stroke="#000000" stroke-width="1" stroke-opacity="0"></use></g></g><g><use xlink:href="#vvTlQKKvwD" opacity="1" fill="#4c4c4d" fill-opacity="1"></use><g><use xlink:href="#vvTlQKKvwD" opacity="1" fill-opacity="0" stroke="#000000" stroke-width="1" stroke-opacity="0"></use></g></g><g><use xlink:href="#t3Qf5f461V" opacity="1" fill="#4c4c4d" fill-opacity="1"></use><g><use xlink:href="#t3Qf5f461V" opacity="1" fill-opacity="0" stroke="#000000" stroke-width="1" stroke-opacity="0"></use></g></g><g><use xlink:href="#TrbUOKhdA6" opacity="1" fill="#4c4c4d" fill-opacity="1"></use><g><use xlink:href="#TrbUOKhdA6" opacity="1" fill-opacity="0" stroke="#000000" stroke-width="1" stroke-opacity="0"></use></g></g><g><use xlink:href="#bnMy9P7P7M" opacity="1" fill="#606163" fill-opacity="1"></use><g><use xlink:href="#bnMy9P7P7M" opacity="1" fill-opacity="0" stroke="#000000" stroke-width="1" stroke-opacity="0"></use></g></g><g><use xlink:href="#AcfXoJb2uT" opacity="1" fill="#ee6054" fill-opacity="1"></use><g><use xlink:href="#AcfXoJb2uT" opacity="1" fill-opacity="0" stroke="#000000" stroke-width="1" stroke-opacity="0"></use></g></g><g><use xlink:href="#Xly7ulk9jy" opacity="1" fill="#55554f" fill-opacity="1"></use><g><use xlink:href="#Xly7ulk9jy" opacity="1" fill-opacity="0" stroke="#000000" stroke-width="1" stroke-opacity="0"></use></g></g><g><use xlink:href="#On2lIXswoM" opacity="1" fill="#ee6054" fill-opacity="1"></use><g><use xlink:href="#On2lIXswoM" opacity="1" fill-opacity="0" stroke="#000000" stroke-width="1" stroke-opacity="0"></use></g></g><g><use xlink:href="#InWaerQwTS" opacity="1" fill="#ee6054" fill-opacity="1"></use><g><use xlink:href="#InWaerQwTS" opacity="1" fill-opacity="0" stroke="#000000" stroke-width="1" stroke-opacity="0"></use></g></g><g><use xlink:href="#PomnwR27v0" opacity="1" fill="#55554f" fill-opacity="1"></use><g><use xlink:href="#PomnwR27v0" opacity="1" fill-opacity="0" stroke="#000000" stroke-width="1" stroke-opacity="0"></use></g></g><g><use xlink:href="#z898CKev5X" opacity="1" fill="#606163" fill-opacity="1"></use><g><use xlink:href="#z898CKev5X" opacity="1" fill-opacity="0" stroke="#000000" stroke-width="1" stroke-opacity="0"></use></g></g><g><use xlink:href="#wEZYZ7S7WZ" opacity="1" fill="#4c4c4d" fill-opacity="1"></use><g><use xlink:href="#wEZYZ7S7WZ" opacity="1" fill-opacity="0" stroke="#000000" stroke-width="1" stroke-opacity="0"></use></g></g><g><use xlink:href="#XohdwezdPE" opacity="1" fill="#ee6054" fill-opacity="1"></use><g><use xlink:href="#XohdwezdPE" opacity="1" fill-opacity="0" stroke="#000000" stroke-width="1" stroke-opacity="0"></use></g></g><g><use xlink:href="#yj1RTVZqYc" opacity="1" fill="#f48480" fill-opacity="1"></use><g><use xlink:href="#yj1RTVZqYc" opacity="1" fill-opacity="0" stroke="#000000" stroke-width="1" stroke-opacity="0"></use></g></g><g><use xlink:href="#Bn2ohRHepq" opacity="1" fill="#55554f" fill-opacity="1"></use><g><use xlink:href="#Bn2ohRHepq" opacity="1" fill-opacity="0" stroke="#000000" stroke-width="1" stroke-opacity="0"></use></g></g><g><use xlink:href="#J3CeQJJEon" opacity="1" fill="#4c4c4d" fill-opacity="1"></use><g><use xlink:href="#J3CeQJJEon" opacity="1" fill-opacity="0" stroke="#000000" stroke-width="1" stroke-opacity="0"></use></g></g><g><use xlink:href="#G6bYQ2Q5SP" opacity="1" fill="#606163" fill-opacity="1"></use><g><use xlink:href="#G6bYQ2Q5SP" opacity="1" fill-opacity="0" stroke="#000000" stroke-width="1" stroke-opacity="0"></use></g></g><g><use xlink:href="#eg24chqmPm" opacity="1" fill="#4c4c4d" fill-opacity="1"></use><g><use xlink:href="#eg24chqmPm" opacity="1" fill-opacity="0" stroke="#000000" stroke-width="1" stroke-opacity="0"></use></g></g><g><use xlink:href="#NoNykvjTq0" opacity="1" fill="#4c4c4d" fill-opacity="1"></use><g><use xlink:href="#NoNykvjTq0" opacity="1" fill-opacity="0" stroke="#000000" stroke-width="1" stroke-opacity="0"></use></g></g><g><use xlink:href="#bgVN6uMV1C" opacity="1" fill="#4c4c4d" fill-opacity="1"></use><g><use xlink:href="#bgVN6uMV1C" opacity="1" fill-opacity="0" stroke="#000000" stroke-width="1" stroke-opacity="0"></use></g></g><g><use xlink:href="#cegbE8PZNl" opacity="1" fill="#55554f" fill-opacity="1"></use><g><use xlink:href="#cegbE8PZNl" opacity="1" fill-opacity="0" stroke="#000000" stroke-width="1" stroke-opacity="0"></use></g></g><g><use xlink:href="#fdPo7sPso5" opacity="1" fill="#4c4c4d" fill-opacity="1"></use><g><use xlink:href="#fdPo7sPso5" opacity="1" fill-opacity="0" stroke="#000000" stroke-width="1" stroke-opacity="0"></use></g></g><g><use xlink:href="#wywsa7Pmyz" opacity="1" fill="#4c4c4d" fill-opacity="1"></use><g><use xlink:href="#wywsa7Pmyz" opacity="1" fill-opacity="0" stroke="#000000" stroke-width="1" stroke-opacity="0"></use></g></g><g><use xlink:href="#nfSJP04dao" opacity="1" fill="#4c4c4d" fill-opacity="1"></use><g><use xlink:href="#nfSJP04dao" opacity="1" fill-opacity="0" stroke="#000000" stroke-width="1" stroke-opacity="0"></use></g></g><g><use xlink:href="#SuyQo6JYwe" opacity="1" fill="#606163" fill-opacity="1"></use><g><use xlink:href="#SuyQo6JYwe" opacity="1" fill-opacity="0" stroke="#000000" stroke-width="1" stroke-opacity="0"></use></g></g><g><use xlink:href="#jAvXr6V48l" opacity="1" fill="#606163" fill-opacity="1"></use><g><use xlink:href="#jAvXr6V48l" opacity="1" fill-opacity="0" stroke="#000000" stroke-width="1" stroke-opacity="0"></use></g></g><g><use xlink:href="#CkLIOTEkjE" opacity="1" fill="#606163" fill-opacity="1"></use><g><use xlink:href="#CkLIOTEkjE" opacity="1" fill-opacity="0" stroke="#000000" stroke-width="1" stroke-opacity="0"></use></g></g><g><use xlink:href="#rcWK8LWJfX" opacity="1" fill="#606163" fill-opacity="1"></use><g><use xlink:href="#rcWK8LWJfX" opacity="1" fill-opacity="0" stroke="#000000" stroke-width="1" stroke-opacity="0"></use></g></g><g><use xlink:href="#mvwjk5dkDp" opacity="1" fill="#606163" fill-opacity="1"></use><g><use xlink:href="#mvwjk5dkDp" opacity="1" fill-opacity="0" stroke="#000000" stroke-width="1" stroke-opacity="0"></use></g></g><g><use xlink:href="#Tk9eqnNX3o" opacity="1" fill="#55554f" fill-opacity="1"></use><g><use xlink:href="#Tk9eqnNX3o" opacity="1" fill-opacity="0" stroke="#000000" stroke-width="1" stroke-opacity="0"></use></g></g><g><use xlink:href="#k1gIGSogNX" opacity="1" fill="#606163" fill-opacity="1"></use><g><use xlink:href="#k1gIGSogNX" opacity="1" fill-opacity="0" stroke="#000000" stroke-width="1" stroke-opacity="0"></use></g></g><g><use xlink:href="#sebYxXKAIX" opacity="1" fill="#606163" fill-opacity="1"></use><g><use xlink:href="#sebYxXKAIX" opacity="1" fill-opacity="0" stroke="#000000" stroke-width="1" stroke-opacity="0"></use></g></g><g><use xlink:href="#exs4BbLb4D" opacity="1" fill="#55554f" fill-opacity="1"></use><g><use xlink:href="#exs4BbLb4D" opacity="1" fill-opacity="0" stroke="#000000" stroke-width="1" stroke-opacity="0"></use></g></g><g><use xlink:href="#PaMHwaCPOp" opacity="1" fill="#f48480" fill-opacity="1"></use><g><use xlink:href="#PaMHwaCPOp" opacity="1" fill-opacity="0" stroke="#000000" stroke-width="1" stroke-opacity="0"></use></g></g><g><use xlink:href="#r5soCjgC2x" opacity="1" fill="#606163" fill-opacity="1"></use><g><use xlink:href="#r5soCjgC2x" opacity="1" fill-opacity="0" stroke="#000000" stroke-width="1" stroke-opacity="0"></use></g></g><g><use xlink:href="#E2THT4Wexb" opacity="1" fill="#4c4c4d" fill-opacity="1"></use><g><use xlink:href="#E2THT4Wexb" opacity="1" fill-opacity="0" stroke="#000000" stroke-width="1" stroke-opacity="0"></use></g></g><g><use xlink:href="#C6X5acEhNj" opacity="1" fill="#ee6054" fill-opacity="1"></use><g><use xlink:href="#C6X5acEhNj" opacity="1" fill-opacity="0" stroke="#000000" stroke-width="1" stroke-opacity="0"></use></g></g><g><use xlink:href="#eqgiXivumK" opacity="1" fill="#ee6054" fill-opacity="1"></use><g><use xlink:href="#eqgiXivumK" opacity="1" fill-opacity="0" stroke="#000000" stroke-width="1" stroke-opacity="0"></use></g></g><g><use xlink:href="#beazHevrUb" opacity="1" fill="#ee6054" fill-opacity="1"></use><g><use xlink:href="#beazHevrUb" opacity="1" fill-opacity="0" stroke="#000000" stroke-width="1" stroke-opacity="0"></use></g></g><g><use xlink:href="#uqwke4RfzC" opacity="1" fill="#55554f" fill-opacity="1"></use><g><use xlink:href="#uqwke4RfzC" opacity="1" fill-opacity="0" stroke="#000000" stroke-width="1" stroke-opacity="0"></use></g></g><g><use xlink:href="#y8LkYfPNRN" opacity="1" fill="#4c4c4d" fill-opacity="1"></use><g><use xlink:href="#y8LkYfPNRN" opacity="1" fill-opacity="0" stroke="#000000" stroke-width="1" stroke-opacity="0"></use></g></g><g><use xlink:href="#VAvvsXJVgf" opacity="1" fill="#55554f" fill-opacity="1"></use><g><use xlink:href="#VAvvsXJVgf" opacity="1" fill-opacity="0" stroke="#000000" stroke-width="1" stroke-opacity="0"></use></g></g><g><use xlink:href="#Xh38mycMLu" opacity="1" fill="#4c4c4d" fill-opacity="1"></use><g><use xlink:href="#Xh38mycMLu" opacity="1" fill-opacity="0" stroke="#000000" stroke-width="1" stroke-opacity="0"></use></g></g><g><use xlink:href="#Hu8XlkK1DE" opacity="1" fill="#4c4c4d" fill-opacity="1"></use><g><use xlink:href="#Hu8XlkK1DE" opacity="1" fill-opacity="0" stroke="#000000" stroke-width="1" stroke-opacity="0"></use></g></g><g><use xlink:href="#iljs5ZVXEy" opacity="1" fill="#55554f" fill-opacity="1"></use><g><use xlink:href="#iljs5ZVXEy" opacity="1" fill-opacity="0" stroke="#000000" stroke-width="1" stroke-opacity="0"></use></g></g><g><use xlink:href="#JSipPZblX" opacity="1" fill="#4c4c4d" fill-opacity="1"></use><g><use xlink:href="#JSipPZblX" opacity="1" fill-opacity="0" stroke="#000000" stroke-width="1" stroke-opacity="0"></use></g></g></g></g></svg>