<?xml version="1.0" encoding="UTF-8" standalone="no"?>
<!DOCTYPE svg PUBLIC "-//W3C//DTD SVG 1.1//EN" "http://www.w3.org/Graphics/SVG/1.1/DTD/svg11.dtd">
<svg version="1.1" xmlns="http://www.w3.org/2000/svg" xmlns:xlink="http://www.w3.org/1999/xlink" preserveAspectRatio="xMidYMid meet" viewBox="0 0 1920 1080"><defs><path d="M1859.24 1073.53L1859.24 12.53L5.24 12.53L5.24 1073.53L1859.24 1073.53Z" id="X1fuhWzjqn"></path><path d="M299.15 743.25C299.15 790.56 299.15 816.85 299.15 822.1C299.15 826.45 295.63 829.97 291.28 829.97C278.42 829.97 175.52 829.97 162.66 829.97C158.31 829.97 154.79 826.45 154.79 822.1C154.79 815 154.79 758.21 154.79 751.11C154.79 746.77 158.31 743.25 162.66 743.25C172.09 743.25 247.55 743.25 256.98 743.25C265.5 743.25 273.64 739.73 279.48 733.53C280.88 732.05 292.02 720.23 293.41 718.75C294.04 718.08 294.91 717.71 295.83 717.71C297.66 717.71 299.14 719.19 299.14 721.02C299.14 722.51 299.14 729.91 299.14 743.25L299.15 743.25ZM166.16 313.19C195.25 313.19 211.4 313.19 214.64 313.19C249.55 313.19 277.85 341.49 277.85 376.41C277.85 396.78 277.85 498.63 277.85 681.97C276.07 681.97 275.08 681.97 274.88 681.97C272.59 681.97 270.73 683.83 270.73 686.13C270.73 687.75 270.73 700.74 270.73 702.36C270.73 716.03 259.65 727.11 245.98 727.11C240.66 727.11 214.05 727.11 166.16 727.11L166.16 313.19L166.16 313.19ZM310.92 681.97L308.74 681.97C308.74 493.94 308.74 389.49 308.74 368.6C308.74 321.16 270.37 282.67 222.94 282.52C218.28 282.51 195 282.43 153.09 282.3L153.09 727.11C150.38 727.11 148.87 727.11 148.57 727.11C143.21 727.11 138.86 731.45 138.86 736.81C138.86 746.83 138.86 826.98 138.86 837C138.86 842.35 143.21 846.7 148.57 846.7C164.25 846.7 289.69 846.7 305.37 846.7C310.73 846.7 315.08 842.35 315.08 837C315.08 821.91 315.08 701.21 315.08 686.13C315.08 683.83 313.22 681.97 310.92 681.97" id="TAKBmw884f"></path><path d="M515.48 586.4C520.93 583.7 524.71 578.09 524.71 571.63C524.71 563.09 524.71 520.41 524.71 443.59L511.64 443.59L511.64 491.11L478.97 491.11L478.97 443.59L465.9 443.59L465.9 491.11L444.99 491.11L444.99 443.59L524.71 443.59C524.71 422.3 524.71 410.47 524.71 408.1C525.61 408.29 526.55 408.38 527.52 408.38C535.3 408.38 541.61 402.07 541.61 394.29C541.61 386.5 535.3 380.19 527.52 380.19C519.73 380.19 513.42 386.5 513.42 394.29C513.42 394.52 513.44 394.74 513.45 394.97C512.95 395.98 510.43 401.03 505.88 410.11L461.22 355.95L509.54 355.95L509.54 363.6L524.71 363.6C524.71 352.28 524.71 345.99 524.71 344.73C524.71 310.25 496.76 282.3 462.28 282.3C427.8 282.3 399.85 310.25 399.85 344.73C399.85 358.11 399.85 465.13 399.85 478.5C399.85 501.5 418.5 520.15 441.5 520.15C444.85 520.15 461.59 520.15 491.72 520.15C491.72 551.04 491.72 568.2 491.72 571.63C491.72 577.73 495.08 583.07 500.03 585.92C500.03 601.88 500.03 681.68 500.03 825.31L452.38 825.31L452.38 846.7L564.05 846.7L564.05 825.31L515.48 825.31" id="pCi5X2cmZv"></path><path d="M760.69 446.95L757.22 446.95L757.22 409.56C738.31 409.56 727.81 409.56 725.71 409.56C726.78 407.53 727.6 405.35 728.13 403.05C730.47 403.05 742.2 403.05 763.31 403.05L710.02 282.72L693.81 282.72L640.52 403.05C661.63 403.05 673.36 403.05 675.7 403.05C676.23 405.35 677.05 407.53 678.12 409.56C676.02 409.56 665.52 409.56 646.61 409.56L646.61 446.95C644.53 446.95 643.37 446.95 643.14 446.95C638.74 446.95 635.13 450.56 635.13 454.96C635.13 459.37 638.74 462.97 643.14 462.97C643.5 462.97 646.34 462.97 646.7 462.97C633.69 546.27 634.53 631.19 649.23 714.28C649.25 714.35 649.36 714.97 649.37 715.05C651.69 727.8 660.95 735.61 672.3 735.61C683.66 735.61 690.49 726.41 690.49 715.05C690.49 715.05 690.49 715.05 690.49 715.05C675.66 631.72 674.77 546.53 687.83 462.97C688.16 462.97 690.85 462.97 691.19 462.97C695.59 462.97 699.19 459.37 699.19 454.96C699.19 450.56 695.59 446.95 691.19 446.95C691.22 446.95 691.42 446.95 691.78 446.95C691.78 431.92 691.78 423.57 691.78 421.9C694.91 423.17 698.33 423.89 701.92 423.89C705.5 423.89 708.92 423.17 712.05 421.9C712.05 423.57 712.05 431.92 712.05 446.95C712.41 446.95 712.6 446.95 712.64 446.95C708.24 446.95 704.64 450.56 704.64 454.96C704.64 459.37 708.24 462.97 712.64 462.97C712.98 462.97 715.67 462.97 716 462.97C729.06 546.53 728.17 631.72 713.34 715.05C713.34 715.05 713.34 715.05 713.34 715.05C713.34 726.41 720.17 735.61 731.53 735.61C742.88 735.61 752.14 727.8 754.46 715.05C754.47 714.97 754.58 714.35 754.6 714.28C769.3 631.19 770.14 546.27 757.13 462.97C757.48 462.97 760.33 462.97 760.69 462.97C765.09 462.97 768.7 459.37 768.7 454.96C768.7 450.56 765.09 446.95 760.69 446.95" id="zDqbi4PSUd"></path><path d="M917.94 330.68C917.94 327.17 920.79 324.33 924.3 324.33C920.79 324.33 917.94 321.48 917.94 317.97C917.94 314.46 920.79 311.61 924.3 311.61C920.79 311.61 917.94 308.76 917.94 305.25C917.94 301.74 920.79 298.89 924.3 298.89C927.81 298.89 930.65 301.74 930.65 305.25C930.65 308.76 927.81 311.61 924.3 311.61C927.81 311.61 930.65 314.46 930.65 317.97C930.65 321.48 927.81 324.33 924.3 324.33C927.81 324.33 930.65 327.17 930.65 330.68C930.65 334.2 927.81 337.04 924.3 337.04C927.81 337.04 930.65 339.89 930.65 343.4C930.65 346.91 927.81 349.76 924.3 349.76C920.79 349.76 917.94 346.91 917.94 343.4C917.94 339.89 920.79 337.04 924.3 337.04C920.79 337.04 917.94 334.19 917.94 330.68M866.7 468.9C868.79 468.9 869.95 468.9 870.18 468.9C857.43 550.54 858.25 633.76 872.67 715.19C872.68 715.27 872.79 715.87 872.8 715.95C875.08 728.45 884.15 736.1 895.28 736.1C906.41 736.1 913.1 727.08 913.1 715.95C913.1 715.95 913.1 715.95 913.1 715.95C898.56 634.28 897.7 550.79 910.49 468.9C910.82 468.9 913.45 468.9 913.78 468.9C918.1 468.9 921.63 465.36 921.63 461.05C921.63 456.73 918.1 453.2 913.78 453.2C913.82 453.2 914.01 453.2 914.36 453.2C914.36 438.47 914.36 430.28 914.36 428.65C917.43 429.9 920.78 430.6 924.3 430.6C927.81 430.6 931.16 429.9 934.24 428.65C934.24 430.28 934.24 438.47 934.24 453.2C934.58 453.2 934.77 453.2 934.81 453.2C930.5 453.2 926.96 456.73 926.96 461.05C926.96 465.36 930.5 468.9 934.81 468.9C935.14 468.9 937.77 468.9 938.1 468.9C950.9 550.79 950.04 634.28 935.49 715.95C935.49 715.95 935.49 715.95 935.49 715.95C935.49 727.08 942.19 736.1 953.31 736.1C964.45 736.1 973.51 728.45 975.79 715.95C975.8 715.87 975.91 715.27 975.93 715.19C990.34 633.76 991.16 550.54 978.41 468.9C978.76 468.9 981.55 468.9 981.9 468.9C986.21 468.9 989.75 465.36 989.75 461.05C989.75 456.73 986.21 453.2 981.9 453.2C981.67 453.2 980.54 453.2 978.5 453.2L978.5 410.59C961.32 410.59 951.78 410.59 949.87 410.59C950.39 408.54 950.69 406.41 950.69 404.21C952.58 404.21 962.02 404.21 979.01 404.21L938.91 282.3L909.84 282.3L870.58 404.21C886.97 404.21 896.08 404.21 897.91 404.21C897.91 406.41 898.21 408.54 898.72 410.59C896.81 410.59 887.27 410.59 870.09 410.59L870.09 453.2C868.05 453.2 866.92 453.2 866.7 453.2C862.38 453.2 858.85 456.73 858.85 461.05C858.85 465.36 862.38 468.9 866.7 468.9" id="hAeMj43ga9"></path><path d="M1284.13 600.11L1108.86 600.11L1090.02 629.63C1069.25 707.88 1057.71 751.35 1055.4 760.05C1048.94 784.37 1056.97 808.39 1073.34 824.2C1054.91 824.2 962.8 824.2 796.99 824.2L796.99 798.29L780.98 798.29L780.98 842.57C1084.75 842.57 1253.51 842.57 1287.26 842.57C1295.94 842.57 1302.96 835.54 1302.96 826.87C1302.96 813.72 1302.96 747.97 1302.96 629.63" id="qv9oXLWJ3B"></path><path d="M128.09 257.3L128.09 288.19C165.02 288.19 185.53 288.19 189.64 288.19C224.55 288.19 252.85 316.49 252.85 351.41C252.85 371.78 252.85 473.63 252.85 656.97L283.74 656.97C283.74 468.94 283.74 364.49 283.74 343.6C283.74 296.16 245.37 257.67 197.94 257.52" id="XbVXiXXzoP"></path><path d="M141.16 702.11L141.16 288.19L128.09 288.19L128.09 702.11L141.16 702.11Z" id="YlGCwg8bck"></path><path d="M274.15 718.25C274.15 765.56 274.15 791.85 274.15 797.1C274.15 801.45 270.63 804.97 266.28 804.97C253.42 804.97 150.52 804.97 137.66 804.97C133.31 804.97 129.79 801.45 129.79 797.1C129.79 790 129.79 733.21 129.79 726.11C129.79 721.77 133.31 718.25 137.66 718.25C147.09 718.25 222.55 718.25 231.98 718.25C240.5 718.25 248.64 714.73 254.48 708.53C255.88 707.05 267.02 695.23 268.41 693.75C269.04 693.08 269.91 692.71 270.83 692.71C272.66 692.71 274.14 694.19 274.14 696.02C274.14 697.51 274.14 704.91 274.14 718.25L274.15 718.25ZM285.92 656.97C264.3 656.97 252.29 656.97 249.88 656.97C247.59 656.97 245.73 658.83 245.73 661.13C245.73 662.75 245.73 675.74 245.73 677.36C245.73 691.03 234.65 702.11 220.98 702.11C211.24 702.11 133.31 702.11 123.57 702.11C118.21 702.11 113.86 706.45 113.86 711.81C113.86 721.83 113.86 801.98 113.86 812C113.86 817.35 118.21 821.7 123.57 821.7C139.25 821.7 264.69 821.7 280.38 821.7C285.73 821.7 290.08 817.35 290.08 812C290.08 796.91 290.08 676.21 290.08 661.13C290.08 658.83 288.22 656.97 285.92 656.97" id="ov02vYYUut"></path><path d="M516.61 369.29C516.61 377.07 510.3 383.38 502.52 383.38C494.73 383.38 488.42 377.07 488.42 369.29C488.42 361.5 494.73 355.19 502.52 355.19C510.3 355.19 516.61 361.5 516.61 369.29" id="iCJt0V2dyn"></path><path d="M490.48 800.31L490.48 546.49L475.04 546.49L475.04 800.31L427.38 800.31L427.38 821.7L539.05 821.7L539.05 800.31" id="Xtez9osS1o"></path><path d="M499.71 338.6L499.71 330.95L484.54 330.95L484.54 338.6L499.71 338.6Z" id="bnL7fGp35m"></path><path d="M499.71 319.73C499.71 285.25 471.76 257.3 437.28 257.3C402.8 257.3 374.85 285.25 374.85 319.73C374.85 333.11 374.85 440.13 374.85 453.5C374.85 476.5 393.5 495.15 416.5 495.15C419.85 495.15 436.59 495.15 466.72 495.15C466.72 526.04 466.72 543.2 466.72 546.63C466.72 555.7 474.14 563.12 483.21 563.12C483.21 563.12 483.21 563.12 483.21 563.12C492.28 563.12 499.71 555.7 499.71 546.63C499.71 541.26 499.71 514.42 499.71 466.11L419.99 466.11L419.99 418.59L499.71 418.59L499.71 365.92L490.48 365.92L480.88 385.11L436.22 330.95L499.71 330.95" id="yc0MTawXY9"></path><path d="M453.97 466.11L453.97 418.59L440.9 418.59L440.9 466.11L453.97 466.11Z" id="FaWTymPRwP"></path><path d="M499.71 466.11L499.71 418.59L486.64 418.59L486.64 466.11L499.71 466.11Z" id="OmmlpHO9Fy"></path><path d="M666.78 421.95L666.78 384.56L621.61 384.56L621.61 421.95L666.78 421.95Z" id="isDvypMVyW"></path><path d="M732.22 421.95L732.22 384.56L687.05 384.56L687.05 421.95L732.22 421.95Z" id="KtvGD9XGTM"></path><path d="M676.92 378.05L615.52 378.05L668.81 257.72L676.92 257.72" id="P1Ra8eccpJ"></path><path d="M676.92 378.05L738.31 378.05L685.02 257.72L676.92 257.72" id="hhrsLt5GYQ"></path><path d="M703.84 371.96C703.84 386.83 691.79 398.89 676.92 398.89C662.04 398.89 649.99 386.84 649.99 371.96C649.99 357.09 662.04 345.04 676.92 345.04C691.79 345.04 703.84 357.09 703.84 371.96" id="njvTKBSPpM"></path><path d="M666.19 421.95C637.36 421.95 621.34 421.95 618.14 421.95C613.74 421.95 610.13 425.56 610.13 429.96C610.13 434.37 613.74 437.97 618.14 437.97C618.5 437.97 621.34 437.97 621.7 437.97C608.69 521.27 609.53 606.19 624.23 689.28C624.25 689.35 624.36 689.97 624.37 690.05C626.69 702.8 635.95 710.61 647.3 710.61C658.66 710.61 665.49 701.41 665.49 690.05C665.49 690.05 665.49 690.05 665.49 690.05C650.66 606.72 649.77 521.53 662.83 437.97C663.16 437.97 665.85 437.97 666.19 437.97C670.59 437.97 674.19 434.37 674.19 429.96C674.19 425.56 670.59 421.95 666.19 421.95" id="bhSssGsctW"></path><path d="M687.64 421.95C716.47 421.95 732.48 421.95 735.69 421.95C740.09 421.95 743.7 425.56 743.7 429.96C743.7 434.37 740.09 437.97 735.69 437.97C735.33 437.97 732.48 437.97 732.13 437.97C745.14 521.27 744.3 606.19 729.6 689.28C729.58 689.35 729.47 689.97 729.46 690.05C727.14 702.8 717.88 710.61 706.53 710.61C695.17 710.61 688.34 701.41 688.34 690.05C688.34 690.05 688.34 690.05 688.34 690.05C703.17 606.72 704.06 521.53 691 437.97C690.67 437.97 687.98 437.97 687.64 437.97C683.24 437.97 679.64 434.37 679.64 429.96C679.64 425.56 683.24 421.95 687.64 421.95" id="Xv1gXIbWvj"></path><path d="M899.3 286.61C895.79 286.61 892.94 283.76 892.94 280.25C892.94 276.74 895.79 273.89 899.3 273.89C899.3 272.79 899.3 267.26 899.3 257.3L884.84 257.3L845.58 379.21L899.3 379.21C899.3 346.54 899.3 328.39 899.3 324.76C895.79 324.76 892.94 321.91 892.94 318.4C892.94 314.89 895.79 312.04 899.3 312.04C895.79 312.04 892.94 309.2 892.94 305.68C892.94 302.17 895.79 299.33 899.3 299.33C895.79 299.33 892.94 296.48 892.94 292.97C892.94 289.46 895.79 286.61 899.3 286.61" id="Ryo91IHxd1"></path><path d="M913.91 257.3L899.3 257.3C899.3 267.26 899.3 272.79 899.3 273.9C902.81 273.9 905.65 276.74 905.65 280.25C905.65 283.76 902.81 286.61 899.3 286.61C902.81 286.61 905.65 289.46 905.65 292.97C905.65 296.48 902.81 299.33 899.3 299.33C902.81 299.33 905.65 302.17 905.65 305.68C905.65 309.2 902.81 312.04 899.3 312.04C902.81 312.04 905.65 314.89 905.65 318.4C905.65 321.91 902.81 324.76 899.3 324.76C899.3 328.39 899.3 346.54 899.3 379.21L954.01 379.21" id="HuLcj4EHuK"></path><path d="M889.36 428.2L889.36 385.59L845.09 385.59L845.09 428.2L889.36 428.2Z" id="pbCoQeibOF"></path><path d="M953.5 428.2L953.5 385.59L909.23 385.59L909.23 428.2L953.5 428.2Z" id="o5ImXeDYQB"></path><path d="M925.69 379.21C925.69 393.78 913.87 405.6 899.3 405.6C884.72 405.6 872.91 393.78 872.91 379.21C872.91 364.63 884.72 352.82 899.3 352.82C913.87 352.82 925.69 364.63 925.69 379.21" id="drSdDwAJAW"></path><path d="M888.78 428.2C860.53 428.2 844.84 428.2 841.7 428.2C837.38 428.2 833.85 431.73 833.85 436.05C833.85 440.37 837.38 443.9 841.7 443.9C842.05 443.9 844.84 443.9 845.18 443.9C832.43 525.54 833.25 608.76 847.67 690.19C847.68 690.27 847.79 690.87 847.8 690.95C850.08 703.45 859.15 711.1 870.28 711.1C881.41 711.1 888.1 702.08 888.1 690.95C888.1 690.95 888.1 690.95 888.1 690.95C873.56 609.28 872.7 525.79 885.49 443.9C885.82 443.9 888.45 443.9 888.78 443.9C893.1 443.9 896.63 440.37 896.63 436.05C896.63 431.73 893.1 428.2 888.78 428.2" id="lzrK9l8kt7"></path><path d="M909.81 428.2C938.07 428.2 953.76 428.2 956.9 428.2C961.21 428.2 964.75 431.73 964.75 436.05C964.75 440.37 961.21 443.9 956.9 443.9C956.55 443.9 953.76 443.9 953.41 443.9C966.16 525.54 965.34 608.76 950.93 690.19C950.91 690.27 950.8 690.87 950.79 690.95C948.51 703.45 939.45 711.1 928.32 711.1C917.19 711.1 910.49 702.08 910.49 690.95C910.49 690.95 910.49 690.95 910.49 690.95C925.03 609.28 925.9 525.79 913.1 443.9C912.77 443.9 910.14 443.9 909.81 443.9C905.5 443.9 901.96 440.37 901.96 436.05C901.96 431.73 905.5 428.2 909.81 428.2" id="eC2TWqvcR9"></path><path d="M1110.25 817.57L1110.25 799.2L771.99 799.2L771.99 817.57L1110.25 817.57Z" id="XCeuDWRgqH"></path><path d="M1277.96 604.63L1065.03 604.63C1044.25 682.88 1032.71 726.35 1030.4 735.05C1019.34 776.72 1050.75 817.57 1093.88 817.57C1110.71 817.57 1245.42 817.57 1262.26 817.57C1270.94 817.57 1277.96 810.54 1277.96 801.87" id="M6UU38raHd"></path><path d="M1259.59 711.1C1259.59 759.76 1220.15 799.2 1171.49 799.2C1122.84 799.2 1083.4 759.76 1083.4 711.1C1083.4 662.45 1122.84 623 1171.49 623C1220.15 623 1259.59 662.45 1259.59 711.1" id="IE3pJ0BtGD"></path><path d="M1259.13 575.11L1083.86 575.11L1065.02 604.63L1277.96 604.63" id="gvEdkZgt35"></path><path d="M1240.75 711.1C1240.75 749.35 1209.74 780.35 1171.49 780.35C1133.25 780.35 1102.24 749.35 1102.24 711.1C1102.24 672.85 1133.25 641.85 1171.49 641.85C1209.74 641.85 1240.75 672.85 1240.75 711.1" id="tlFZefnX96"></path><path d="M1212.11 710.52C1212.11 732.63 1194.19 750.55 1172.08 750.55C1149.98 750.55 1132.05 732.63 1132.05 710.52C1132.05 688.41 1149.97 670.48 1172.08 670.48C1194.19 670.48 1212.11 688.41 1212.11 710.52" id="ve40U9oKlT"></path><path d="M771.99 817.57L771.99 773.29L755.98 773.29L755.98 817.57L771.99 817.57Z" id="jcZSbnfiL5"></path></defs><g visibility="inherit"><g visibility="inherit"><path></path><g><use xlink:href="#X1fuhWzjqn" opacity="1" fill="#ffffff" fill-opacity="1"></use><g><use xlink:href="#X1fuhWzjqn" opacity="1" fill-opacity="0" stroke="#000000" stroke-width="1" stroke-opacity="0"></use></g></g><g><use xlink:href="#TAKBmw884f" opacity="1" fill="#e6e7e8" fill-opacity="1"></use><g><use xlink:href="#TAKBmw884f" opacity="1" fill-opacity="0" stroke="#000000" stroke-width="1" stroke-opacity="0"></use></g></g><g><use xlink:href="#pCi5X2cmZv" opacity="1" fill="#e6e7e8" fill-opacity="1"></use><g><use xlink:href="#pCi5X2cmZv" opacity="1" fill-opacity="0" stroke="#000000" stroke-width="1" stroke-opacity="0"></use></g></g><g><use xlink:href="#zDqbi4PSUd" opacity="1" fill="#e6e7e8" fill-opacity="1"></use><g><use xlink:href="#zDqbi4PSUd" opacity="1" fill-opacity="0" stroke="#000000" stroke-width="1" stroke-opacity="0"></use></g></g><g><use xlink:href="#hAeMj43ga9" opacity="1" fill="#e6e7e8" fill-opacity="1"></use><g><use xlink:href="#hAeMj43ga9" opacity="1" fill-opacity="0" stroke="#000000" stroke-width="1" stroke-opacity="0"></use></g></g><g><use xlink:href="#qv9oXLWJ3B" opacity="1" fill="#e6e7e8" fill-opacity="1"></use><g><use xlink:href="#qv9oXLWJ3B" opacity="1" fill-opacity="0" stroke="#000000" stroke-width="1" stroke-opacity="0"></use></g></g><g><use xlink:href="#XbVXiXXzoP" opacity="1" fill="#6d6e70" fill-opacity="1"></use><g><use xlink:href="#XbVXiXXzoP" opacity="1" fill-opacity="0" stroke="#000000" stroke-width="1" stroke-opacity="0"></use></g></g><g><use xlink:href="#YlGCwg8bck" opacity="1" fill="#b6b7b8" fill-opacity="1"></use><g><use xlink:href="#YlGCwg8bck" opacity="1" fill-opacity="0" stroke="#000000" stroke-width="1" stroke-opacity="0"></use></g></g><g><use xlink:href="#ov02vYYUut" opacity="1" fill="#9b1823" fill-opacity="1"></use><g><use xlink:href="#ov02vYYUut" opacity="1" fill-opacity="0" stroke="#000000" stroke-width="1" stroke-opacity="0"></use></g></g><g><use xlink:href="#iCJt0V2dyn" opacity="1" fill="#b6b7b8" fill-opacity="1"></use><g><use xlink:href="#iCJt0V2dyn" opacity="1" fill-opacity="0" stroke="#000000" stroke-width="1" stroke-opacity="0"></use></g></g><g><use xlink:href="#Xtez9osS1o" opacity="1" fill="#6d6e70" fill-opacity="1"></use><g><use xlink:href="#Xtez9osS1o" opacity="1" fill-opacity="0" stroke="#000000" stroke-width="1" stroke-opacity="0"></use></g></g><g><use xlink:href="#bnL7fGp35m" opacity="1" fill="#b6b7b8" fill-opacity="1"></use><g><use xlink:href="#bnL7fGp35m" opacity="1" fill-opacity="0" stroke="#000000" stroke-width="1" stroke-opacity="0"></use></g></g><g><use xlink:href="#yc0MTawXY9" opacity="1" fill="#9b1823" fill-opacity="1"></use><g><use xlink:href="#yc0MTawXY9" opacity="1" fill-opacity="0" stroke="#000000" stroke-width="1" stroke-opacity="0"></use></g></g><g><use xlink:href="#FaWTymPRwP" opacity="1" fill="#6d6e70" fill-opacity="1"></use><g><use xlink:href="#FaWTymPRwP" opacity="1" fill-opacity="0" stroke="#000000" stroke-width="1" stroke-opacity="0"></use></g></g><g><use xlink:href="#OmmlpHO9Fy" opacity="1" fill="#6d6e70" fill-opacity="1"></use><g><use xlink:href="#OmmlpHO9Fy" opacity="1" fill-opacity="0" stroke="#000000" stroke-width="1" stroke-opacity="0"></use></g></g><g><use xlink:href="#isDvypMVyW" opacity="1" fill="#b6b7b8" fill-opacity="1"></use><g><use xlink:href="#isDvypMVyW" opacity="1" fill-opacity="0" stroke="#000000" stroke-width="1" stroke-opacity="0"></use></g></g><g><use xlink:href="#KtvGD9XGTM" opacity="1" fill="#929294" fill-opacity="1"></use><g><use xlink:href="#KtvGD9XGTM" opacity="1" fill-opacity="0" stroke="#000000" stroke-width="1" stroke-opacity="0"></use></g></g><g><use xlink:href="#P1Ra8eccpJ" opacity="1" fill="#b6b7b8" fill-opacity="1"></use><g><use xlink:href="#P1Ra8eccpJ" opacity="1" fill-opacity="0" stroke="#000000" stroke-width="1" stroke-opacity="0"></use></g></g><g><use xlink:href="#hhrsLt5GYQ" opacity="1" fill="#929294" fill-opacity="1"></use><g><use xlink:href="#hhrsLt5GYQ" opacity="1" fill-opacity="0" stroke="#000000" stroke-width="1" stroke-opacity="0"></use></g></g><g><use xlink:href="#njvTKBSPpM" opacity="1" fill="#dbdbdb" fill-opacity="1"></use><g><use xlink:href="#njvTKBSPpM" opacity="1" fill-opacity="0" stroke="#000000" stroke-width="1" stroke-opacity="0"></use></g></g><g><use xlink:href="#bhSssGsctW" opacity="1" fill="#ce202f" fill-opacity="1"></use><g><use xlink:href="#bhSssGsctW" opacity="1" fill-opacity="0" stroke="#000000" stroke-width="1" stroke-opacity="0"></use></g></g><g><use xlink:href="#Xv1gXIbWvj" opacity="1" fill="#ce202f" fill-opacity="1"></use><g><use xlink:href="#Xv1gXIbWvj" opacity="1" fill-opacity="0" stroke="#000000" stroke-width="1" stroke-opacity="0"></use></g></g><g><use xlink:href="#Ryo91IHxd1" opacity="1" fill="#b6b7b8" fill-opacity="1"></use><g><use xlink:href="#Ryo91IHxd1" opacity="1" fill-opacity="0" stroke="#000000" stroke-width="1" stroke-opacity="0"></use></g></g><g><use xlink:href="#HuLcj4EHuK" opacity="1" fill="#929294" fill-opacity="1"></use><g><use xlink:href="#HuLcj4EHuK" opacity="1" fill-opacity="0" stroke="#000000" stroke-width="1" stroke-opacity="0"></use></g></g><g><use xlink:href="#pbCoQeibOF" opacity="1" fill="#b6b7b8" fill-opacity="1"></use><g><use xlink:href="#pbCoQeibOF" opacity="1" fill-opacity="0" stroke="#000000" stroke-width="1" stroke-opacity="0"></use></g></g><g><use xlink:href="#o5ImXeDYQB" opacity="1" fill="#929294" fill-opacity="1"></use><g><use xlink:href="#o5ImXeDYQB" opacity="1" fill-opacity="0" stroke="#000000" stroke-width="1" stroke-opacity="0"></use></g></g><g><use xlink:href="#drSdDwAJAW" opacity="1" fill="#dbdbdb" fill-opacity="1"></use><g><use xlink:href="#drSdDwAJAW" opacity="1" fill-opacity="0" stroke="#000000" stroke-width="1" stroke-opacity="0"></use></g></g><g><use xlink:href="#lzrK9l8kt7" opacity="1" fill="#ce202f" fill-opacity="1"></use><g><use xlink:href="#lzrK9l8kt7" opacity="1" fill-opacity="0" stroke="#000000" stroke-width="1" stroke-opacity="0"></use></g></g><g><use xlink:href="#eC2TWqvcR9" opacity="1" fill="#ce202f" fill-opacity="1"></use><g><use xlink:href="#eC2TWqvcR9" opacity="1" fill-opacity="0" stroke="#000000" stroke-width="1" stroke-opacity="0"></use></g></g><g><use xlink:href="#XCeuDWRgqH" opacity="1" fill="#29282a" fill-opacity="1"></use><g><use xlink:href="#XCeuDWRgqH" opacity="1" fill-opacity="0" stroke="#000000" stroke-width="1" stroke-opacity="0"></use></g></g><g><use xlink:href="#M6UU38raHd" opacity="1" fill="#ce202f" fill-opacity="1"></use><g><use xlink:href="#M6UU38raHd" opacity="1" fill-opacity="0" stroke="#000000" stroke-width="1" stroke-opacity="0"></use></g></g><g><use xlink:href="#IE3pJ0BtGD" opacity="1" fill="#29282a" fill-opacity="1"></use><g><use xlink:href="#IE3pJ0BtGD" opacity="1" fill-opacity="0" stroke="#000000" stroke-width="1" stroke-opacity="0"></use></g></g><g><use xlink:href="#gvEdkZgt35" opacity="1" fill="#9b1823" fill-opacity="1"></use><g><use xlink:href="#gvEdkZgt35" opacity="1" fill-opacity="0" stroke="#000000" stroke-width="1" stroke-opacity="0"></use></g></g><g><use xlink:href="#tlFZefnX96" opacity="1" fill="#dbdbdb" fill-opacity="1"></use><g><use xlink:href="#tlFZefnX96" opacity="1" fill-opacity="0" stroke="#000000" stroke-width="1" stroke-opacity="0"></use></g></g><g><use xlink:href="#ve40U9oKlT" opacity="1" fill="#9b1823" fill-opacity="1"></use><g><use xlink:href="#ve40U9oKlT" opacity="1" fill-opacity="0" stroke="#000000" stroke-width="1" stroke-opacity="0"></use></g></g><g><use xlink:href="#jcZSbnfiL5" opacity="1" fill="#dbdbdb" fill-opacity="1"></use><g><use xlink:href="#jcZSbnfiL5" opacity="1" fill-opacity="0" stroke="#000000" stroke-width="1" stroke-opacity="0"></use></g></g></g></g></svg>